{
.appVersion = "1230";
DisplayStrings = (
"/dotbelowcomb/mdotbelow.sc",
"/commaaccentcomb/tcommaaccent.sc",
"/dieresiscomb/odieresismacron",
"/dotaccentcomb/odotaccentmacron",
f,
"/macroncomb.case/macroncomb.case/macroncomb.case/Umacrondieresis",
"/hookabovecomb.case/Ahookabove",
"/hookabovecomb/uhornhookabove",
"/commercialMinusSign",
"/six.sc",
"/a.sc",
"/ldot.sc"
);
classes = (
{
automatic = 1;
code = "zero one two three four five six seven eight nine";
name = figures;
},
{
automatic = 1;
code = "zero.numr one.numr two.numr three.numr four.numr five.numr six.numr seven.numr eight.numr nine.numr";
name = numerators;
},
{
automatic = 1;
code = "zero.dnom one.dnom two.dnom three.dnom four.dnom five.dnom six.dnom seven.dnom eight.dnom nine.dnom";
name = denominators;
},
{
automatic = 1;

glyphs = (
{
color = 4;
glyphname = A;
lastChange = "2019-04-06 02:48:40 +0000";
layers = (
{
anchors = (
{
name = bottom;
position = "{680, 0}";
},
{
name = btm;
position = "{660, -166}";
},
{
name = ogonek;
position = "{1224, 20}";
},
{
name = top;
position = "{682, 1660}";
}
);
layerId = "8BC678DE-46B6-4C98-A96E-C0ED61786D32";
paths = (
{
closed = 1;
nodes = (
"648 1210 LINE",
"688 1328 LINE",
"728 1210 LINE",
"1154 0 LINE",
"1330 0 LINE",
"768 1502 LINE",
"606 1502 LINE",
"32 0 LINE",
"206 0 LINE"
);
},
{
closed = 1;
nodes = (
"1056 408 LINE",
"1024 532 LINE",
"320 532 LINE",
"290 408 LINE"
);
}
);
width = 1360;
},
{
anchors = (
{
name = bottom;
position = "{714, 0}";
},
{
name = btm;
position = "{676, -166}";
},
{
name = ogonek;
position = "{1284, 20}";
},
{
name = top;
position = "{714, 1660}";
}
);
layerId = "23A20576-2241-481A-AD5B-28E85381F753";
paths = (
{
closed = 1;
nodes = (
"654 1002 LINE",
"704 1196 LINE",
"752 1002 LINE",
"1050 0 LINE",
"1444 0 LINE",
"922 1496 LINE",
"500 1496 LINE",
"-18 0 LINE",
"372 0 LINE"
);
},
{
closed = 1;
nodes = (
"1070 278 LINE",
"1030 538 LINE",
"348 538 LINE",
"306 278 LINE"
);
}
);
width = 1426;
},
{
anchors = (
{
name = bottom;
position = "{689, 0}";
},
{
name = btm;
position = "{664, -166}";
},
{
name = ogonek;
position = "{1238, 20}";
},
{
name = top;
position = "{687, 1660}";
}
);
layerId = "247DB4A4-D150-4133-9396-DC38172DD635";
paths = (
{
closed = 1;
nodes = (
"651 1117 LINE",
"695 1260 LINE",
"737 1117 LINE",
"1108 0 LINE",
"1363 0 LINE",
"807 1502 LINE",
"578 1502 LINE",
"14 0 LINE",
"262 0 LINE"
);
},
{
closed = 1;
nodes = (
"1058 365 LINE",
"1016 538 LINE",
"334 538 LINE",
"294 365 LINE"
);
}
);
width = 1376;
}
);
leftKerningGroup = A;
rightKerningGroup = A;
unicode = 0041;
},
{
glyphname = Aogonek;
lastChange = "2019-04-06 02:48:40 +0000";
layers = (
{
components = (
{
name = A;
}
);
layerId = "8BC678DE-46B6-4C98-A96E-C0ED61786D32";
paths = (
{
closed = 1;
nodes = (
"882 -438 OFFCURVE",
"986 -500 OFFCURVE",
"1116 -500 CURVE SMOOTH",
"1198 -500 OFFCURVE",
"1292 -480 OFFCURVE",
"1344 -440 CURVE",
"1344 -350 LINE",
"1292 -376 OFFCURVE",
"1238 -388 OFFCURVE",
"1188 -390 CURVE SMOOTH",
"1106 -390 OFFCURVE",
"1042 -364 OFFCURVE",
"1042 -274 CURVE",
"1040 -154 OFFCURVE",
"1208 -44 OFFCURVE",
"1308 8 CURVE",
"1284 22 LINE",
"1174 6 LINE",
"1058 -50 OFFCURVE",
"878 -164 OFFCURVE",
"880 -304 CURVE"
);
}
);
width = 1360;
},
{
components = (
{
name = A;
}
);
layerId = "23A20576-2241-481A-AD5B-28E85381F753";
paths = (
{
closed = 1;
nodes = (
"918 -428 OFFCURVE",
"1046 -504 OFFCURVE",
"1188 -504 CURVE SMOOTH",
"1298 -504 OFFCURVE",
"1376 -480 OFFCURVE",
"1440 -438 CURVE",
"1440 -272 LINE",
"1404 -284 OFFCURVE",
"1368 -292 OFFCURVE",
"1334 -292 CURVE SMOOTH",
"1264 -292 OFFCURVE",
"1216 -270 OFFCURVE",
"1212 -206 CURVE",
"1206 -114 OFFCURVE",
"1294 -44 OFFCURVE",
"1394 8 CURVE",
"1302 58 LINE",
"1146 0 LINE",
"1032 -56 OFFCURVE",
"910 -158 OFFCURVE",
"914 -300 CURVE"
);
}
);
width = 1426;
},
{
components = (
{
alignment = -1;
name = A;
}
);
layerId = "247DB4A4-D150-4133-9396-DC38172DD635";
paths = (
{
closed = 1;
nodes = (
"898 -429 OFFCURVE",
"1004 -501 OFFCURVE",
"1138 -501 CURVE SMOOTH",
"1220 -501 OFFCURVE",
"1312 -483 OFFCURVE",
"1369 -441 CURVE",
"1369 -320 LINE",
"1325 -335 OFFCURVE",
"1278 -347 OFFCURVE",
"1235 -347 CURVE SMOOTH",
"1168 -347 OFFCURVE",
"1113 -326 OFFCURVE",
"1111 -246 CURVE",
"1108 -151 OFFCURVE",
"1218 -54 OFFCURVE",
"1339 10 CURVE",
"1296 32 LINE",
"1155 3 LINE",
"1038 -54 OFFCURVE",
"892 -165 OFFCURVE",
"895 -296 CURVE"
);
}
);
width = 1376;
}
);
leftKerningGroup = A;
rightKerningGroup = A;
unicode = 0104;
},
{
color = 4;
glyphname = AE;
lastChange = "2019-04-06 02:48:40 +0000";
layers = (
{
anchors = (
{
name = bottom;
position = "{904, 0}";
},
{
name = btm;
position = "{1352, -166}";
},
{
name = top;
position = "{996, 1660}";
}
);
layerId = "8BC678DE-46B6-4C98-A96E-C0ED61786D32";
paths = (
{
closed = 1;
nodes = (
"130 0 LINE",
"802 1404 LINE",
"660 1486 LINE",
"-54 0 LINE"
);
},
{
closed = 1;
nodes = (
"660 1486 LINE",
"682 1376 LINE",
"884 1376 LINE",
"820 1486 LINE"
);
},
{
closed = 1;
nodes = (
"948 408 LINE",
"918 532 LINE",
"264 532 LINE",
"232 408 LINE"
);
},
{
closed = 1;
nodes = (
"1742 0 LINE",
"1742 130 LINE",
"984 130 LINE",
"984 702 LINE",
"1498 702 LINE",
"1498 830 LINE",
"984 830 LINE",
"984 1358 LINE",
"1670 1358 LINE",
"1670 1486 LINE",
"820 1486 LINE",
"820 0 LINE"
);
}
);
width = 1806;
},
{
anchors = (
{
name = bottom;
position = "{962, 0}";
},
{
name = btm;
position = "{1378, -166}";
},
{
name = top;
position = "{1032, 1660}";
}
);
layerId = "23A20576-2241-481A-AD5B-28E85381F753";
paths = (
{
closed = 1;
nodes = (
"284 0 LINE",
"874 1366 LINE",
"588 1486 LINE",
"-116 0 LINE"
);
},
{
closed = 1;
nodes = (
"588 1486 LINE",
"636 1344 LINE",
"896 1344 LINE",
"846 1486 LINE"
);
},
{
closed = 1;
nodes = (
"1018 310 LINE",
"1002 566 LINE",
"326 566 LINE",
"280 310 LINE"
);
},
{
closed = 1;
nodes = (
"1838 0 LINE",
"1838 284 LINE",
"1214 284 LINE",
"1214 626 LINE",
"1648 626 LINE",
"1648 898 LINE",
"1214 898 LINE",
"1214 1208 LINE",
"1780 1208 LINE",
"1780 1486 LINE",
"846 1486 LINE",
"846 0 LINE"
);
}
);
width = 1924;
},
{
anchors = (
{
name = bottom;
position = "{915, 0}";
},
{
name = btm;
position = "{1354, -166}";
},
{
name = top;
position = "{1001, 1660}";
}
);
layerId = "247DB4A4-D150-4133-9396-DC38172DD635";
paths = (
{
closed = 1;
nodes = (
"179 0 LINE",
"834 1378 LINE",
"637 1486 LINE",
"-78 0 LINE"
);
},
{
closed = 1;
nodes = (
"637 1486 LINE",
"667 1344 LINE",
"901 1344 LINE",
"822 1486 LINE"
);
},
{
closed = 1;
nodes = (
"986 375 LINE",
"952 546 LINE",
"272 546 LINE",
"230 375 LINE"
);
},
{
closed = 1;
nodes = (
"1756 0 LINE",
"1756 184 LINE",
"1056 184 LINE",
"1056 676 LINE",
"1521 676 LINE",
"1521 856 LINE",
"1056 856 LINE",
"1056 1306 LINE",
"1685 1306 LINE",
"1685 1486 LINE",
"822 1486 LINE",
"822 0 LINE"
);
}
);
width = 1830;
}
);
leftKerningGroup = A;
rightKerningGroup = E;
unicode = 00C6;
},
{
color = 4;
glyphname = B;
lastChange = "2019-04-06 02:48:40 +0000";
layers = (
{
anchors = (
{
name = bottom;
position = "{660, 0}";
},
{
name = btm;
position = "{696, -166}";
},
{
name = top;
position = "{632, 1660}";
}
);
layerId = "8BC678DE-46B6-4C98-A96E-C0ED61786D32";
paths = (
{
closed = 1;
nodes = (
"288 0 LINE",
"386 -4 OFFCURVE",
"518 -14 OFFCURVE",
"626 -14 CURVE SMOOTH",
"1062 -14 OFFCURVE",
"1212 160 OFFCURVE",
"1212 442 CURVE SMOOTH",
"1212 636 OFFCURVE",
"1052 786 OFFCURVE",
"872 794 CURVE",
"1046 838 OFFCURVE",
"1110 1010 OFFCURVE",
"1110 1152 CURVE SMOOTH",
"1110 1370 OFFCURVE",
"950 1500 OFFCURVE",
"624 1500 CURVE SMOOTH",
"488 1500 OFFCURVE",
"416 1486 OFFCURVE",
"292 1486 CURVE",
"202 1488 LINE",
"202 0 LINE"
);
},
{
closed = 1;
nodes = (
"366 1370 LINE",
"418 1378 OFFCURVE",
"538 1382 OFFCURVE",
"592 1382 CURVE SMOOTH",
"804 1382 OFFCURVE",
"950 1314 OFFCURVE",
"950 1128 CURVE SMOOTH",
"950 950 OFFCURVE",
"858 836 OFFCURVE",
"704 824 CURVE SMOOTH",
"630 824 OFFCURVE",
"428 820 OFFCURVE",
"366 828 CURVE"
);
},
{
closed = 1;
nodes = (
"366 702 LINE",
"416 708 OFFCURVE",
"612 706 OFFCURVE",
"686 706 CURVE SMOOTH",
"910 702 OFFCURVE",
"1044 620 OFFCURVE",
"1044 422 CURVE SMOOTH",
"1044 188 OFFCURVE",
"900 108 OFFCURVE",
"644 108 CURVE SMOOTH",
"554 108 OFFCURVE",
"448 112 OFFCURVE",
"366 126 CURVE"
);
}
);
width = 1318;
},
{
anchors = (
{
name = bottom;
position = "{714, 0}";
},
{
name = btm;
position = "{828, -166}";
},
{
name = top;
position = "{708, 1662}";
}
);
layerId = "23A20576-2241-481A-AD5B-28E85381F753";
paths = (
{
closed = 1;
nodes = (
"356 0 LINE",
"438 -4 OFFCURVE",
"600 -14 OFFCURVE",
"738 -14 CURVE SMOOTH",
"1214 -14 OFFCURVE",
"1354 178 OFFCURVE",
"1354 450 CURVE SMOOTH",
"1354 638 OFFCURVE",
"1224 764 OFFCURVE",
"1052 786 CURVE",
"1202 828 OFFCURVE",
"1276 960 OFFCURVE",
"1276 1118 CURVE SMOOTH",
"1276 1354 OFFCURVE",
"1118 1500 OFFCURVE",
"704 1500 CURVE SMOOTH",
"552 1500 OFFCURVE",
"452 1486 OFFCURVE",
"350 1486 CURVE",
"168 1488 LINE",
"168 0 LINE"
);
},
{
closed = 1;
nodes = (
"538 1238 LINE",
"556 1248 OFFCURVE",
"638 1250 OFFCURVE",
"666 1250 CURVE SMOOTH",
"830 1250 OFFCURVE",
"920 1208 OFFCURVE",
"920 1084 CURVE SMOOTH",
"920 928 OFFCURVE",
"840 874 OFFCURVE",
"682 874 CURVE SMOOTH",
"648 874 OFFCURVE",
"570 876 OFFCURVE",
"538 882 CURVE"
);
},
{
closed = 1;
nodes = (
"538 636 LINE",
"562 642 OFFCURVE",
"660 644 OFFCURVE",
"708 644 CURVE SMOOTH",
"896 644 OFFCURVE",
"974 576 OFFCURVE",
"974 448 CURVE SMOOTH",
"974 292 OFFCURVE",
"890 230 OFFCURVE",
"720 230 CURVE SMOOTH",
"660 230 OFFCURVE",
"564 236 OFFCURVE",
"538 252 CURVE"
);
}
);
width = 1428;
},
{
anchors = (
{
name = bottom;
position = "{661, 0}";
},
{
name = btm;
position = "{710, -166}";
},
{
name = top;
position = "{652, 1660}";
}
);
layerId = "247DB4A4-D150-4133-9396-DC38172DD635";
paths = (
{
closed = 1;
nodes = (
"305 0 LINE",
"377 -4 OFFCURVE",
"516 -14 OFFCURVE",
"632 -14 CURVE SMOOTH",
"1095 -14 OFFCURVE",
"1234 177 OFFCURVE",
"1234 447 CURVE SMOOTH",
"1234 630 OFFCURVE",
"1093 791 OFFCURVE",
"912 802 CURVE",
"1070 843 OFFCURVE",
"1138 1005 OFFCURVE",
"1138 1146 CURVE SMOOTH",
"1138 1359 OFFCURVE",
"983 1500 OFFCURVE",
"641 1500 CURVE SMOOTH",
"495 1500 OFFCURVE",
"396 1486 OFFCURVE",
"299 1486 CURVE",
"189 1488 LINE",
"189 0 LINE"
);
},
{
closed = 1;
nodes = (
"421 1321 LINE",
"448 1331 OFFCURVE",
"565 1335 OFFCURVE",
"602 1335 CURVE SMOOTH",
"800 1335 OFFCURVE",
"911 1265 OFFCURVE",
"911 1114 CURVE SMOOTH",
"911 933 OFFCURVE",
"812 846 OFFCURVE",
"676 846 CURVE SMOOTH",
"605 846 OFFCURVE",
"493 840 OFFCURVE",
"421 851 CURVE"
);
},
{
closed = 1;
nodes = (
"421 676 LINE",
"476 684 OFFCURVE",
"586 681 OFFCURVE",
"662 681 CURVE SMOOTH",
"891 681 OFFCURVE",
"997 603 OFFCURVE",
"997 423 CURVE SMOOTH",
"997 221 OFFCURVE",
"869 154 OFFCURVE",
"654 154 CURVE SMOOTH",
"583 154 OFFCURVE",
"454 156 OFFCURVE",
"421 177 CURVE"
);
}
);
width = 1322;
}
);
leftKerningGroup = H;
rightKerningGroup = B;
unicode = 0042;
},
{
color = 4;
glyphname = C;
lastChange = "2019-04-06 02:48:40 +0000";
layers = (
{
anchors = (
{
name = bottom;
position = "{648, 0}";
},
{
name = btm;
position = "{772, -166}";
},
{
name = top;
position = "{784, 1660}";
}
);
layerId = "8BC678DE-46B6-4C98-A96E-C0ED61786D32";
paths = (
{
closed = 1;
nodes = (
"104 286 OFFCURVE",
"368 -16 OFFCURVE",
"776 -16 CURVE SMOOTH",
"988 -16 OFFCURVE",
"1082 34 OFFCURVE",
"1170 62 CURVE",
"1168 204 LINE",
"1116 168 OFFCURVE",
"968 116 OFFCURVE",
"784 116 CURVE SMOOTH",
"458 116 OFFCURVE",
"268 386 OFFCURVE",
"268 748 CURVE SMOOTH",
"268 1144 OFFCURVE",
"484 1368 OFFCURVE",
"792 1368 CURVE SMOOTH",
"1016 1368 OFFCURVE",
"1104 1314 OFFCURVE",
"1148 1298 CURVE",
"1172 1446 LINE",
"1112 1458 OFFCURVE",
"1010 1502 OFFCURVE",
"784 1502 CURVE SMOOTH",
"412 1502 OFFCURVE",
"104 1228 OFFCURVE",
"104 736 CURVE SMOOTH"
);
}
);
width = 1296;
},
{
anchors = (
{
name = bottom;
position = "{638, 0}";
},
{
name = btm;
position = "{772, -166}";
},
{
name = top;
position = "{820, 1660}";
}
);
layerId = "23A20576-2241-481A-AD5B-28E85381F753";
paths = (
{
closed = 1;
nodes = (
"84 280 OFFCURVE",
"356 -16 OFFCURVE",
"848 -16 CURVE SMOOTH",
"1022 -16 OFFCURVE",
"1136 30 OFFCURVE",
"1212 62 CURVE",
"1212 368 LINE",
"1162 326 OFFCURVE",
"1016 272 OFFCURVE",
"890 272 CURVE SMOOTH",
"612 272 OFFCURVE",
"468 468 OFFCURVE",
"468 762 CURVE SMOOTH",
"468 1050 OFFCURVE",
"646 1208 OFFCURVE",
"874 1208 CURVE SMOOTH",
"1052 1208 OFFCURVE",
"1142 1150 OFFCURVE",
"1184 1122 CURVE",
"1232 1442 LINE",
"1142 1460 OFFCURVE",
"1050 1502 OFFCURVE",
"844 1502 CURVE SMOOTH",
"418 1502 OFFCURVE",
"84 1244 OFFCURVE",
"84 740 CURVE SMOOTH"
);
}
);
width = 1288;
},
{
anchors = (
{
name = bottom;
position = "{641, 0}";
},
{
name = btm;
position = "{771, -166}";
},
{
name = top;
position = "{782, 1660}";
}
);
layerId = "247DB4A4-D150-4133-9396-DC38172DD635";
paths = (
{
closed = 1;
nodes = (
"93 287 OFFCURVE",
"369 -16 OFFCURVE",
"796 -16 CURVE SMOOTH",
"979 -16 OFFCURVE",
"1084 28 OFFCURVE",
"1170 62 CURVE",
"1170 260 LINE",
"1118 216 OFFCURVE",
"956 168 OFFCURVE",
"808 168 CURVE SMOOTH",
"509 168 OFFCURVE",
"328 411 OFFCURVE",
"328 751 CURVE SMOOTH",
"328 1097 OFFCURVE",
"514 1314 OFFCURVE",
"803 1314 CURVE SMOOTH",
"1023 1314 OFFCURVE",
"1114 1256 OFFCURVE",
"1147 1237 CURVE",
"1181 1446 LINE",
"1121 1459 OFFCURVE",
"1012 1502 OFFCURVE",
"788 1502 CURVE SMOOTH",
"417 1502 OFFCURVE",
"93 1229 OFFCURVE",
"93 737 CURVE SMOOTH"
);
}
);
width = 1280;
}
);
leftKerningGroup = O;
rightKerningGroup = C;
unicode = 0043;
},
{
color = 4;
glyphname = D;
lastChange = "2019-04-06 02:48:40 +0000";
layers = (
{
anchors = (
{
name = bottom;
position = "{708, 0}";
},
{
name = btm;
position = "{612, -166}";
},
{
name = center;
position = "{708, 744}";
},
{
name = top;
position = "{682, 1660}";
}
);
layerId = "8BC678DE-46B6-4C98-A96E-C0ED61786D32";
paths = (
{
closed = 1;
nodes = (
"194 0 OFFCURVE",
"276 0 OFFCURVE",
"296 -2 CURVE SMOOTH",
"396 -2 OFFCURVE",
"528 -14 OFFCURVE",
"612 -16 CURVE SMOOTH",
"1074 -22 OFFCURVE",
"1338 298 OFFCURVE",
"1338 786 CURVE SMOOTH",
"1338 1236 OFFCURVE",
"1106 1500 OFFCURVE",
"634 1500 CURVE SMOOTH",
"518 1500 OFFCURVE",
"398 1488 OFFCURVE",
"304 1488 CURVE SMOOTH",
"292 1486 OFFCURVE",
"198 1486 OFFCURVE",
"188 1486 CURVE",
"188 0 LINE"
);
},
{
closed = 1;
nodes = (
"352 1366 LINE",
"420 1374 OFFCURVE",
"502 1380 OFFCURVE",
"596 1380 CURVE SMOOTH",
"974 1380 OFFCURVE",
"1168 1198 OFFCURVE",
"1166 762 CURVE SMOOTH",
"1164 312 OFFCURVE",
"948 112 OFFCURVE",
"636 108 CURVE SMOOTH",
"550 106 OFFCURVE",
"428 114 OFFCURVE",
"352 126 CURVE"
);
}
);
width = 1430;
},
{
anchors = (
{
name = bottom;
position = "{754, 0}";
},
{
name = btm;
position = "{704, -166}";
},
{
name = center;
position = "{754, 744}";
},
{
name = top;
position = "{750, 1660}";
}
);
layerId = "23A20576-2241-481A-AD5B-28E85381F753";
paths = (
{
closed = 1;
nodes = (
"204 0 OFFCURVE",
"248 0 OFFCURVE",
"292 0 CURVE SMOOTH",
"406 0 OFFCURVE",
"536 -14 OFFCURVE",
"682 -16 CURVE SMOOTH",
"1158 -18 OFFCURVE",
"1434 274 OFFCURVE",
"1434 780 CURVE SMOOTH",
"1434 1238 OFFCURVE",
"1208 1502 OFFCURVE",
"704 1502 CURVE SMOOTH",
"566 1502 OFFCURVE",
"372 1486 OFFCURVE",
"298 1486 CURVE SMOOTH",
"252 1486 OFFCURVE",
"206 1486 OFFCURVE",
"160 1486 CURVE",
"160 0 LINE"
);
},
{
closed = 1;
nodes = (
"534 1220 LINE",
"570 1226 OFFCURVE",
"640 1234 OFFCURVE",
"690 1234 CURVE SMOOTH",
"932 1234 OFFCURVE",
"1048 1106 OFFCURVE",
"1048 748 CURVE SMOOTH",
"1048 410 OFFCURVE",
"912 260 OFFCURVE",
"704 258 CURVE SMOOTH",
"638 258 OFFCURVE",
"572 262 OFFCURVE",
"534 274 CURVE"
);
}
);
width = 1516;
},
{
anchors = (
{
name = bottom;
position = "{716, 0}";
},
{
name = btm;
position = "{636, -166}";
},
{
name = center;
position = "{716, 744}";
},
{
name = top;
position = "{706, 1660}";
}
);
layerId = "247DB4A4-D150-4133-9396-DC38172DD635";
paths = (
{
closed = 1;
nodes = (
"208 0 OFFCURVE",
"240 0 OFFCURVE",
"272 0 CURVE SMOOTH",
"374 0 OFFCURVE",
"516 -14 OFFCURVE",
"622 -16 CURVE SMOOTH",
"1072 -24 OFFCURVE",
"1356 278 OFFCURVE",
"1356 786 CURVE SMOOTH",
"1356 1238 OFFCURVE",
"1128 1502 OFFCURVE",
"646 1502 CURVE SMOOTH",
"514 1502 OFFCURVE",
"386 1486 OFFCURVE",
"292 1486 CURVE SMOOTH",
"254 1486 OFFCURVE",
"216 1486 OFFCURVE",
"176 1486 CURVE",
"176 0 LINE"
);
},
{
closed = 1;
nodes = (
"412 1316 LINE",
"454 1324 OFFCURVE",
"522 1330 OFFCURVE",
"600 1330 CURVE SMOOTH",
"938 1330 OFFCURVE",
"1110 1182 OFFCURVE",
"1110 752 CURVE SMOOTH",
"1110 336 OFFCURVE",
"922 164 OFFCURVE",
"656 160 CURVE SMOOTH",
"574 158 OFFCURVE",
"476 164 OFFCURVE",
"412 178 CURVE"
);
}
);
width = 1440;
}
);
leftKerningGroup = H;
leftMetricsKey = H;
rightKerningGroup = D;
unicode = 0044;
},
{
color = 4;
glyphname = Eth;
lastChange = "2019-04-06 02:48:40 +0000";
layers = (
{
components = (
{
name = D;
}
);
layerId = "8BC678DE-46B6-4C98-A96E-C0ED61786D32";
paths = (
{
closed = 1;
nodes = (
"790 720 LINE",
"790 832 LINE",
"60 832 LINE",
"60 720 LINE"
);
}
);
width = 1444;
},
{
components = (
{
name = D;
}
);
layerId = "23A20576-2241-481A-AD5B-28E85381F753";
paths = (
{
closed = 1;
nodes = (
"830 660 LINE",
"830 892 LINE",
"58 892 LINE",
"58 660 LINE"
);
}
);
width = 1524;
},
{
components = (
{
alignment = -1;
name = D;
}
);
layerId = "247DB4A4-D150-4133-9396-DC38172DD635";
paths = (
{
closed = 1;
nodes = (
"798 699 LINE",
"798 853 LINE",
"65 853 LINE",
"65 699 LINE"
);
}
);
width = 1452;
}
);
leftKerningGroup = H;
rightKerningGroup = D;
unicode = 00D0;
},
{
color = 4;
glyphname = Dcroat;
lastChange = "2019-04-06 02:48:40 +0000";
layers = (
{
components = (
{
name = D;
}
);
layerId = "8BC678DE-46B6-4C98-A96E-C0ED61786D32";
paths = (
{
closed = 1;
nodes = (
"790 720 LINE",
"790 832 LINE",
"60 832 LINE",
"60 720 LINE"
);
}
);
width = 1444;
},
{
components = (
{
name = D;
}
);
layerId = "23A20576-2241-481A-AD5B-28E85381F753";
paths = (
{
closed = 1;
nodes = (
"830 660 LINE",
"830 892 LINE",
"58 892 LINE",
"58 660 LINE"
);
}
);
width = 1524;
},
{
components = (
{
alignment = -1;
name = D;
}
);
layerId = "247DB4A4-D150-4133-9396-DC38172DD635";
paths = (
{
closed = 1;
nodes = (
"798 699 LINE",
"798 853 LINE",
"65 853 LINE",
"65 699 LINE"
);
}
);
width = 1452;
}
);
leftKerningGroup = H;
rightKerningGroup = D;
unicode = 0110;
},
{
glyphname = E;
lastChange = "2019-04-06 02:48:40 +0000";
layers = (
{
anchors = (
{
name = bottom;
position = "{574, 0}";
},
{
name = btm;
position = "{640, -166}";
},
{
name = ogonek;
position = "{1074, 20}";
},
{
name = top;
position = "{604, 1660}";
},
{
name = topleft;
position = "{26, 1486}";
}
);
layerId = "8BC678DE-46B6-4C98-A96E-C0ED61786D32";
paths = (
{
closed = 1;
nodes = (
"1096 0 LINE",
"1096 130 LINE",
"352 130 LINE",
"352 704 LINE",
"844 704 LINE",
"844 832 LINE",
"352 832 LINE",
"352 1358 LINE",
"1026 1358 LINE",
"1026 1486 LINE",
"188 1486 LINE",
"188 0 LINE"
);
}
);
width = 1160;
},
{
anchors = (
{
name = bottom;
position = "{612, 0}";
},
{
name = btm;
position = "{658, -166}";
},
{
name = ogonek;
position = "{1080, 20}";
},
{
name = top;
position = "{636, 1660}";
},
{
name = topleft;
position = "{32, 1486}";
}
);
layerId = "23A20576-2241-481A-AD5B-28E85381F753";
paths = (
{
closed = 1;
nodes = (
"1158 0 LINE",
"1158 284 LINE",
"530 284 LINE",
"530 624 LINE",
"970 624 LINE",
"970 894 LINE",
"530 894 LINE",
"530 1208 LINE",
"1100 1208 LINE",
"1100 1486 LINE",
"160 1486 LINE",
"160 0 LINE"
);
}
);
width = 1232;
},
{
anchors = (
{
name = bottom;
position = "{586, 0}";
},
{
name = btm;
position = "{644, -166}";
},
{
name = ogonek;
position = "{1076, 20}";
},
{
name = top;
position = "{630, 1660}";
},
{
name = topleft;
position = "{28, 1486}";
}
);
layerId = "247DB4A4-D150-4133-9396-DC38172DD635";
paths = (
{
closed = 1;
nodes = (
"1110 0 LINE",
"1110 184 LINE",
"412 184 LINE",
"412 676 LINE",
"878 676 LINE",
"878 854 LINE",
"412 854 LINE",
"412 1306 LINE",
"1040 1306 LINE",
"1040 1486 LINE",
"176 1486 LINE",
"176 0 LINE"
);
}
);
width = 1182;
}
);
leftKerningGroup = H;
leftMetricsKey = H;
rightKerningGroup = E;
unicode = 0045;
},
{
color = 4;
glyphname = Ezh;
lastChange = "2019-04-06 02:48:40 +0000";
layers = (
{
anchors = (
{
name = bottom;
position = "{612, 0}";
},
{
name = top;
position = "{610, 1660}";
}
);
background = {
components = (
{
name = three;
transform = "{1, 0, 0, 1, 10, 0}";
},
{
name = E;
}
);
};
layerId = "23A20576-2241-481A-AD5B-28E85381F753";
paths = (
{
closed = 1;
nodes = (
"866 -22 OFFCURVE",
"1138 188 OFFCURVE",
"1136 432 CURVE SMOOTH",
"1138 668 OFFCURVE",
"956 836 OFFCURVE",
"666 836 CURVE",
"1060 1208 LINE",
"1056 1486 LINE",
"112 1486 LINE",
"110 1208 LINE",
"692 1208 LINE",
"610 1146 LINE",
"322 866 LINE",
"324 582 LINE",
"374 640 OFFCURVE",
"456 672 OFFCURVE",
"532 670 CURVE SMOOTH",
"634 668 OFFCURVE",
"728 606 OFFCURVE",
"728 468 CURVE SMOOTH",
"728 322 OFFCURVE",
"610 236 OFFCURVE",
"344 236 CURVE SMOOTH",
"300 236 OFFCURVE",
"186 246 OFFCURVE",
"110 270 CURVE",
"112 28 LINE",
"186 8 OFFCURVE",
"298 -22 OFFCURVE",
"440 -22 CURVE SMOOTH"
);
}
);
width = 1208;
},
{
anchors = (
{
name = bottom;
position = "{536, 0}";
},
{
name = top;
position = "{550, 1660}";
}
);
background = {
components = (
{
name = E;
transform = "{1, 0, 0, 1, -10, 0}";
},
{
name = three;
transform = "{1, 0, 0, 1, -10, 0}";
}
);
};
layerId = "8BC678DE-46B6-4C98-A96E-C0ED61786D32";
paths = (
{
closed = 1;
nodes = (
"768 -14 OFFCURVE",
"1006 198 OFFCURVE",
"1006 456 CURVE SMOOTH",
"1006 682 OFFCURVE",
"824 864 OFFCURVE",
"514 848 CURVE",
"932 1336 LINE",
"936 1486 LINE",
"124 1486 LINE",
"124 1354 LINE",
"778 1354 LINE",
"680 1258 LINE",
"332 846 LINE",
"332 674 LINE",
"360 708 OFFCURVE",
"430 728 OFFCURVE",
"510 730 CURVE SMOOTH",
"656 732 OFFCURVE",
"832 662 OFFCURVE",
"832 464 CURVE SMOOTH",
"832 280 OFFCURVE",
"670 124 OFFCURVE",
"292 112 CURVE SMOOTH",
"236 110 OFFCURVE",
"176 114 OFFCURVE",
"114 124 CURVE",
"116 6 LINE",
"186 -8 OFFCURVE",
"252 -14 OFFCURVE",
"320 -14 CURVE SMOOTH"
);
}
);
width = 1090;
},
{
anchors = (
{
name = bottom;
position = "{556, 0}";
},
{
name = top;
position = "{565, 1660}";
}
);
background = {
components = (
{
name = three;
},
{
name = E;
}
);
};
layerId = "247DB4A4-D150-4133-9396-DC38172DD635";
paths = (
{
closed = 1;
nodes = (
"872 -20 OFFCURVE",
"1070 208 OFFCURVE",
"1070 470 CURVE SMOOTH",
"1070 654 OFFCURVE",
"898 882 OFFCURVE",
"584 862 CURVE",
"994 1316 LINE",
"998 1486 LINE",
"134 1486 LINE",
"134 1306 LINE",
"744 1306 LINE",
"608 1186 LINE",
"318 856 LINE",
"322 660 LINE",
"374 692 OFFCURVE",
"448 710 OFFCURVE",
"522 710 CURVE SMOOTH",
"668 710 OFFCURVE",
"816 642 OFFCURVE",
"816 470 CURVE SMOOTH",
"816 268 OFFCURVE",
"634 148 OFFCURVE",
"288 148 CURVE SMOOTH",
"250 148 OFFCURVE",
"176 158 OFFCURVE",
"116 170 CURVE",
"116 -2 LINE",
"176 -6 OFFCURVE",
"260 -20 OFFCURVE",
"348 -20 CURVE SMOOTH"
);
}
);
width = 1134;
}
);
leftKerningGroup = Ezh;
rightKerningGroup = Ezh;
unicode = 01B7;
},
{
color = 4;
glyphname = F;
lastChange = "2019-04-06 02:48:40 +0000";
layers = (
{
anchors = (
{
name = bottom;
position = "{516, 0}";
},
{
name = btm;
position = "{666, -166}";
},
{
name = top;
position = "{636, 1660}";
}
);
layerId = "8BC678DE-46B6-4C98-A96E-C0ED61786D32";
paths = (
{
closed = 1;
nodes = (
"352 0 LINE",
"352 682 LINE",
"850 682 LINE",
"850 810 LINE",
"352 810 LINE",
"352 1358 LINE",
"1018 1358 LINE",
"1018 1486 LINE",
"188 1486 LINE",
"188 0 LINE"
);
}
);
width = 1046;
},
{
anchors = (
{
name = bottom;
position = "{560, 0}";
},
{
name = btm;
position = "{640, -166}";
},
{
name = top;
position = "{648, 1662}";
}
);
layerId = "23A20576-2241-481A-AD5B-28E85381F753";
paths = (
{
closed = 1;
nodes = (
"532 0 LINE",
"532 578 LINE",
"954 578 LINE",
"954 854 LINE",
"532 854 LINE",
"532 1208 LINE",
"1088 1208 LINE",
"1088 1486 LINE",
"160 1486 LINE",
"160 0 LINE"
);
}
);
width = 1128;
},
{
anchors = (
{
name = bottom;
position = "{524, 0}";
},
{
name = btm;
position = "{656, -166}";
},
{
name = top;
position = "{648, 1660}";
}
);
layerId = "247DB4A4-D150-4133-9396-DC38172DD635";
paths = (
{
closed = 1;
nodes = (
"412 0 LINE",
"412 656 LINE",
"880 656 LINE",
"880 836 LINE",
"412 836 LINE",
"412 1306 LINE",
"1038 1306 LINE",
"1038 1486 LINE",
"176 1486 LINE",
"176 0 LINE"
);
}
);
width = 1056;
}
);
leftKerningGroup = H;
leftMetricsKey = H;
rightKerningGroup = F;
unicode = 0046;
},
{
color = 4;
glyphname = G;
lastChange = "2019-04-06 02:48:40 +0000";
layers = (
{
anchors = (
{
name = bottom;
position = "{704, 0}";
},
{
name = btm;
position = "{790, -166}";
},
{
name = top;
position = "{798, 1660}";
}
);
layerId = "8BC678DE-46B6-4C98-A96E-C0ED61786D32";
paths = (
{
closed = 1;
nodes = (
"108 304 OFFCURVE",
"358 -16 OFFCURVE",
"784 -16 CURVE SMOOTH",
"1084 -16 OFFCURVE",
"1208 84 OFFCURVE",
"1290 88 CURVE",
"1290 732 LINE",
"822 732 LINE",
"822 614 LINE",
"1176 602 LINE",
"1130 634 LINE",
"1130 176 LINE",
"1074 148 OFFCURVE",
"940 112 OFFCURVE",
"782 112 CURVE SMOOTH",
"458 112 OFFCURVE",
"280 380 OFFCURVE",
"280 752 CURVE SMOOTH",
"280 1158 OFFCURVE",
"508 1372 OFFCURVE",
"786 1372 CURVE SMOOTH",
"994 1372 OFFCURVE",
"1116 1332 OFFCURVE",
"1200 1294 CURVE",
"1206 1442 LINE",
"1090 1464 OFFCURVE",
"1008 1502 OFFCURVE",
"796 1502 CURVE SMOOTH",
"412 1502 OFFCURVE",
"108 1240 OFFCURVE",
"108 732 CURVE SMOOTH"
);
}
);
width = 1408;
},
{
anchors = (
{
name = bottom;
position = "{736, 0}";
},
{
name = btm;
position = "{788, -166}";
},
{
name = top;
position = "{822, 1662}";
}
);
layerId = "23A20576-2241-481A-AD5B-28E85381F753";
paths = (
{
closed = 1;
nodes = (
"84 262 OFFCURVE",
"368 -16 OFFCURVE",
"810 -16 CURVE SMOOTH",
"1148 -16 OFFCURVE",
"1244 80 OFFCURVE",
"1360 84 CURVE",
"1360 834 LINE",
"808 834 LINE",
"808 568 LINE",
"1056 550 LINE",
"1020 594 LINE",
"1020 292 LINE",
"972 274 OFFCURVE",
"908 262 OFFCURVE",
"804 262 CURVE SMOOTH",
"582 262 OFFCURVE",
"462 474 OFFCURVE",
"462 762 CURVE SMOOTH",
"462 1042 OFFCURVE",
"610 1210 OFFCURVE",
"868 1210 CURVE SMOOTH",
"1066 1210 OFFCURVE",
"1192 1172 OFFCURVE",
"1270 1132 CURVE",
"1280 1444 LINE",
"1166 1464 OFFCURVE",
"1070 1502 OFFCURVE",
"852 1502 CURVE SMOOTH",
"422 1502 OFFCURVE",
"84 1286 OFFCURVE",
"84 736 CURVE SMOOTH"
);
}
);
width = 1472;
},
{
anchors = (
{
name = bottom;
position = "{705, 0}";
},
{
name = btm;
position = "{788, -166}";
},
{
name = top;
position = "{794, 1660}";
}
);
layerId = "247DB4A4-D150-4133-9396-DC38172DD635";
paths = (
{
closed = 1;
nodes = (
"96 301 OFFCURVE",
"348 -16 OFFCURVE",
"790 -16 CURVE SMOOTH",
"1093 -16 OFFCURVE",
"1209 86 OFFCURVE",
"1296 91 CURVE",
"1296 754 LINE",
"808 754 LINE",
"808 583 LINE",
"1129 569 LINE",
"1070 610 LINE",
"1070 216 LINE",
"1014 180 OFFCURVE",
"892 163 OFFCURVE",
"784 163 CURVE SMOOTH",
"480 163 OFFCURVE",
"339 426 OFFCURVE",
"339 762 CURVE SMOOTH",
"339 1113 OFFCURVE",
"524 1318 OFFCURVE",
"784 1318 CURVE SMOOTH",
"1002 1318 OFFCURVE",
"1107 1283 OFFCURVE",
"1202 1235 CURVE",
"1212 1444 LINE",
"1082 1468 OFFCURVE",
"1018 1502 OFFCURVE",
"795 1502 CURVE SMOOTH",
"406 1502 OFFCURVE",
"96 1250 OFFCURVE",
"96 736 CURVE SMOOTH"
);
}
);
width = 1410;
}
);
leftKerningGroup = O;
rightKerningGroup = G;
unicode = 0047;
},
{
color = 4;
glyphname = H;
lastChange = "2019-04-06 02:48:40 +0000";
layers = (
{
anchors = (
{
name = bottom;
position = "{740, 0}";
},
{
name = btm;
position = "{736, -166}";
},
{
name = center;
position = "{740, 744}";
},
{
name = top;
position = "{740, 1660}";
},
{
name = topleft;
position = "{26, 1486}";
}
);
layerId = "8BC678DE-46B6-4C98-A96E-C0ED61786D32";
paths = (
{
closed = 1;
nodes = (
"352 0 LINE",
"352 694 LINE",
"1126 694 LINE",
"1126 0 LINE",
"1290 0 LINE",
"1290 1486 LINE",
"1126 1486 LINE",
"1126 820 LINE",
"352 820 LINE",
"352 1486 LINE",
"188 1486 LINE",
"188 0 LINE"
);
}
);
width = 1478;
},
{
anchors = (
{
name = bottom;
position = "{788, 0}";
},
{
name = btm;
position = "{790, -166}";
},
{
name = center;
position = "{788, 744}";
},
{
name = top;
position = "{788, 1660}";
},
{
name = topleft;
position = "{32, 1486}";
}
);
layerId = "23A20576-2241-481A-AD5B-28E85381F753";
paths = (
{
closed = 1;
nodes = (
"534 0 LINE",
"534 616 LINE",
"1044 616 LINE",
"1044 0 LINE",
"1416 0 LINE",
"1416 1486 LINE",
"1044 1486 LINE",
"1044 884 LINE",
"534 884 LINE",
"534 1486 LINE",
"160 1486 LINE",
"160 0 LINE"
);
}
);
width = 1576;
},
{
anchors = (
{
name = bottom;
position = "{750, 0}";
},
{
name = btm;
position = "{742, -166}";
},
{
name = center;
position = "{750, 744}";
},
{
name = top;
position = "{750, 1660}";
},
{
name = topleft;
position = "{28, 1486}";
}
);
layerId = "247DB4A4-D150-4133-9396-DC38172DD635";
paths = (
{
closed = 1;
nodes = (
"412 0 LINE",
"412 660 LINE",
"1090 660 LINE",
"1090 0 LINE",
"1324 0 LINE",
"1324 1486 LINE",
"1090 1486 LINE",
"1090 840 LINE",
"412 840 LINE",
"412 1486 LINE",
"176 1486 LINE",
"176 0 LINE"
);
}
);
width = 1500;
}
);
leftKerningGroup = H;
rightKerningGroup = H;
unicode = 0048;
},
{
color = 4;
glyphname = Hbar;
lastChange = "2019-04-06 02:48:40 +0000";
layers = (
{
layerId = "8BC678DE-46B6-4C98-A96E-C0ED61786D32";
paths = (
{
closed = 1;
nodes = (
"366 0 LINE",
"366 686 LINE",
"1148 686 LINE",
"1148 0 LINE",
"1312 0 LINE",
"1312 1486 LINE",
"1148 1486 LINE",
"1148 814 LINE",
"366 814 LINE",
"366 1486 LINE",
"202 1486 LINE",
"202 0 LINE"
);
},
{
closed = 1;
nodes = (
"1522 1060 LINE",
"1522 1166 LINE",
"10 1166 LINE",
"10 1060 LINE"
);
}
);
width = 1514;
},
{
layerId = "23A20576-2241-481A-AD5B-28E85381F753";
paths = (
{
closed = 1;
nodes = (
"544 0 LINE",
"544 560 LINE",
"1060 560 LINE",
"1060 0 LINE",
"1436 0 LINE",
"1436 1486 LINE",
"1060 1486 LINE",
"1060 820 LINE",
"544 820 LINE",
"544 1486 LINE",
"168 1486 LINE",
"168 0 LINE"
);
},
{
closed = 1;
nodes = (
"1580 1010 LINE",
"1580 1226 LINE",
"28 1226 LINE",
"28 1010 LINE"
);
}
);
width = 1604;
},
{
layerId = "247DB4A4-D150-4133-9396-DC38172DD635";
paths = (
{
closed = 1;
nodes = (
"424 0 LINE",
"424 649 LINE",
"1114 649 LINE",
"1114 0 LINE",
"1347 0 LINE",
"1347 1486 LINE",
"1114 1486 LINE",
"1114 827 LINE",
"424 827 LINE",
"424 1486 LINE",
"189 1486 LINE",
"189 0 LINE"
);
},
{
closed = 1;
nodes = (
"1529 1036 LINE",
"1529 1183 LINE",
"11 1183 LINE",
"11 1036 LINE"
);
}
);
width = 1536;
}
);
leftKerningGroup = H;
rightKerningGroup = H;
unicode = 0126;
},
{
color = 4;
glyphname = I;
lastChange = "2019-04-06 02:48:40 +0000";
layers = (
{
anchors = (
{
name = bottom;
position = "{300, 0}";
},
{
name = btm;
position = "{304, -166}";
},
{
name = ogonek;
position = "{500, 20}";
},
{
name = top;
position = "{300, 1660}";
},
{
name = topleft;
position = "{40, 1486}";
}
);
layerId = "8BC678DE-46B6-4C98-A96E-C0ED61786D32";
paths = (
{
closed = 1;
nodes = (
"382 0 LINE",
"382 1486 LINE",
"216 1486 LINE",
"216 0 LINE"
);
}
);
width = 598;
},
{
anchors = (
{
name = bottom;
position = "{368, 0}";
},
{
name = btm;
position = "{368, -166}";
},
{
name = ogonek;
position = "{516, 20}";
},
{
name = top;
position = "{370, 1660}";
},
{
name = topleft;
position = "{40, 1486}";
}
);
layerId = "23A20576-2241-481A-AD5B-28E85381F753";
paths = (
{
closed = 1;
nodes = (
"556 0 LINE",
"556 1486 LINE",
"180 1486 LINE",
"180 0 LINE"
);
}
);
width = 736;
},
{
anchors = (
{
name = bottom;
position = "{321, 0}";
},
{
name = btm;
position = "{326, -166}";
},
{
name = ogonek;
position = "{519, 20}";
},
{
name = top;
position = "{321, 1660}";
},
{
name = topleft;
position = "{40, 1486}";
}
);
layerId = "247DB4A4-D150-4133-9396-DC38172DD635";
paths = (
{
closed = 1;
nodes = (
"437 0 LINE",
"437 1486 LINE",
"201 1486 LINE",
"201 0 LINE"
);
}
);
width = 640;
}
);
leftKerningGroup = I;
rightKerningGroup = I;
unicode = 0049;
},
{
color = 4;
glyphname = J;
lastChange = "2019-04-06 02:48:40 +0000";
layers = (
{
anchors = (
{
name = bottom;
position = "{340, 0}";
},
{
name = btm;
position = "{274, -166}";
},
{
name = top;
position = "{368, 1660}";
}
);
layerId = "8BC678DE-46B6-4C98-A96E-C0ED61786D32";
paths = (
{
closed = 1;
nodes = (
"184 -300 OFFCURVE",
"392 -174 OFFCURVE",
"436 64 CURVE SMOOTH",
"458 194 OFFCURVE",
"454 352 OFFCURVE",
"454 524 CURVE SMOOTH",
"454 1486 LINE",
"286 1486 LINE",
"286 542 LINE SMOOTH",
"286 336 OFFCURVE",
"288 146 OFFCURVE",
"252 30 CURVE SMOOTH",
"210 -116 OFFCURVE",
"84 -204 OFFCURVE",
"-38 -238 CURVE",
"14 -324 LINE"
);
}
);
width = 678;
},
{
anchors = (
{
name = bottom;
position = "{392, 0}";
},
{
name = btm;
position = "{230, -166}";
},
{
name = top;
position = "{412, 1662}";
}
);
layerId = "23A20576-2241-481A-AD5B-28E85381F753";
paths = (
{
closed = 1;
nodes = (
"214 -332 OFFCURVE",
"532 -196 OFFCURVE",
"588 92 CURVE SMOOTH",
"616 232 OFFCURVE",
"606 404 OFFCURVE",
"606 598 CURVE SMOOTH",
"606 1486 LINE",
"232 1486 LINE",
"232 594 LINE SMOOTH",
"232 340 OFFCURVE",
"230 212 OFFCURVE",
"200 108 CURVE SMOOTH",
"160 -38 OFFCURVE",
"62 -100 OFFCURVE",
"-34 -138 CURVE",
"46 -324 LINE"
);
}
);
width = 782;
},
{
anchors = (
{
name = bottom;
position = "{355, 0}";
},
{
name = btm;
position = "{263, -166}";
},
{
name = top;
position = "{378, 1660}";
}
);
layerId = "247DB4A4-D150-4133-9396-DC38172DD635";
paths = (
{
closed = 1;
nodes = (
"197 -302 OFFCURVE",
"435 -173 OFFCURVE",
"482 85 CURVE SMOOTH",
"508 227 OFFCURVE",
"500 404 OFFCURVE",
"500 598 CURVE SMOOTH",
"500 1486 LINE",
"264 1486 LINE",
"264 594 LINE SMOOTH",
"264 387 OFFCURVE",
"263 190 OFFCURVE",
"232 73 CURVE SMOOTH",
"191 -80 OFFCURVE",
"67 -163 OFFCURVE",
"-36 -201 CURVE",
"33 -324 LINE"
);
}
);
width = 711;
}
);
leftKerningGroup = J;
rightKerningGroup = J;
unicode = 004A;
},
{
color = 4;
glyphname = K;
lastChange = "2019-04-06 02:48:40 +0000";
layers = (
{
anchors = (
{
name = bottom;
position = "{652, 0}";
},
{
name = btm;
position = "{658, -166}";
},
{
name = top;
position = "{644, 1660}";
}
);
background = {
components = (
{
name = H;
transform = "{1, 0, 0, 1, -4, 0}";
}
);
};
layerId = "8BC678DE-46B6-4C98-A96E-C0ED61786D32";
paths = (
{
closed = 1;
nodes = (
"348 0 LINE",
"348 572 LINE",
"308 430 LINE",
"600 762 LINE",
"618 784 LINE",
"1208 1486 LINE",
"1012 1486 LINE",
"348 678 LINE",
"348 1486 LINE",
"188 1486 LINE",
"188 0 LINE"
);
},
{
closed = 1;
nodes = (
"1020 50 OFFCURVE",
"1030 24 OFFCURVE",
"1046 0 CURVE",
"1234 0 LINE",
"1228 10 OFFCURVE",
"1174 98 OFFCURVE",
"1168 108 CURVE",
"1042 330 OFFCURVE",
"736 760 OFFCURVE",
"660 886 CURVE",
"602 818 LINE",
"544 788 LINE",
"648 620 OFFCURVE",
"874 306 OFFCURVE",
"986 110 CURVE SMOOTH"
);
}
);
width = 1294;
},
{
anchors = (
{
name = bottom;
position = "{710, 0}";
},
{
name = btm;
position = "{742, -166}";
},
{
name = top;
position = "{742, 1662}";
}
);
layerId = "23A20576-2241-481A-AD5B-28E85381F753";
paths = (
{
closed = 1;
nodes = (
"524 0 LINE",
"524 594 LINE",
"484 374 LINE",
"762 704 LINE",
"848 770 LINE",
"1398 1486 LINE",
"994 1486 LINE",
"524 854 LINE",
"524 1486 LINE",
"160 1486 LINE",
"160 0 LINE"
);
},
{
closed = 1;
nodes = (
"976 56 OFFCURVE",
"990 26 OFFCURVE",
"1006 0 CURVE",
"1424 0 LINE",
"1402 36 OFFCURVE",
"1382 72 OFFCURVE",
"1360 108 CURVE",
"1208 368 OFFCURVE",
"976 770 OFFCURVE",
"880 888 CURVE",
"774 768 LINE",
"640 622 LINE",
"744 470 OFFCURVE",
"844 306 OFFCURVE",
"944 118 CURVE SMOOTH"
);
}
);
width = 1426;
},
{
anchors = (
{
name = bottom;
position = "{664, 0}";
},
{
name = btm;
position = "{674, -166}";
},
{
name = top;
position = "{674, 1660}";
}
);
layerId = "247DB4A4-D150-4133-9396-DC38172DD635";
paths = (
{
closed = 1;
nodes = (
"408 0 LINE",
"408 602 LINE",
"356 408 LINE",
"626 716 LINE",
"656 748 LINE",
"1258 1486 LINE",
"988 1486 LINE",
"408 752 LINE",
"408 1486 LINE",
"176 1486 LINE",
"176 0 LINE"
);
},
{
closed = 1;
nodes = (
"986 50 OFFCURVE",
"992 26 OFFCURVE",
"1010 0 CURVE",
"1278 0 LINE",
"1256 36 OFFCURVE",
"1236 72 OFFCURVE",
"1214 108 CURVE",
"1084 338 OFFCURVE",
"780 772 OFFCURVE",
"716 886 CURVE",
"632 792 LINE",
"552 738 LINE",
"654 570 OFFCURVE",
"842 308 OFFCURVE",
"950 110 CURVE SMOOTH"
);
}
);
width = 1338;
}
);
leftKerningGroup = H;
leftMetricsKey = H;
rightKerningGroup = K;
unicode = 004B;
},
{
color = 4;
glyphname = L;
lastChange = "2019-04-06 02:48:40 +0000";
layers = (
{
anchors = (
{
name = bottom;
position = "{508, 0}";
},
{
name = btm;
position = "{558, -166}";
},
{
name = center;
position = "{508, 744}";
},
{
name = top;
position = "{270, 1660}";
},
{
name = topright;
position = "{988, 1486}";
}
);
layerId = "8BC678DE-46B6-4C98-A96E-C0ED61786D32";
paths = (
{
closed = 1;
nodes = (
"970 0 LINE",
"974 134 LINE",
"350 134 LINE",
"346 1486 LINE",
"188 1486 LINE",
"188 0 LINE"
);
}
);
width = 1028;
},
{
anchors = (
{
name = bottom;
position = "{540, 0}";
},
{
name = btm;
position = "{582, -166}";
},
{
name = center;
position = "{540, 744}";
},
{
name = top;
position = "{348, 1660}";
},
{
name = topright;
position = "{1048, 1486}";
}
);
layerId = "23A20576-2241-481A-AD5B-28E85381F753";
paths = (
{
closed = 1;
nodes = (
"1030 0 LINE",
"1030 300 LINE",
"528 300 LINE",
"528 1486 LINE",
"160 1486 LINE",
"160 0 LINE"
);
}
);
width = 1088;
},
{
anchors = (
{
name = bottom;
position = "{520, 0}";
},
{
name = btm;
position = "{578, -166}";
},
{
name = center;
position = "{520, 744}";
},
{
name = top;
position = "{294, 1660}";
},
{
name = topright;
position = "{1010, 1486}";
}
);
layerId = "247DB4A4-D150-4133-9396-DC38172DD635";
paths = (
{
closed = 1;
nodes = (
"994 0 LINE",
"994 186 LINE",
"410 186 LINE",
"410 1486 LINE",
"176 1486 LINE",
"176 0 LINE"
);
}
);
width = 1050;
}
);
leftKerningGroup = H;
leftMetricsKey = H;
rightKerningGroup = L;
unicode = 004C;
},
{
color = 4;
glyphname = Lslash;
lastChange = "2019-04-06 02:48:40 +0000";
layers = (
{
components = (
{
name = L;
}
);
layerId = "8BC678DE-46B6-4C98-A96E-C0ED61786D32";
paths = (
{
closed = 1;
nodes = (
"52 554 LINE",
"828 838 LINE",
"788 942 LINE",
"12 656 LINE"
);
}
);
width = 1028;
},
{
components = (
{
name = L;
}
);
layerId = "23A20576-2241-481A-AD5B-28E85381F753";
paths = (
{
closed = 1;
nodes = (
"88 554 LINE",
"864 838 LINE",
"792 1030 LINE",
"18 744 LINE"
);
}
);
width = 1088;
},
{
components = (
{
alignment = -1;
name = L;
}
);
layerId = "247DB4A4-D150-4133-9396-DC38172DD635";
paths = (
{
closed = 1;
nodes = (
"73 554 LINE",
"848 838 LINE",
"793 980 LINE",
"19 694 LINE"
);
}
);
width = 1050;
}
);
leftKerningGroup = H;
rightKerningGroup = L;
rightMetricsKey = L;
unicode = 0141;
},
{
color = 4;
glyphname = M;
lastChange = "2019-04-06 02:48:40 +0000";
layers = (
{
anchors = (
{
name = bottom;
position = "{940, 0}";
},
{
name = btm;
position = "{942, -166}";
},
{
name = top;
position = "{940, 1600}";
}
);
layerId = "8BC678DE-46B6-4C98-A96E-C0ED61786D32";
paths = (
{
closed = 1;
nodes = (
"306 0 LINE",
"394 924 LINE",
"432 1364 LINE",
"564 924 LINE",
"896 -14 LINE",
"986 -14 LINE",
"1302 924 LINE",
"1422 1364 LINE",
"1466 924 LINE",
"1570 0 LINE",
"1736 0 LINE",
"1544 1486 LINE",
"1322 1486 LINE",
"1012 520 LINE",
"940 242 LINE",
"868 520 LINE",
"538 1486 LINE",
"304 1486 LINE",
"146 0 LINE"
);
}
);
width = 1880;
},
{
anchors = (
{
name = bottom;
position = "{974, 0}";
},
{
name = btm;
position = "{984, -166}";
},
{
name = top;
position = "{984, 1600}";
}
);
layerId = "23A20576-2241-481A-AD5B-28E85381F753";
paths = (
{
closed = 1;
nodes = (
"412 0 LINE",
"470 782 LINE",
"496 1210 LINE",
"594 770 LINE",
"810 -8 LINE",
"1140 -8 LINE",
"1340 770 LINE",
"1432 1210 LINE",
"1454 782 LINE",
"1516 0 LINE",
"1874 0 LINE",
"1690 1486 LINE",
"1204 1486 LINE",
"1044 724 LINE",
"990 376 LINE",
"922 724 LINE",
"742 1486 LINE",
"240 1486 LINE",
"68 0 LINE"
);
}
);
width = 1942;
},
{
anchors = (
{
name = bottom;
position = "{937, 0}";
},
{
name = btm;
position = "{941, -166}";
},
{
name = top;
position = "{940, 1600}";
}
);
layerId = "247DB4A4-D150-4133-9396-DC38172DD635";
paths = (
{
closed = 1;
nodes = (
"344 0 LINE",
"422 901 LINE",
"451 1311 LINE",
"559 901 LINE",
"867 -14 LINE",
"1008 -14 LINE",
"1301 901 LINE",
"1403 1311 LINE",
"1431 901 LINE",
"1519 0 LINE",
"1753 0 LINE",
"1575 1486 LINE",
"1259 1486 LINE",
"1010 650 LINE",
"941 332 LINE",
"864 650 LINE",
"602 1486 LINE",
"272 1486 LINE",
"119 0 LINE"
);
}
);
width = 1872;
}
);
leftKerningGroup = M;
rightKerningGroup = M;
unicode = 004D;
},
{
color = 4;
glyphname = N;
lastChange = "2019-04-06 02:48:40 +0000";
layers = (
{
anchors = (
{
name = bottom;
position = "{746, 0}";
},
{
name = btm;
position = "{720, -166}";
},
{
name = top;
position = "{756, 1660}";
}
);
layerId = "8BC678DE-46B6-4C98-A96E-C0ED61786D32";
paths = (
{
closed = 1;
nodes = (
"340 0 LINE",
"340 948 LINE",
"326 1388 LINE",
"260 1388 LINE",
"482 1010 LINE",
"1154 0 LINE",
"1304 0 LINE",
"1304 1486 LINE",
"1154 1486 LINE",
"1154 514 LINE",
"1168 102 LINE",
"1226 102 LINE",
"1026 452 LINE",
"342 1486 LINE",
"188 1486 LINE",
"188 0 LINE"
);
}
);
width = 1492;
},
{
anchors = (
{
name = bottom;
position = "{788, 0}";
},
{
name = btm;
position = "{754, -166}";
},
{
name = top;
position = "{794, 1660}";
}
);
layerId = "23A20576-2241-481A-AD5B-28E85381F753";
paths = (
{
closed = 1;
nodes = (
"498 0 LINE",
"498 642 LINE",
"424 1252 LINE",
"342 1252 LINE",
"560 796 LINE",
"1042 0 LINE",
"1416 0 LINE",
"1416 1486 LINE",
"1078 1486 LINE",
"1078 832 LINE",
"1138 270 LINE",
"1206 270 LINE",
"1016 670 LINE",
"508 1486 LINE",
"160 1486 LINE",
"160 0 LINE"
);
}
);
width = 1576;
},
{
anchors = (
{
name = bottom;
position = "{754, 0}";
},
{
name = btm;
position = "{720, -166}";
},
{
name = top;
position = "{766, 1660}";
}
);
layerId = "247DB4A4-D150-4133-9396-DC38172DD635";
paths = (
{
closed = 1;
nodes = (
"390 0 LINE",
"390 894 LINE",
"366 1344 LINE",
"280 1344 LINE",
"510 926 LINE",
"1108 0 LINE",
"1332 0 LINE",
"1332 1486 LINE",
"1114 1486 LINE",
"1114 570 LINE",
"1140 154 LINE",
"1210 154 LINE",
"1012 524 LINE",
"390 1486 LINE",
"176 1486 LINE",
"176 0 LINE"
);
}
);
width = 1508;
}
);
leftKerningGroup = H;
leftMetricsKey = H;
rightKerningGroup = H;
rightMetricsKey = H;
unicode = 004E;
},
{
glyphname = Eng;
lastChange = "2019-04-06 02:48:40 +0000";
layers = (
{
layerId = "8BC678DE-46B6-4C98-A96E-C0ED61786D32";
paths = (
{
closed = 1;
nodes = (
"362 950 LINE",
"350 1382 LINE",
"280 1382 LINE",
"494 1016 LINE",
"1162 34 LINE",
"1158 -96 OFFCURVE",
"954 -260 OFFCURVE",
"760 -316 CURVE",
"802 -394 LINE",
"984 -366 OFFCURVE",
"1222 -232 OFFCURVE",
"1290 -8 CURVE SMOOTH",
"1332 112 OFFCURVE",
"1336 248 OFFCURVE",
"1336 396 CURVE SMOOTH",
"1336 1486 LINE",
"1174 1486 LINE",
"1174 510 LINE",
"1194 102 LINE",
"1250 102 LINE",
"1058 444 LINE",
"354 1486 LINE",
"200 1486 LINE",
"202 0 LINE",
"362 0 LINE"
);
}
);
width = 1542;
},
{
layerId = "23A20576-2241-481A-AD5B-28E85381F753";
paths = (
{
closed = 1;
nodes = (
"516 644 LINE",
"432 1280 LINE",
"348 1280 LINE",
"574 796 LINE",
"1050 10 LINE",
"1050 -138 OFFCURVE",
"878 -270 OFFCURVE",
"712 -318 CURVE",
"784 -458 LINE",
"1084 -458 OFFCURVE",
"1316 -294 OFFCURVE",
"1380 -98 CURVE SMOOTH",
"1422 30 OFFCURVE",
"1422 126 OFFCURVE",
"1422 310 CURVE SMOOTH",
"1422 1486 LINE",
"1076 1486 LINE",
"1076 832 LINE",
"1138 270 LINE",
"1208 270 LINE",
"1016 670 LINE",
"524 1486 LINE",
"168 1486 LINE",
"168 0 LINE",
"516 0 LINE"
);
}
);
width = 1592;
},
{
layerId = "247DB4A4-D150-4133-9396-DC38172DD635";
paths = (
{
closed = 1;
nodes = (
"418 895 LINE",
"394 1336 LINE",
"302 1336 LINE",
"522 934 LINE",
"1118 39 LINE",
"1118 -97 OFFCURVE",
"911 -248 OFFCURVE",
"745 -296 CURVE",
"802 -402 LINE",
"1018 -379 OFFCURVE",
"1285 -222 OFFCURVE",
"1340 36 CURVE SMOOTH",
"1369 170 OFFCURVE",
"1365 321 OFFCURVE",
"1365 504 CURVE SMOOTH",
"1365 1486 LINE",
"1134 1486 LINE",
"1134 567 LINE",
"1162 155 LINE",
"1236 155 LINE",
"1044 517 LINE",
"405 1486 LINE",
"187 1486 LINE",
"189 0 LINE",
"418 0 LINE"
);
}
);
width = 1552;
}
);
leftKerningGroup = H;
rightKerningGroup = H;
unicode = 014A;
},
{
color = 4;
glyphname = O;
lastChange = "2019-04-06 02:48:40 +0000";
layers = (
{
anchors = (
{
name = bottom;
position = "{760, 0}";
},
{
name = btm;
position = "{760, -166}";
},
{
name = center;
position = "{760, 744}";
},
{
name = ogonek;
position = "{970, 20}";
},
{
name = top;
position = "{782, 1660}";
},
{
name = topleft;
position = "{32, 1486}";
},
{
name = topright;
position = "{980, 1442}";
}
);
layerId = "8BC678DE-46B6-4C98-A96E-C0ED61786D32";
paths = (
{
closed = 1;
nodes = (
"1130 -8 OFFCURVE",
"1408 252 OFFCURVE",
"1418 746 CURVE SMOOTH",
"1428 1202 OFFCURVE",
"1176 1504 OFFCURVE",
"784 1502 CURVE SMOOTH",
"408 1500 OFFCURVE",
"110 1246 OFFCURVE",
"100 750 CURVE SMOOTH",
"92 302 OFFCURVE",
"344 -24 OFFCURVE",
"754 -16 CURVE SMOOTH"
);
},
{
closed = 1;
nodes = (
"434 110 OFFCURVE",
"266 400 OFFCURVE",
"268 740 CURVE SMOOTH",
"270 1164 OFFCURVE",
"492 1374 OFFCURVE",
"778 1376 CURVE SMOOTH",
"1090 1378 OFFCURVE",
"1252 1096 OFFCURVE",
"1252 754 CURVE SMOOTH",
"1248 338 OFFCURVE",
"1052 114 OFFCURVE",
"758 112 CURVE SMOOTH"
);
}
);
width = 1518;
},
{
anchors = (
{
name = bottom;
position = "{778, 0}";
},
{
name = btm;
position = "{774, -166}";
},
{
name = center;
position = "{778, 744}";
},
{
name = ogonek;
position = "{992, 20}";
},
{
name = top;
position = "{790, 1660}";
},
{
name = topleft;
position = "{34, 1486}";
},
{
name = topright;
position = "{1022, 1442}";
}
);
layerId = "23A20576-2241-481A-AD5B-28E85381F753";
paths = (
{
closed = 1;
nodes = (
"1178 -8 OFFCURVE",
"1458 218 OFFCURVE",
"1468 746 CURVE SMOOTH",
"1476 1216 OFFCURVE",
"1222 1514 OFFCURVE",
"800 1502 CURVE SMOOTH",
"388 1490 OFFCURVE",
"94 1278 OFFCURVE",
"84 750 CURVE SMOOTH",
"76 278 OFFCURVE",
"332 -24 OFFCURVE",
"772 -16 CURVE SMOOTH"
);
},
{
closed = 1;
nodes = (
"568 252 OFFCURVE",
"464 456 OFFCURVE",
"464 740 CURVE SMOOTH",
"464 1108 OFFCURVE",
"612 1226 OFFCURVE",
"794 1226 CURVE SMOOTH",
"994 1226 OFFCURVE",
"1088 1036 OFFCURVE",
"1088 756 CURVE SMOOTH",
"1088 394 OFFCURVE",
"970 252 OFFCURVE",
"778 252 CURVE SMOOTH"
);
}
);
width = 1552;
},
{
anchors = (
{
name = bottom;
position = "{764, 0}";
},
{
name = btm;
position = "{762, -166}";
},
{
name = center;
position = "{764, 744}";
},
{
name = ogonek;
position = "{954, 20}";
},
{
name = top;
position = "{788, 1660}";
},
{
name = topleft;
position = "{36, 1486}";
},
{
name = topright;
position = "{1024, 1442}";
}
);
layerId = "247DB4A4-D150-4133-9396-DC38172DD635";
paths = (
{
closed = 1;
nodes = (
"1140 -8 OFFCURVE",
"1424 246 OFFCURVE",
"1434 744 CURVE SMOOTH",
"1444 1204 OFFCURVE",
"1184 1504 OFFCURVE",
"788 1502 CURVE SMOOTH",
"406 1500 OFFCURVE",
"104 1252 OFFCURVE",
"94 754 CURVE SMOOTH",
"84 302 OFFCURVE",
"344 -24 OFFCURVE",
"758 -16 CURVE SMOOTH"
);
},
{
closed = 1;
nodes = (
"478 164 OFFCURVE",
"332 434 OFFCURVE",
"332 740 CURVE SMOOTH",
"332 1144 OFFCURVE",
"538 1324 OFFCURVE",
"780 1324 CURVE SMOOTH",
"1056 1324 OFFCURVE",
"1196 1062 OFFCURVE",
"1196 754 CURVE SMOOTH",
"1196 366 OFFCURVE",
"1028 164 OFFCURVE",
"764 164 CURVE SMOOTH"
);
}
);
width = 1528;
}
);
leftKerningGroup = O;
rightKerningGroup = O;
unicode = 004F;
},
{
color = 4;
glyphname = Oslash;
lastChange = "2019-04-06 02:48:40 +0000";
layers = (
{
anchors = (
{
name = bottom;
position = "{768, 0}";
},
{
name = top;
position = "{752, 1660}";
}
);
layerId = "8BC678DE-46B6-4C98-A96E-C0ED61786D32";
paths = (
{
closed = 1;
nodes = (
"1278 1662 LINE",
"1188 1690 LINE",
"262 -164 LINE",
"352 -190 LINE"
);
},
{
closed = 1;
nodes = (
"1138 -8 OFFCURVE",
"1416 252 OFFCURVE",
"1426 746 CURVE SMOOTH",
"1436 1202 OFFCURVE",
"1184 1504 OFFCURVE",
"792 1502 CURVE SMOOTH",
"416 1500 OFFCURVE",
"118 1246 OFFCURVE",
"108 750 CURVE SMOOTH",
"100 302 OFFCURVE",
"352 -24 OFFCURVE",
"762 -16 CURVE SMOOTH"
);
},
{
closed = 1;
nodes = (
"442 110 OFFCURVE",
"274 400 OFFCURVE",
"276 740 CURVE SMOOTH",
"278 1164 OFFCURVE",
"500 1374 OFFCURVE",
"786 1376 CURVE SMOOTH",
"1098 1378 OFFCURVE",
"1260 1096 OFFCURVE",
"1260 754 CURVE SMOOTH",
"1256 338 OFFCURVE",
"1060 114 OFFCURVE",
"766 112 CURVE SMOOTH"
);
}
);
width = 1536;
},
{
anchors = (
{
name = bottom;
position = "{784, 0}";
},
{
name = top;
position = "{764, 1660}";
}
);
layerId = "23A20576-2241-481A-AD5B-28E85381F753";
paths = (
{
closed = 1;
nodes = (
"1344 1742 LINE",
"1216 1768 LINE",
"230 -204 LINE",
"358 -228 LINE"
);
},
{
closed = 1;
nodes = (
"1184 -8 OFFCURVE",
"1464 218 OFFCURVE",
"1474 746 CURVE SMOOTH",
"1482 1216 OFFCURVE",
"1228 1514 OFFCURVE",
"806 1502 CURVE SMOOTH",
"394 1490 OFFCURVE",
"100 1278 OFFCURVE",
"90 750 CURVE SMOOTH",
"82 278 OFFCURVE",
"338 -24 OFFCURVE",
"778 -16 CURVE SMOOTH"
);
},
{
closed = 1;
nodes = (
"576 256 OFFCURVE",
"474 458 OFFCURVE",
"474 740 CURVE SMOOTH",
"474 1104 OFFCURVE",
"620 1222 OFFCURVE",
"800 1222 CURVE SMOOTH",
"998 1222 OFFCURVE",
"1090 1034 OFFCURVE",
"1090 756 CURVE SMOOTH",
"1090 398 OFFCURVE",
"974 256 OFFCURVE",
"784 256 CURVE SMOOTH"
);
}
);
width = 1566;
},
{
anchors = (
{
name = bottom;
position = "{768, 0}";
},
{
name = top;
position = "{752, 1660}";
}
);
layerId = "247DB4A4-D150-4133-9396-DC38172DD635";
paths = (
{
closed = 1;
nodes = (
"1296 1670 LINE",
"1180 1705 LINE",
"242 -164 LINE",
"359 -199 LINE"
);
},
{
closed = 1;
nodes = (
"1145 -8 OFFCURVE",
"1429 245 OFFCURVE",
"1439 744 CURVE SMOOTH",
"1449 1204 OFFCURVE",
"1189 1504 OFFCURVE",
"792 1502 CURVE SMOOTH",
"410 1500 OFFCURVE",
"108 1253 OFFCURVE",
"98 753 CURVE SMOOTH",
"88 302 OFFCURVE",
"347 -24 OFFCURVE",
"762 -16 CURVE SMOOTH"
);
},
{
closed = 1;
nodes = (
"482 163 OFFCURVE",
"335 435 OFFCURVE",
"335 740 CURVE SMOOTH",
"335 1143 OFFCURVE",
"542 1324 OFFCURVE",
"784 1324 CURVE SMOOTH",
"1061 1324 OFFCURVE",
"1201 1062 OFFCURVE",
"1201 754 CURVE SMOOTH",
"1201 366 OFFCURVE",
"1031 163 OFFCURVE",
"768 163 CURVE SMOOTH"
);
}
);
width = 1537;
}
);
leftKerningGroup = O;
rightKerningGroup = O;
unicode = 00D8;
},
{
color = 4;
glyphname = OE;
lastChange = "2019-04-06 02:48:40 +0000";
layers = (
{
anchors = (
{
name = bottom;
position = "{1004, 0}";
},
{
name = btm;
position = "{1038, -166}";
},
{
name = top;
position = "{1060, 1660}";
}
);
layerId = "8BC678DE-46B6-4C98-A96E-C0ED61786D32";
paths = (
{
closed = 1;
nodes = (
"98 302 OFFCURVE",
"358 -24 OFFCURVE",
"768 -16 CURVE SMOOTH",
"922 -12 OFFCURVE",
"1028 34 OFFCURVE",
"1126 116 CURVE",
"1126 276 LINE",
"1064 188 OFFCURVE",
"942 110 OFFCURVE",
"774 110 CURVE SMOOTH",
"444 110 OFFCURVE",
"274 400 OFFCURVE",
"274 738 CURVE SMOOTH",
"274 1182 OFFCURVE",
"532 1376 OFFCURVE",
"792 1376 CURVE SMOOTH",
"960 1376 OFFCURVE",
"1070 1312 OFFCURVE",
"1128 1230 CURVE",
"1114 1408 LINE",
"1024 1480 OFFCURVE",
"900 1504 OFFCURVE",
"796 1502 CURVE SMOOTH",
"404 1490 OFFCURVE",
"116 1238 OFFCURVE",
"108 746 CURVE SMOOTH"
);
},
{
closed = 1;
nodes = (
"1944 0 LINE",
"1944 130 LINE",
"1234 130 LINE",
"1234 704 LINE",
"1708 704 LINE",
"1708 832 LINE",
"1234 832 LINE",
"1234 1358 LINE",
"1872 1358 LINE",
"1872 1486 LINE",
"1068 1486 LINE",
"1068 0 LINE"
);
}
);
width = 2008;
},
{
anchors = (
{
name = bottom;
position = "{1054, 0}";
},
{
name = btm;
position = "{1040, -166}";
},
{
name = top;
position = "{1040, 1660}";
}
);
layerId = "23A20576-2241-481A-AD5B-28E85381F753";
paths = (
{
closed = 1;
nodes = (
"86 298 OFFCURVE",
"330 -18 OFFCURVE",
"754 -16 CURVE SMOOTH",
"910 -14 OFFCURVE",
"1020 32 OFFCURVE",
"1074 88 CURVE",
"1058 434 LINE",
"1016 304 OFFCURVE",
"928 264 OFFCURVE",
"790 264 CURVE SMOOTH",
"592 264 OFFCURVE",
"476 426 OFFCURVE",
"476 740 CURVE SMOOTH",
"476 1156 OFFCURVE",
"668 1214 OFFCURVE",
"814 1214 CURVE SMOOTH",
"942 1214 OFFCURVE",
"1018 1144 OFFCURVE",
"1056 1058 CURVE",
"1072 1408 LINE",
"1020 1464 OFFCURVE",
"928 1502 OFFCURVE",
"792 1502 CURVE SMOOTH",
"410 1500 OFFCURVE",
"104 1264 OFFCURVE",
"94 750 CURVE SMOOTH"
);
},
{
closed = 1;
nodes = (
"2018 0 LINE",
"2018 284 LINE",
"1394 284 LINE",
"1394 626 LINE",
"1818 626 LINE",
"1818 898 LINE",
"1394 898 LINE",
"1394 1208 LINE",
"1960 1208 LINE",
"1960 1486 LINE",
"1026 1486 LINE",
"1026 0 LINE"
);
}
);
width = 2106;
},
{
anchors = (
{
name = bottom;
position = "{1014, 0}";
},
{
name = btm;
position = "{1034, -166}";
},
{
name = top;
position = "{1034, 1660}";
}
);
layerId = "247DB4A4-D150-4133-9396-DC38172DD635";
paths = (
{
closed = 1;
nodes = (
"89 306 OFFCURVE",
"346 -23 OFFCURVE",
"759 -16 CURVE SMOOTH",
"907 -12 OFFCURVE",
"1004 30 OFFCURVE",
"1092 96 CURVE",
"1088 319 LINE",
"1015 209 OFFCURVE",
"907 160 OFFCURVE",
"770 160 CURVE SMOOTH",
"484 160 OFFCURVE",
"334 426 OFFCURVE",
"334 740 CURVE SMOOTH",
"334 1156 OFFCURVE",
"552 1324 OFFCURVE",
"785 1324 CURVE SMOOTH",
"930 1324 OFFCURVE",
"1026 1273 OFFCURVE",
"1092 1185 CURVE",
"1080 1426 LINE",
"997 1487 OFFCURVE",
"882 1504 OFFCURVE",
"788 1502 CURVE SMOOTH",
"391 1490 OFFCURVE",
"109 1242 OFFCURVE",
"99 750 CURVE SMOOTH"
);
},
{
closed = 1;
nodes = (
"1952 0 LINE",
"1952 184 LINE",
"1253 184 LINE",
"1253 676 LINE",
"1716 676 LINE",
"1716 856 LINE",
"1253 856 LINE",
"1253 1306 LINE",
"1883 1306 LINE",
"1883 1486 LINE",
"1018 1486 LINE",
"1018 0 LINE"
);
}
);
width = 2026;
}
);
leftKerningGroup = O;
rightKerningGroup = E;
unicode = 0152;
},
{
color = 4;
glyphname = P;
lastChange = "2019-04-06 02:48:40 +0000";
layers = (
{
anchors = (
{
name = bottom;
position = "{612, 0}";
},
{
name = btm;
position = "{672, -166}";
},
{
name = top;
position = "{648, 1660}";
}
);
layerId = "8BC678DE-46B6-4C98-A96E-C0ED61786D32";
paths = (
{
closed = 1;
nodes = (
"352 0 LINE",
"352 522 LINE",
"392 522 OFFCURVE",
"488 514 OFFCURVE",
"594 514 CURVE SMOOTH",
"938 516 OFFCURVE",
"1152 698 OFFCURVE",
"1152 1020 CURVE SMOOTH",
"1152 1368 OFFCURVE",
"950 1500 OFFCURVE",
"636 1500 CURVE SMOOTH",
"506 1500 OFFCURVE",
"378 1486 OFFCURVE",
"268 1486 CURVE SMOOTH",
"188 1486 LINE",
"188 0 LINE"
);
},
{
closed = 1;
nodes = (
"352 1366 LINE",
"422 1376 OFFCURVE",
"512 1378 OFFCURVE",
"588 1380 CURVE SMOOTH",
"854 1386 OFFCURVE",
"986 1280 OFFCURVE",
"986 1020 CURVE SMOOTH",
"986 736 OFFCURVE",
"810 640 OFFCURVE",
"584 636 CURVE SMOOTH",
"524 636 OFFCURVE",
"412 640 OFFCURVE",
"352 648 CURVE"
);
}
);
width = 1236;
},
{
anchors = (
{
name = bottom;
position = "{672, 0}";
},
{
name = btm;
position = "{678, -166}";
},
{
name = top;
position = "{742, 1662}";
}
);
layerId = "23A20576-2241-481A-AD5B-28E85381F753";
paths = (
{
closed = 1;
nodes = (
"534 0 LINE",
"534 430 LINE",
"566 430 OFFCURVE",
"608 428 OFFCURVE",
"686 428 CURVE SMOOTH",
"1082 428 OFFCURVE",
"1296 626 OFFCURVE",
"1296 978 CURVE SMOOTH",
"1296 1364 OFFCURVE",
"1082 1502 OFFCURVE",
"724 1502 CURVE SMOOTH",
"576 1502 OFFCURVE",
"442 1486 OFFCURVE",
"306 1486 CURVE SMOOTH",
"160 1486 LINE",
"160 0 LINE"
);
},
{
closed = 1;
nodes = (
"534 1232 LINE",
"576 1238 OFFCURVE",
"632 1242 OFFCURVE",
"678 1242 CURVE SMOOTH",
"852 1248 OFFCURVE",
"932 1140 OFFCURVE",
"932 980 CURVE SMOOTH",
"932 772 OFFCURVE",
"826 696 OFFCURVE",
"686 696 CURVE SMOOTH",
"624 696 OFFCURVE",
"576 700 OFFCURVE",
"534 704 CURVE"
);
}
);
width = 1352;
},
{
anchors = (
{
name = bottom;
position = "{616, 0}";
},
{
name = btm;
position = "{666, -166}";
},
{
name = top;
position = "{674, 1660}";
}
);
layerId = "247DB4A4-D150-4133-9396-DC38172DD635";
paths = (
{
closed = 1;
nodes = (
"412 0 LINE",
"412 502 LINE",
"448 502 OFFCURVE",
"506 500 OFFCURVE",
"600 500 CURVE SMOOTH",
"972 500 OFFCURVE",
"1172 690 OFFCURVE",
"1172 1014 CURVE SMOOTH",
"1172 1358 OFFCURVE",
"974 1502 OFFCURVE",
"650 1502 CURVE SMOOTH",
"516 1502 OFFCURVE",
"400 1486 OFFCURVE",
"278 1486 CURVE SMOOTH",
"176 1486 LINE",
"176 0 LINE"
);
},
{
closed = 1;
nodes = (
"412 1316 LINE",
"464 1328 OFFCURVE",
"526 1332 OFFCURVE",
"584 1334 CURVE SMOOTH",
"814 1342 OFFCURVE",
"940 1242 OFFCURVE",
"940 1014 CURVE SMOOTH",
"940 730 OFFCURVE",
"772 672 OFFCURVE",
"586 672 CURVE SMOOTH",
"532 672 OFFCURVE",
"472 674 OFFCURVE",
"412 682 CURVE"
);
}
);
width = 1244;
}
);
leftKerningGroup = H;
leftMetricsKey = H;
rightKerningGroup = P;
unicode = 0050;
},
{
color = 4;
glyphname = Thorn;
lastChange = "2019-04-06 02:48:40 +0000";
layers = (
{
anchors = (
{
name = bottom;
position = "{606, 0}";
},
{
name = top;
position = "{606, 1486}";
}
);
layerId = "8BC678DE-46B6-4C98-A96E-C0ED61786D32";
paths = (
{
closed = 1;
nodes = (
"934 286 OFFCURVE",
"1144 450 OFFCURVE",
"1144 774 CURVE SMOOTH",
"1144 1084 OFFCURVE",
"950 1218 OFFCURVE",
"638 1218 CURVE SMOOTH",
"522 1218 OFFCURVE",
"378 1200 OFFCURVE",
"284 1198 CURVE",
"340 1076 LINE",
"400 1088 OFFCURVE",
"510 1098 OFFCURVE",
"584 1100 CURVE SMOOTH",
"846 1104 OFFCURVE",
"978 1000 OFFCURVE",
"978 772 CURVE SMOOTH",
"978 494 OFFCURVE",
"812 406 OFFCURVE",
"572 406 CURVE SMOOTH",
"506 406 OFFCURVE",
"406 412 OFFCURVE",
"340 420 CURVE",
"340 298 LINE",
"380 296 OFFCURVE",
"486 286 OFFCURVE",
"588 286 CURVE SMOOTH"
);
},
{
closed = 1;
nodes = (
"352 0 LINE",
"352 1486 LINE",
"188 1486 LINE",
"188 0 LINE"
);
}
);
width = 1226;
},
{
anchors = (
{
name = bottom;
position = "{672, 0}";
},
{
name = top;
position = "{672, 1486}";
}
);
layerId = "23A20576-2241-481A-AD5B-28E85381F753";
paths = (
{
closed = 1;
nodes = (
"1102 230 OFFCURVE",
"1294 442 OFFCURVE",
"1294 786 CURVE SMOOTH",
"1294 1102 OFFCURVE",
"1098 1268 OFFCURVE",
"772 1268 CURVE SMOOTH",
"678 1268 OFFCURVE",
"576 1258 OFFCURVE",
"498 1254 CURVE",
"520 980 LINE",
"566 992 OFFCURVE",
"612 998 OFFCURVE",
"666 998 CURVE SMOOTH",
"842 1002 OFFCURVE",
"928 914 OFFCURVE",
"928 772 CURVE SMOOTH",
"928 550 OFFCURVE",
"810 492 OFFCURVE",
"666 492 CURVE SMOOTH",
"622 492 OFFCURVE",
"574 492 OFFCURVE",
"522 502 CURVE",
"522 240 LINE",
"560 236 OFFCURVE",
"642 230 OFFCURVE",
"748 230 CURVE SMOOTH"
);
},
{
closed = 1;
nodes = (
"534 0 LINE",
"534 1486 LINE",
"160 1486 LINE",
"160 0 LINE"
);
}
);
width = 1352;
},
{
anchors = (
{
name = bottom;
position = "{612, 0}";
},
{
name = top;
position = "{612, 1486}";
}
);
layerId = "247DB4A4-D150-4133-9396-DC38172DD635";
paths = (
{
closed = 1;
nodes = (
"962 274 OFFCURVE",
"1160 458 OFFCURVE",
"1160 776 CURVE SMOOTH",
"1160 1088 OFFCURVE",
"974 1234 OFFCURVE",
"640 1234 CURVE SMOOTH",
"524 1234 OFFCURVE",
"416 1220 OFFCURVE",
"328 1218 CURVE",
"396 1042 LINE",
"446 1058 OFFCURVE",
"508 1062 OFFCURVE",
"564 1064 CURVE SMOOTH",
"808 1072 OFFCURVE",
"928 980 OFFCURVE",
"928 774 CURVE SMOOTH",
"928 496 OFFCURVE",
"758 446 OFFCURVE",
"568 446 CURVE SMOOTH",
"516 446 OFFCURVE",
"460 446 OFFCURVE",
"396 458 CURVE",
"396 282 LINE",
"434 282 OFFCURVE",
"496 274 OFFCURVE",
"592 274 CURVE SMOOTH"
);
},
{
closed = 1;
nodes = (
"412 0 LINE",
"412 1486 LINE",
"176 1486 LINE",
"176 0 LINE"
);
}
);
width = 1238;
}
);
leftKerningGroup = H;
leftMetricsKey = H;
rightKerningGroup = D;
unicode = 00DE;
},
{
color = 4;
glyphname = Q;
lastChange = "2019-04-06 02:48:40 +0000";
layers = (
{
anchors = (
{
name = bottom;
position = "{768, 0}";
},
{
name = btm;
position = "{770, -166}";
},
{
name = top;
position = "{782, 1632}";
}
);
components = (
{
name = O;
}
);
layerId = "8BC678DE-46B6-4C98-A96E-C0ED61786D32";
paths = (
{
closed = 1;
nodes = (
"1294 -280 OFFCURVE",
"1324 -264 OFFCURVE",
"1354 -244 CURVE",
"1354 -124 LINE",
"1312 -140 OFFCURVE",
"1272 -146 OFFCURVE",
"1220 -146 CURVE SMOOTH",
"1044 -146 OFFCURVE",
"986 -74 OFFCURVE",
"908 50 CURVE",
"830 50 LINE",
"756 22 LINE",
"918 -220 OFFCURVE",
"1008 -280 OFFCURVE",
"1222 -280 CURVE SMOOTH"
);
}
);
width = 1534;
},
{
anchors = (
{
name = bottom;
position = "{784, 0}";
},
{
name = btm;
position = "{784, -166}";
},
{
name = top;
position = "{784, 1660}";
}
);
components = (
{
name = O;
}
);
layerId = "23A20576-2241-481A-AD5B-28E85381F753";
paths = (
{
closed = 1;
nodes = (
"1286 -346 OFFCURVE",
"1352 -320 OFFCURVE",
"1388 -302 CURVE",
"1388 -52 LINE",
"1348 -66 OFFCURVE",
"1290 -80 OFFCURVE",
"1234 -80 CURVE SMOOTH",
"1052 -80 OFFCURVE",
"986 -64 OFFCURVE",
"952 54 CURVE",
"850 54 LINE",
"672 8 LINE",
"746 -254 OFFCURVE",
"862 -346 OFFCURVE",
"1192 -346 CURVE SMOOTH"
);
}
);
width = 1566;
},
{
anchors = (
{
name = bottom;
position = "{768, 0}";
},
{
name = btm;
position = "{768, -166}";
},
{
name = top;
position = "{768, 1660}";
}
);
components = (
{
alignment = -1;
name = O;
}
);
layerId = "247DB4A4-D150-4133-9396-DC38172DD635";
paths = (
{
closed = 1;
nodes = (
"1276 -293 OFFCURVE",
"1317 -272 OFFCURVE",
"1346 -252 CURVE",
"1346 -85 LINE",
"1300 -101 OFFCURVE",
"1254 -105 OFFCURVE",
"1203 -105 CURVE SMOOTH",
"1045 -105 OFFCURVE",
"990 -62 OFFCURVE",
"920 66 CURVE",
"817 66 LINE",
"711 28 LINE",
"865 -231 OFFCURVE",
"964 -293 OFFCURVE",
"1197 -293 CURVE SMOOTH"
);
}
);
width = 1537;
}
);
leftKerningGroup = O;
rightKerningGroup = Q;
unicode = 0051;
},
{
color = 4;
glyphname = R;
lastChange = "2019-04-06 02:48:40 +0000";
layers = (
{
anchors = (
{
name = bottom;
position = "{650, 0}";
},
{
name = btm;
position = "{658, -166}";
},
{
name = top;
position = "{612, 1660}";
}
);
layerId = "8BC678DE-46B6-4C98-A96E-C0ED61786D32";
paths = (
{
closed = 1;
nodes = (
"352 648 LINE",
"548 646 OFFCURVE",
"668 644 OFFCURVE",
"764 658 CURVE SMOOTH",
"990 688 OFFCURVE",
"1146 834 OFFCURVE",
"1146 1090 CURVE SMOOTH",
"1146 1392 OFFCURVE",
"938 1500 OFFCURVE",
"636 1500 CURVE SMOOTH",
"508 1500 OFFCURVE",
"378 1488 OFFCURVE",
"284 1488 CURVE SMOOTH",
"274 1488 OFFCURVE",
"188 1486 OFFCURVE",
"188 1486 CURVE",
"188 0 LINE",
"352 0 LINE"
);
},
{
closed = 1;
nodes = (
"352 1362 LINE",
"412 1374 OFFCURVE",
"522 1378 OFFCURVE",
"610 1378 CURVE SMOOTH",
"864 1378 OFFCURVE",
"978 1294 OFFCURVE",
"978 1082 CURVE SMOOTH",
"976 866 OFFCURVE",
"838 760 OFFCURVE",
"630 758 CURVE SMOOTH",
"572 758 OFFCURVE",
"400 760 OFFCURVE",
"352 764 CURVE"
);
},
{
closed = 1;
nodes = (
"1250 0 LINE",
"1232 28 OFFCURVE",
"1214 62 OFFCURVE",
"1194 100 CURVE SMOOTH",
"1088 290 OFFCURVE",
"974 638 OFFCURVE",
"808 690 CURVE",
"708 702 LINE",
"640 652 LINE",
"814 628 OFFCURVE",
"922 280 OFFCURVE",
"1010 100 CURVE SMOOTH",
"1036 42 OFFCURVE",
"1046 20 OFFCURVE",
"1062 0 CURVE"
);
}
);
width = 1314;
},
{
anchors = (
{
name = bottom;
position = "{710, 0}";
},
{
name = btm;
position = "{724, -166}";
},
{
name = top;
position = "{686, 1660}";
}
);
layerId = "23A20576-2241-481A-AD5B-28E85381F753";
paths = (
{
closed = 1;
nodes = (
"532 526 LINE",
"764 526 OFFCURVE",
"816 542 OFFCURVE",
"894 556 CURVE SMOOTH",
"1128 592 OFFCURVE",
"1290 726 OFFCURVE",
"1290 1030 CURVE SMOOTH",
"1290 1404 OFFCURVE",
"998 1502 OFFCURVE",
"736 1502 CURVE SMOOTH",
"524 1502 OFFCURVE",
"394 1486 OFFCURVE",
"288 1486 CURVE SMOOTH",
"246 1486 OFFCURVE",
"202 1486 OFFCURVE",
"160 1486 CURVE",
"160 0 LINE",
"532 0 LINE"
);
},
{
closed = 1;
nodes = (
"532 1222 LINE",
"578 1234 OFFCURVE",
"636 1240 OFFCURVE",
"690 1240 CURVE SMOOTH",
"886 1240 OFFCURVE",
"932 1134 OFFCURVE",
"932 1024 CURVE SMOOTH",
"932 886 OFFCURVE",
"866 776 OFFCURVE",
"714 776 CURVE SMOOTH",
"666 776 OFFCURVE",
"572 778 OFFCURVE",
"532 784 CURVE"
);
},
{
closed = 1;
nodes = (
"1390 0 LINE",
"1370 36 OFFCURVE",
"1348 72 OFFCURVE",
"1328 108 CURVE SMOOTH",
"1216 302 OFFCURVE",
"1160 562 OFFCURVE",
"1010 630 CURVE",
"774 598 LINE",
"688 530 LINE",
"812 528 OFFCURVE",
"846 284 OFFCURVE",
"926 106 CURVE SMOOTH",
"954 42 OFFCURVE",
"964 20 OFFCURVE",
"980 0 CURVE"
);
}
);
width = 1428;
},
{
anchors = (
{
name = bottom;
position = "{662, 0}";
},
{
name = btm;
position = "{668, -166}";
},
{
name = top;
position = "{630, 1660}";
}
);
layerId = "247DB4A4-D150-4133-9396-DC38172DD635";
paths = (
{
closed = 1;
nodes = (
"412 620 LINE",
"652 620 OFFCURVE",
"718 624 OFFCURVE",
"800 636 CURVE SMOOTH",
"1030 672 OFFCURVE",
"1172 810 OFFCURVE",
"1172 1078 CURVE SMOOTH",
"1172 1384 OFFCURVE",
"960 1502 OFFCURVE",
"662 1502 CURVE SMOOTH",
"506 1502 OFFCURVE",
"374 1486 OFFCURVE",
"280 1486 CURVE SMOOTH",
"244 1486 OFFCURVE",
"212 1486 OFFCURVE",
"176 1486 CURVE",
"176 0 LINE",
"412 0 LINE"
);
},
{
closed = 1;
nodes = (
"412 1312 LINE",
"472 1324 OFFCURVE",
"550 1330 OFFCURVE",
"628 1330 CURVE SMOOTH",
"858 1330 OFFCURVE",
"936 1240 OFFCURVE",
"936 1068 CURVE SMOOTH",
"936 874 OFFCURVE",
"828 782 OFFCURVE",
"636 782 CURVE SMOOTH",
"584 782 OFFCURVE",
"454 782 OFFCURVE",
"412 788 CURVE"
);
},
{
closed = 1;
nodes = (
"1276 0 LINE",
"1256 36 OFFCURVE",
"1236 72 OFFCURVE",
"1216 110 CURVE SMOOTH",
"1110 302 OFFCURVE",
"1030 616 OFFCURVE",
"872 684 CURVE",
"732 696 LINE",
"642 626 LINE",
"808 602 OFFCURVE",
"876 288 OFFCURVE",
"958 110 CURVE SMOOTH",
"988 46 OFFCURVE",
"994 26 OFFCURVE",
"1012 0 CURVE"
);
}
);
width = 1334;
}
);
leftKerningGroup = H;
leftMetricsKey = H;
rightKerningGroup = R;
unicode = 0052;
},
{
color = 4;
glyphname = S;
lastChange = "2019-04-06 02:48:40 +0000";
layers = (
{
anchors = (
{
name = bottom;
position = "{564, 0}";
},
{
name = btm;
position = "{568, -166}";
},
{
name = top;
position = "{604, 1660}";
}
);
layerId = "8BC678DE-46B6-4C98-A96E-C0ED61786D32";
paths = (
{
closed = 1;
nodes = (
"842 -16 OFFCURVE",
"1042 114 OFFCURVE",
"1042 376 CURVE SMOOTH",
"1042 612 OFFCURVE",
"822 724 OFFCURVE",
"624 818 CURVE SMOOTH",
"414 920 OFFCURVE",
"294 990 OFFCURVE",
"294 1156 CURVE SMOOTH",
"294 1304 OFFCURVE",
"458 1372 OFFCURVE",
"616 1372 CURVE SMOOTH",
"768 1372 OFFCURVE",
"862 1338 OFFCURVE",
"934 1292 CURVE",
"968 1422 LINE",
"916 1458 OFFCURVE",
"804 1502 OFFCURVE",
"616 1502 CURVE SMOOTH",
"390 1502 OFFCURVE",
"136 1408 OFFCURVE",
"136 1134 CURVE SMOOTH",
"136 916 OFFCURVE",
"332 778 OFFCURVE",
"526 690 CURVE SMOOTH",
"734 594 OFFCURVE",
"880 528 OFFCURVE",
"880 358 CURVE SMOOTH",
"880 194 OFFCURVE",
"750 116 OFFCURVE",
"544 116 CURVE SMOOTH",
"404 116 OFFCURVE",
"252 160 OFFCURVE",
"172 208 CURVE",
"132 72 LINE",
"186 36 OFFCURVE",
"360 -16 OFFCURVE",
"554 -16 CURVE SMOOTH"
);
}
);
width = 1142;
},
{
anchors = (
{
name = bottom;
position = "{584, 0}";
},
{
name = btm;
position = "{576, -166}";
},
{
name = top;
position = "{632, 1660}";
}
);
layerId = "23A20576-2241-481A-AD5B-28E85381F753";
paths = (
{
closed = 1;
nodes = (
"930 -16 OFFCURVE",
"1122 158 OFFCURVE",
"1122 424 CURVE SMOOTH",
"1122 658 OFFCURVE",
"970 772 OFFCURVE",
"714 886 CURVE SMOOTH",
"534 968 OFFCURVE",
"458 1018 OFFCURVE",
"458 1108 CURVE SMOOTH",
"458 1182 OFFCURVE",
"522 1232 OFFCURVE",
"662 1232 CURVE SMOOTH",
"792 1232 OFFCURVE",
"932 1184 OFFCURVE",
"992 1138 CURVE",
"1050 1416 LINE",
"996 1448 OFFCURVE",
"854 1502 OFFCURVE",
"630 1502 CURVE SMOOTH",
"316 1502 OFFCURVE",
"100 1366 OFFCURVE",
"100 1094 CURVE SMOOTH",
"100 856 OFFCURVE",
"260 724 OFFCURVE",
"448 634 CURVE SMOOTH",
"670 528 OFFCURVE",
"750 492 OFFCURVE",
"750 396 CURVE SMOOTH",
"750 308 OFFCURVE",
"690 270 OFFCURVE",
"550 270 CURVE SMOOTH",
"394 270 OFFCURVE",
"230 324 OFFCURVE",
"156 366 CURVE",
"110 76 LINE",
"168 40 OFFCURVE",
"368 -16 OFFCURVE",
"580 -16 CURVE SMOOTH"
);
}
);
width = 1198;
},
{
anchors = (
{
name = bottom;
position = "{560, 0}";
},
{
name = btm;
position = "{554, -166}";
},
{
name = top;
position = "{596, 1660}";
}
);
layerId = "247DB4A4-D150-4133-9396-DC38172DD635";
paths = (
{
closed = 1;
nodes = (
"845 -16 OFFCURVE",
"1050 117 OFFCURVE",
"1050 390 CURVE SMOOTH",
"1050 625 OFFCURVE",
"838 744 OFFCURVE",
"639 847 CURVE SMOOTH",
"430 954 OFFCURVE",
"350 1005 OFFCURVE",
"350 1144 CURVE SMOOTH",
"350 1266 OFFCURVE",
"477 1321 OFFCURVE",
"623 1321 CURVE SMOOTH",
"781 1321 OFFCURVE",
"862 1281 OFFCURVE",
"930 1238 CURVE",
"976 1423 LINE",
"924 1457 OFFCURVE",
"804 1502 OFFCURVE",
"623 1502 CURVE SMOOTH",
"376 1502 OFFCURVE",
"124 1404 OFFCURVE",
"124 1117 CURVE SMOOTH",
"124 897 OFFCURVE",
"314 756 OFFCURVE",
"496 666 CURVE SMOOTH",
"709 564 OFFCURVE",
"818 505 OFFCURVE",
"818 366 CURVE SMOOTH",
"818 227 OFFCURVE",
"719 170 OFFCURVE",
"537 170 CURVE SMOOTH",
"396 170 OFFCURVE",
"255 217 OFFCURVE",
"179 261 CURVE",
"130 70 LINE",
"183 36 OFFCURVE",
"356 -16 OFFCURVE",
"551 -16 CURVE SMOOTH"
);
}
);
width = 1130;
}
);
leftKerningGroup = S;
rightKerningGroup = S;
unicode = 0053;
},
{
color = 4;
glyphname = Germandbls;
lastChange = "2019-04-06 02:48:40 +0000";
layers = (
{
anchors = (
{
name = bottom;
position = "{714, 0}";
},
{
name = top;
position = "{714, 1486}";
}
);
layerId = "8BC678DE-46B6-4C98-A96E-C0ED61786D32";
paths = (
{
closed = 1;
nodes = (
"268 0 LINE",
"268 818 LINE SMOOTH",
"268 1190 OFFCURVE",
"474 1382 OFFCURVE",
"752 1382 CURVE SMOOTH",
"876 1382 OFFCURVE",
"962 1350 OFFCURVE",
"1016 1310 CURVE",
"724 848 LINE",
"716 790 LINE",
"1044 790 OFFCURVE",
"1182 706 OFFCURVE",
"1182 454 CURVE SMOOTH",
"1182 240 OFFCURVE",
"1042 104 OFFCURVE",
"862 104 CURVE SMOOTH",
"738 104 OFFCURVE",
"618 144 OFFCURVE",
"562 190 CURVE",
"502 62 LINE",
"578 16 OFFCURVE",
"672 -22 OFFCURVE",
"882 -22 CURVE SMOOTH",
"1186 -22 OFFCURVE",
"1338 208 OFFCURVE",
"1338 454 CURVE SMOOTH {name = hr02;}",
"1338 756 OFFCURVE",
"1138 884 OFFCURVE",
"898 884 CURVE",
"1206 1344 LINE",
"1208 1412 LINE",
"1108 1412 OFFCURVE",
"1014 1502 OFFCURVE",
"750 1502 CURVE SMOOTH",
"312 1502 OFFCURVE",
"102 1210 OFFCURVE",
"102 736 CURVE SMOOTH",
"102 0 LINE {name = hr01;}"
);
}
);
width = 1428;
},
{
anchors = (
{
name = bottom;
position = "{746, 0}";
},
{
name = top;
position = "{746, 1486}";
}
);
layerId = "23A20576-2241-481A-AD5B-28E85381F753";
paths = (
{
closed = 1;
nodes = (
"478 0 LINE",
"478 848 LINE SMOOTH",
"478 1114 OFFCURVE",
"596 1248 OFFCURVE",
"846 1248 CURVE SMOOTH",
"928 1248 OFFCURVE",
"988 1234 OFFCURVE",
"1026 1214 CURVE",
"738 882 LINE",
"734 686 LINE",
"1004 686 OFFCURVE",
"1114 610 OFFCURVE",
"1114 444 CURVE SMOOTH",
"1114 290 OFFCURVE",
"1000 232 OFFCURVE",
"902 232 CURVE SMOOTH",
"800 232 OFFCURVE",
"726 274 OFFCURVE",
"682 298 CURVE",
"594 54 LINE",
"666 18 OFFCURVE",
"764 -22 OFFCURVE",
"974 -22 CURVE SMOOTH",
"1284 -22 OFFCURVE",
"1500 166 OFFCURVE",
"1500 474 CURVE SMOOTH",
"1500 742 OFFCURVE",
"1266 870 OFFCURVE",
"1154 870 CURVE",
"1398 1108 LINE",
"1398 1408 LINE",
"1298 1408 OFFCURVE",
"1106 1502 OFFCURVE",
"840 1502 CURVE SMOOTH",
"362 1502 OFFCURVE",
"100 1212 OFFCURVE",
"100 736 CURVE SMOOTH",
"100 0 LINE"
);
}
);
width = 1490;
},
{
anchors = (
{
name = bottom;
position = "{732, 0}";
},
{
name = top;
position = "{732, 1486}";
}
);
layerId = "247DB4A4-D150-4133-9396-DC38172DD635";
paths = (
{
closed = 1;
nodes = (
"345 0 LINE",
"345 848 LINE SMOOTH",
"345 1175 OFFCURVE",
"540 1330 OFFCURVE",
"792 1330 CURVE SMOOTH",
"875 1330 OFFCURVE",
"951 1309 OFFCURVE",
"1000 1273 CURVE",
"749 854 LINE",
"739 759 LINE",
"1053 759 OFFCURVE",
"1160 676 OFFCURVE",
"1160 451 CURVE SMOOTH",
"1160 250 OFFCURVE",
"1021 157 OFFCURVE",
"884 157 CURVE SMOOTH",
"781 157 OFFCURVE",
"665 197 OFFCURVE",
"619 241 CURVE",
"538 61 LINE",
"613 16 OFFCURVE",
"710 -22 OFFCURVE",
"918 -22 CURVE SMOOTH",
"1228 -22 OFFCURVE",
"1395 201 OFFCURVE",
"1395 456 CURVE SMOOTH {name = hr02;}",
"1395 753 OFFCURVE",
"1203 892 OFFCURVE",
"1007 892 CURVE",
"1260 1288 LINE",
"1262 1411 LINE",
"1162 1411 OFFCURVE",
"1050 1502 OFFCURVE",
"786 1502 CURVE SMOOTH",
"327 1502 OFFCURVE",
"102 1210 OFFCURVE",
"102 736 CURVE SMOOTH",
"102 0 LINE {name = hr01;}"
);
}
);
width = 1464;
}
);
leftKerningGroup = S;
rightKerningGroup = S;
unicode = 1E9E;
},
{
color = 4;
glyphname = Schwa;
lastChange = "2019-04-06 02:48:40 +0000";
layers = (
{
anchors = (
{
name = bottom;
position = "{730, 0}";
},
{
name = btm;
position = "{714, -166}";
},
{
name = top;
position = "{706, 1662}";
}
);
background = {
paths = (
{
closed = 1;
nodes = (
"1356 1240 OFFCURVE",
"1052 1502 OFFCURVE",
"668 1502 CURVE SMOOTH",
"456 1502 OFFCURVE",
"374 1464 OFFCURVE",
"258 1442 CURVE",
"264 1294 LINE",
"348 1332 OFFCURVE",
"470 1372 OFFCURVE",
"678 1372 CURVE SMOOTH",
"956 1372 OFFCURVE",
"1184 1158 OFFCURVE",
"1184 752 CURVE SMOOTH",
"1184 380 OFFCURVE",
"1006 112 OFFCURVE",
"682 112 CURVE SMOOTH",
"524 112 OFFCURVE",
"390 148 OFFCURVE",
"334 176 CURVE",
"334 634 LINE",
"288 602 LINE",
"642 614 LINE",
"642 732 LINE",
"174 732 LINE",
"174 88 LINE",
"256 84 OFFCURVE",
"380 -16 OFFCURVE",
"680 -16 CURVE SMOOTH",
"1106 -16 OFFCURVE",
"1356 304 OFFCURVE",
"1356 732 CURVE SMOOTH"
);
}
);
};
layerId = "8BC678DE-46B6-4C98-A96E-C0ED61786D32";
paths = (
{
closed = 1;
nodes = (
"1114 -16 OFFCURVE",
"1356 280 OFFCURVE",
"1356 744 CURVE SMOOTH",
"1356 1246 OFFCURVE",
"1056 1508 OFFCURVE",
"682 1504 CURVE SMOOTH",
"462 1502 OFFCURVE",
"284 1418 OFFCURVE",
"176 1304 CURVE",
"220 1174 LINE",
"322 1292 OFFCURVE",
"484 1372 OFFCURVE",
"708 1372 CURVE SMOOTH",
"978 1372 OFFCURVE",
"1190 1158 OFFCURVE",
"1190 752 CURVE SMOOTH",
"1190 380 OFFCURVE",
"1010 112 OFFCURVE",
"692 112 CURVE SMOOTH",
"384 112 OFFCURVE",
"252 380 OFFCURVE",
"264 626 CURVE",
"1214 626 LINE",
"1240 754 LINE",
"114 754 LINE",
"106 692 OFFCURVE",
"100 662 OFFCURVE",
"100 626 CURVE SMOOTH",
"100 172 OFFCURVE",
"396 -16 OFFCURVE",
"658 -16 CURVE SMOOTH"
);
}
);
width = 1456;
},
{
anchors = (
{
name = bottom;
position = "{742, 0}";
},
{
name = btm;
position = "{716, -166}";
},
{
name = top;
position = "{708, 1662}";
}
);
background = {
anchors = (
{
name = btm;
position = "{854, -166}";
},
{
name = top;
position = "{888, 1662}";
}
);
paths = (
{
closed = 1;
nodes = (
"1426 1286 OFFCURVE",
"1088 1502 OFFCURVE",
"658 1502 CURVE SMOOTH",
"440 1502 OFFCURVE",
"344 1464 OFFCURVE",
"230 1444 CURVE",
"240 1132 LINE",
"318 1172 OFFCURVE",
"444 1210 OFFCURVE",
"642 1210 CURVE SMOOTH",
"900 1210 OFFCURVE",
"1048 1042 OFFCURVE",
"1048 762 CURVE SMOOTH",
"1048 474 OFFCURVE",
"928 262 OFFCURVE",
"706 262 CURVE SMOOTH",
"602 262 OFFCURVE",
"538 274 OFFCURVE",
"490 292 CURVE",
"490 594 LINE",
"454 550 LINE",
"702 568 LINE",
"702 834 LINE",
"150 834 LINE",
"150 84 LINE",
"266 80 OFFCURVE",
"362 -16 OFFCURVE",
"700 -16 CURVE SMOOTH",
"1142 -16 OFFCURVE",
"1426 262 OFFCURVE",
"1426 736 CURVE SMOOTH"
);
}
);
};
layerId = "23A20576-2241-481A-AD5B-28E85381F753";
paths = (
{
closed = 1;
nodes = (
"1138 -16 OFFCURVE",
"1394 310 OFFCURVE",
"1394 744 CURVE SMOOTH",
"1394 1286 OFFCURVE",
"1074 1502 OFFCURVE",
"716 1504 CURVE SMOOTH",
"452 1506 OFFCURVE",
"262 1414 OFFCURVE",
"168 1346 CURVE",
"240 1086 LINE",
"342 1156 OFFCURVE",
"456 1210 OFFCURVE",
"672 1210 CURVE SMOOTH",
"894 1210 OFFCURVE",
"1036 1042 OFFCURVE",
"1036 762 CURVE SMOOTH",
"1036 474 OFFCURVE",
"920 262 OFFCURVE",
"708 262 CURVE SMOOTH",
"514 262 OFFCURVE",
"424 406 OFFCURVE",
"436 626 CURVE",
"1136 626 LINE",
"1162 866 LINE",
"98 866 LINE",
"90 804 OFFCURVE",
"84 764 OFFCURVE",
"84 656 CURVE SMOOTH",
"84 174 OFFCURVE",
"384 -16 OFFCURVE",
"686 -16 CURVE SMOOTH"
);
}
);
width = 1478;
},
{
anchors = (
{
name = bottom;
position = "{744, 0}";
},
{
name = btm;
position = "{718, -166}";
},
{
name = top;
position = "{710, 1662}";
}
);
layerId = "247DB4A4-D150-4133-9396-DC38172DD635";
paths = (
{
closed = 1;
nodes = (
"1148 -16 OFFCURVE",
"1386 280 OFFCURVE",
"1386 744 CURVE SMOOTH",
"1386 1250 OFFCURVE",
"1084 1506 OFFCURVE",
"720 1504 CURVE SMOOTH",
"476 1502 OFFCURVE",
"282 1432 OFFCURVE",
"168 1322 CURVE",
"222 1136 LINE",
"334 1250 OFFCURVE",
"498 1318 OFFCURVE",
"716 1318 CURVE SMOOTH",
"970 1318 OFFCURVE",
"1154 1114 OFFCURVE",
"1154 762 CURVE SMOOTH",
"1154 426 OFFCURVE",
"1012 164 OFFCURVE",
"708 164 CURVE SMOOTH",
"400 164 OFFCURVE",
"306 406 OFFCURVE",
"318 626 CURVE",
"1224 626 LINE",
"1250 812 LINE",
"108 812 LINE",
"100 750 OFFCURVE",
"94 710 OFFCURVE",
"94 602 CURVE SMOOTH",
"94 174 OFFCURVE",
"380 -16 OFFCURVE",
"682 -16 CURVE SMOOTH"
);
}
);
width = 1480;
}
);
leftKerningGroup = O;
leftMetricsKey = O;
rightKerningGroup = O;
rightMetricsKey = O;
unicode = 018F;
},
{
color = 4;
glyphname = T;
lastChange = "2019-04-06 02:48:40 +0000";
layers = (
{
anchors = (
{
name = bottom;
position = "{626, 0}";
},
{
name = center;
position = "{626, 744}";
},
{
name = top;
position = "{618, 1660}";
}
);
layerId = "8BC678DE-46B6-4C98-A96E-C0ED61786D32";
paths = (
{
closed = 1;
nodes = (
"708 0 LINE",
"708 1358 LINE",
"1194 1358 LINE",
"1194 1486 LINE",
"60 1486 LINE",
"60 1358 LINE",
"540 1358 LINE",
"540 0 LINE"
);
}
);
width = 1250;
},
{
anchors = (
{
name = bottom;
position = "{612, 0}";
},
{
name = center;
position = "{612, 744}";
},
{
name = top;
position = "{610, 1660}";
}
);
layerId = "23A20576-2241-481A-AD5B-28E85381F753";
paths = (
{
closed = 1;
nodes = (
"800 0 LINE",
"800 1200 LINE",
"1196 1200 LINE",
"1196 1486 LINE",
"28 1486 LINE",
"28 1200 LINE",
"424 1200 LINE",
"424 0 LINE"
);
}
);
width = 1224;
},
{
anchors = (
{
name = bottom;
position = "{631, 0}";
},
{
name = center;
position = "{631, 744}";
},
{
name = top;
position = "{624, 1660}";
}
);
layerId = "247DB4A4-D150-4133-9396-DC38172DD635";
paths = (
{
closed = 1;
nodes = (
"750 0 LINE",
"750 1306 LINE",
"1207 1306 LINE",
"1207 1486 LINE",
"56 1486 LINE",
"56 1306 LINE",
"514 1306 LINE",
"514 0 LINE"
);
}
);
width = 1263;
}
);
leftKerningGroup = T;
rightKerningGroup = T;
unicode = 0054;
},
{
glyphname = Tbar;
lastChange = "2019-04-06 02:48:40 +0000";
layers = (
{
components = (
{
name = T;
}
);
layerId = "8BC678DE-46B6-4C98-A96E-C0ED61786D32";
paths = (
{
closed = 1;
nodes = (
"1000 650 LINE",
"1000 760 LINE",
"248 760 LINE",
"248 650 LINE"
);
}
);
width = 1250;
},
{
components = (
{
name = T;
}
);
layerId = "23A20576-2241-481A-AD5B-28E85381F753";
paths = (
{
closed = 1;
nodes = (
"1078 544 LINE",
"1078 778 LINE",
"172 778 LINE",
"172 544 LINE"
);
}
);
width = 1224;
},
{
components = (
{
alignment = -1;
name = T;
}
);
layerId = "247DB4A4-D150-4133-9396-DC38172DD635";
paths = (
{
closed = 1;
nodes = (
"1037 627 LINE",
"1037 778 LINE",
"234 778 LINE",
"234 627 LINE"
);
}
);
width = 1263;
}
);
leftKerningGroup = T;
rightKerningGroup = T;
unicode = 0166;
},
{
color = 4;
glyphname = U;
lastChange = "2019-04-06 02:48:40 +0000";
layers = (
{
anchors = (
{
name = bottom;
position = "{720, 0}";
},
{
name = btm;
position = "{732, -166}";
},
{
name = ogonek;
position = "{1296, 20}";
},
{
name = top;
position = "{730, 1660}";
},
{
name = topright;
position = "{1150, 1486}";
}
);
layerId = "8BC678DE-46B6-4C98-A96E-C0ED61786D32";
paths = (
{
closed = 1;
nodes = (
"1092 -16 OFFCURVE",
"1274 202 OFFCURVE",
"1274 630 CURVE SMOOTH",
"1274 1486 LINE",
"1110 1486 LINE",
"1110 668 LINE SMOOTH",
"1110 242 OFFCURVE",
"966 114 OFFCURVE",
"732 114 CURVE SMOOTH",
"480 114 OFFCURVE",
"332 236 OFFCURVE",
"332 668 CURVE SMOOTH",
"332 1488 LINE",
"166 1488 LINE",
"166 628 LINE SMOOTH",
"166 210 OFFCURVE",
"334 -16 OFFCURVE",
"726 -16 CURVE SMOOTH"
);
}
);
width = 1440;
},
{
anchors = (
{
name = bottom;
position = "{752, 0}";
},
{
name = btm;
position = "{748, -166}";
},
{
name = ogonek;
position = "{1356, 20}";
},
{
name = top;
position = "{752, 1660}";
},
{
name = topright;
position = "{1134, 1486}";
}
);
layerId = "23A20576-2241-481A-AD5B-28E85381F753";
paths = (
{
closed = 1;
nodes = (
"1188 -16 OFFCURVE",
"1374 220 OFFCURVE",
"1374 618 CURVE SMOOTH",
"1374 1486 LINE",
"1006 1486 LINE",
"1006 668 LINE SMOOTH",
"1006 364 OFFCURVE",
"922 278 OFFCURVE",
"754 278 CURVE SMOOTH",
"588 278 OFFCURVE",
"500 356 OFFCURVE",
"502 668 CURVE SMOOTH",
"506 1486 LINE",
"136 1486 LINE",
"132 624 LINE SMOOTH",
"132 240 OFFCURVE",
"300 -16 OFFCURVE",
"760 -16 CURVE SMOOTH"
);
}
);
width = 1506;
},
{
anchors = (
{
name = bottom;
position = "{720, 0}";
},
{
name = btm;
position = "{730, -166}";
},
{
name = ogonek;
position = "{1296, 20}";
},
{
name = top;
position = "{732, 1660}";
},
{
name = topright;
position = "{1142, 1486}";
}
);
layerId = "247DB4A4-D150-4133-9396-DC38172DD635";
paths = (
{
closed = 1;
nodes = (
"1104 -16 OFFCURVE",
"1286 210 OFFCURVE",
"1286 618 CURVE SMOOTH",
"1286 1486 LINE",
"1054 1486 LINE",
"1054 667 LINE SMOOTH",
"1054 271 OFFCURVE",
"933 168 OFFCURVE",
"734 168 CURVE SMOOTH",
"512 168 OFFCURVE",
"387 269 OFFCURVE",
"387 667 CURVE SMOOTH",
"389 1486 LINE",
"155 1486 LINE",
"154 622 LINE SMOOTH",
"153 221 OFFCURVE",
"312 -16 OFFCURVE",
"727 -16 CURVE SMOOTH"
);
}
);
width = 1439;
}
);
leftKerningGroup = U;
rightKerningGroup = U;
unicode = 0055;
},
{
color = 4;
glyphname = V;
lastChange = "2019-04-06 02:48:40 +0000";
layers = (
{
anchors = (
{
name = bottom;
position = "{650, 0}";
},
{
name = btm;
position = "{656, -166}";
},
{
name = top;
position = "{656, 1660}";
}
);
layerId = "8BC678DE-46B6-4C98-A96E-C0ED61786D32";
paths = (
{
closed = 1;
nodes = (
"730 -16 LINE",
"1270 1486 LINE",
"1096 1486 LINE",
"736 426 LINE",
"662 188 LINE",
"586 426 LINE",
"206 1486 LINE",
"30 1486 LINE",
"590 -16 LINE"
);
}
);
width = 1300;
},
{
anchors = (
{
name = bottom;
position = "{688, 0}";
},
{
name = btm;
position = "{690, -166}";
},
{
name = top;
position = "{690, 1662}";
}
);
layerId = "23A20576-2241-481A-AD5B-28E85381F753";
paths = (
{
closed = 1;
nodes = (
"852 -4 LINE",
"1388 1486 LINE",
"992 1486 LINE",
"770 736 LINE",
"696 446 LINE",
"622 736 LINE",
"384 1486 LINE",
"-12 1486 LINE",
"528 -4 LINE"
);
}
);
width = 1376;
},
{
anchors = (
{
name = bottom;
position = "{665, 0}";
},
{
name = btm;
position = "{666, -166}";
},
{
name = top;
position = "{666, 1660}";
}
);
layerId = "247DB4A4-D150-4133-9396-DC38172DD635";
paths = (
{
closed = 1;
nodes = (
"769 -11 LINE",
"1312 1486 LINE",
"1066 1486 LINE",
"743 519 LINE",
"672 280 LINE",
"604 519 LINE",
"266 1486 LINE",
"17 1486 LINE",
"573 -11 LINE"
);
}
);
width = 1329;
}
);
leftKerningGroup = V;
rightKerningGroup = V;
unicode = 0056;
},
{
color = 4;
glyphname = W;
lastChange = "2019-04-06 02:48:40 +0000";
layers = (
{
anchors = (
{
name = bottom;
position = "{936, 0}";
},
{
name = btm;
position = "{938, -166}";
},
{
name = top;
position = "{936, 1660}";
}
);
layerId = "8BC678DE-46B6-4C98-A96E-C0ED61786D32";
paths = (
{
closed = 1;
nodes = (
"582 -16 LINE",
"904 1054 LINE",
"964 1358 LINE",
"914 1358 LINE",
"976 1054 LINE",
"1294 -16 LINE",
"1456 -16 LINE",
"1838 1486 LINE",
"1670 1486 LINE",
"1440 502 LINE",
"1366 116 LINE",
"1394 116 LINE",
"1296 504 LINE",
"1002 1486 LINE",
"880 1486 LINE",
"588 504 LINE",
"502 116 LINE",
"528 116 LINE",
"448 504 LINE",
"206 1486 LINE",
"36 1486 LINE",
"438 -16 LINE"
);
}
);
width = 1874;
},
{
anchors = (
{
name = bottom;
position = "{976, 0}";
},
{
name = btm;
position = "{964, -166}";
},
{
name = top;
position = "{964, 1660}";
}
);
layerId = "23A20576-2241-481A-AD5B-28E85381F753";
paths = (
{
closed = 1;
nodes = (
"738 -10 LINE",
"926 766 LINE",
"1014 1410 LINE",
"918 1410 LINE",
"1016 766 LINE",
"1206 -10 LINE",
"1572 -10 LINE",
"1964 1486 LINE",
"1606 1486 LINE",
"1452 656 LINE",
"1388 168 LINE",
"1432 168 LINE",
"1352 656 LINE",
"1150 1486 LINE",
"812 1486 LINE",
"616 656 LINE",
"542 170 LINE",
"580 170 LINE",
"516 656 LINE",
"360 1486 LINE",
"-12 1486 LINE",
"378 -10 LINE"
);
}
);
width = 1952;
},
{
anchors = (
{
name = bottom;
position = "{943, 0}";
},
{
name = btm;
position = "{939, -166}";
},
{
name = top;
position = "{939, 1660}";
}
);
layerId = "247DB4A4-D150-4133-9396-DC38172DD635";
paths = (
{
closed = 1;
nodes = (
"633 -16 LINE",
"906 932 LINE",
"977 1337 LINE",
"905 1339 LINE",
"978 932 LINE",
"1247 -16 LINE",
"1480 -16 LINE",
"1864 1486 LINE",
"1628 1486 LINE",
"1417 537 LINE",
"1354 155 LINE",
"1393 155 LINE",
"1307 538 LINE",
"1033 1486 LINE",
"854 1486 LINE",
"586 538 LINE",
"517 155 LINE",
"552 155 LINE",
"485 538 LINE",
"258 1486 LINE",
"19 1486 LINE",
"425 -16 LINE"
);
}
);
width = 1883;
}
);
leftKerningGroup = W;
rightKerningGroup = W;
unicode = 0057;
},
{
color = 4;
glyphname = X;
lastChange = "2019-04-06 02:48:40 +0000";
layers = (
{
anchors = (
{
name = bottom;
position = "{650, 0}";
},
{
name = btm;
position = "{638, -166}";
},
{
name = top;
position = "{638, 1660}";
}
);
layerId = "8BC678DE-46B6-4C98-A96E-C0ED61786D32";
paths = (
{
closed = 1;
nodes = (
"250 0 LINE",
"552 492 LINE",
"664 678 LINE",
"618 678 LINE",
"732 492 LINE",
"1040 0 LINE",
"1228 0 LINE",
"712 792 LINE",
"734 722 LINE",
"1214 1486 LINE",
"1036 1486 LINE",
"758 1034 LINE",
"638 830 LINE",
"676 830 LINE",
"552 1034 LINE",
"264 1488 LINE",
"78 1486 LINE",
"578 722 LINE",
"566 790 LINE",
"72 0 LINE"
);
}
);
width = 1298;
},
{
anchors = (
{
name = bottom;
position = "{682, 0}";
},
{
name = btm;
position = "{668, -166}";
},
{
name = top;
position = "{668, 1660}";
}
);
layerId = "23A20576-2241-481A-AD5B-28E85381F753";
paths = (
{
closed = 1;
nodes = (
"406 0 LINE",
"608 382 LINE",
"708 590 LINE",
"630 588 LINE",
"732 382 LINE",
"940 0 LINE",
"1346 0 LINE",
"876 780 LINE",
"870 686 LINE",
"1332 1486 LINE",
"948 1486 LINE",
"754 1114 LINE",
"666 940 LINE",
"730 940 LINE",
"638 1114 LINE",
"434 1488 LINE",
"32 1486 LINE",
"486 714 LINE",
"492 818 LINE",
"20 0 LINE"
);
}
);
width = 1362;
},
{
anchors = (
{
name = bottom;
position = "{647, 0}";
},
{
name = btm;
position = "{632, -166}";
},
{
name = top;
position = "{632, 1660}";
}
);
layerId = "247DB4A4-D150-4133-9396-DC38172DD635";
paths = (
{
closed = 1;
nodes = (
"290 0 LINE",
"542 434 LINE",
"667 648 LINE",
"603 646 LINE",
"732 434 LINE",
"989 0 LINE",
"1254 0 LINE",
"740 802 LINE",
"767 710 LINE",
"1244 1486 LINE",
"995 1486 LINE",
"767 1094 LINE",
"633 865 LINE",
"682 865 LINE",
"546 1094 LINE",
"306 1488 LINE",
"44 1486 LINE",
"540 712 LINE",
"527 802 LINE",
"40 0 LINE"
);
}
);
width = 1295;
}
);
leftKerningGroup = X;
rightKerningGroup = X;
unicode = 0058;
},
{
color = 4;
glyphname = Y;
lastChange = "2019-04-06 02:48:40 +0000";
layers = (
{
anchors = (
{
name = bottom;
position = "{610, 0}";
},
{
name = btm;
position = "{628, -166}";
},
{
name = top;
position = "{628, 1660}";
},
{
name = topleft;
position = "{40, 1486}";
}
);
layerId = "8BC678DE-46B6-4C98-A96E-C0ED61786D32";
paths = (
{
closed = 1;
nodes = (
"704 0 LINE",
"704 618 LINE",
"674 518 LINE",
"1190 1486 LINE",
"1016 1486 LINE",
"666 802 LINE",
"610 658 LINE",
"636 658 LINE",
"572 802 LINE",
"208 1486 LINE",
"30 1486 LINE",
"564 520 LINE",
"536 620 LINE",
"536 0 LINE"
);
}
);
width = 1220;
},
{
anchors = (
{
name = bottom;
position = "{630, 0}";
},
{
name = btm;
position = "{642, -166}";
},
{
name = top;
position = "{642, 1660}";
},
{
name = topleft;
position = "{40, 1486}";
}
);
layerId = "23A20576-2241-481A-AD5B-28E85381F753";
paths = (
{
closed = 1;
nodes = (
"818 0 LINE",
"818 592 LINE",
"784 458 LINE",
"1310 1486 LINE",
"916 1486 LINE",
"692 1006 LINE",
"616 770 LINE",
"666 770 LINE",
"576 1006 LINE",
"356 1486 LINE",
"-52 1486 LINE",
"470 460 LINE",
"438 592 LINE",
"438 0 LINE"
);
}
);
width = 1258;
},
{
anchors = (
{
name = bottom;
position = "{616, 0}";
},
{
name = btm;
position = "{624, -166}";
},
{
name = top;
position = "{624, 1660}";
},
{
name = topleft;
position = "{40, 1486}";
}
);
layerId = "247DB4A4-D150-4133-9396-DC38172DD635";
paths = (
{
closed = 1;
nodes = (
"737 0 LINE",
"737 629 LINE",
"702 503 LINE",
"1221 1486 LINE",
"974 1486 LINE",
"659 854 LINE",
"607 702 LINE",
"643 702 LINE",
"581 854 LINE",
"261 1486 LINE",
"10 1486 LINE",
"534 503 LINE",
"499 632 LINE",
"499 0 LINE"
);
}
);
width = 1230;
}
);
leftKerningGroup = Y;
rightKerningGroup = Y;
unicode = 0059;
},
{
color = 4;
glyphname = Z;
lastChange = "2019-04-06 02:48:40 +0000";
layers = (
{
anchors = (
{
name = bottom;
position = "{600, 0}";
},
{
name = btm;
position = "{602, -166}";
},
{
name = center;
position = "{600, 744}";
},
{
name = top;
position = "{630, 1660}";
}
);
layerId = "8BC678DE-46B6-4C98-A96E-C0ED61786D32";
paths = (
{
closed = 1;
nodes = (
"1116 0 LINE",
"1116 130 LINE",
"288 130 LINE",
"372 234 LINE",
"1158 1424 LINE",
"1122 1486 LINE",
"150 1486 LINE",
"150 1354 LINE",
"942 1354 LINE",
"858 1246 LINE",
"70 64 LINE",
"104 0 LINE"
);
}
);
width = 1238;
},
{
anchors = (
{
name = bottom;
position = "{618, 0}";
},
{
name = btm;
position = "{600, -166}";
},
{
name = center;
position = "{618, 744}";
},
{
name = top;
position = "{630, 1660}";
}
);
layerId = "23A20576-2241-481A-AD5B-28E85381F753";
paths = (
{
closed = 1;
nodes = (
"1182 0 LINE",
"1182 278 LINE",
"548 278 LINE",
"620 380 LINE",
"1218 1408 LINE",
"1178 1486 LINE",
"110 1486 LINE",
"110 1214 LINE",
"714 1214 LINE",
"650 1120 LINE",
"40 82 LINE",
"80 0 LINE"
);
}
);
width = 1254;
},
{
anchors = (
{
name = bottom;
position = "{596, 0}";
},
{
name = btm;
position = "{590, -166}";
},
{
name = center;
position = "{596, 744}";
},
{
name = top;
position = "{626, 1660}";
}
);
layerId = "247DB4A4-D150-4133-9396-DC38172DD635";
paths = (
{
closed = 1;
nodes = (
"1116 0 LINE",
"1116 182 LINE",
"372 182 LINE",
"444 268 LINE",
"1172 1408 LINE",
"1126 1486 LINE",
"142 1486 LINE",
"142 1302 LINE",
"860 1302 LINE",
"804 1232 LINE",
"60 82 LINE",
"104 0 LINE"
);
}
);
width = 1228;
}
);
leftKerningGroup = Z;
rightKerningGroup = Z;
unicode = 005A;
},
{
glyphname = a;
lastChange = "2019-04-06 02:48:40 +0000";
layers = (
{
anchors = (
{
name = bottom;
position = "{560, 0}";
},
{
name = btm;
position = "{562, -200}";
},
{
name = ogonek;
position = "{1006, 50}";
},
{
name = top;
position = "{548, 1660}";
}
);
layerId = "8BC678DE-46B6-4C98-A96E-C0ED61786D32";
paths = (
{
closed = 1;
nodes = (
"606 -16 OFFCURVE",
"734 50 OFFCURVE",
"794 106 CURVE",
"820 172 LINE",
"784 204 LINE",
"760 178 OFFCURVE",
"636 106 OFFCURVE",
"494 106 CURVE SMOOTH",
"334 106 OFFCURVE",
"268 190 OFFCURVE",
"268 306 CURVE SMOOTH",
"268 406 OFFCURVE",
"326 468 OFFCURVE",
"438 510 CURVE SMOOTH",
"532 548 OFFCURVE",
"702 562 OFFCURVE",
"782 562 CURVE",
"818 620 LINE",
"782 666 LINE",
"666 666 OFFCURVE",
"478 650 OFFCURVE",
"348 600 CURVE SMOOTH",
"192 542 OFFCURVE",
"108 440 OFFCURVE",
"108 294 CURVE SMOOTH",
"108 100 OFFCURVE",
"250 -16 OFFCURVE",
"446 -16 CURVE SMOOTH"
);
},
{
closed = 1;
nodes = (
"944 776 LINE SMOOTH",
"944 1056 OFFCURVE",
"792 1130 OFFCURVE",
"564 1130 CURVE SMOOTH",
"384 1130 OFFCURVE",
"204 1044 OFFCURVE",
"166 1018 CURVE",
"206 902 LINE",
"264 944 OFFCURVE",
"410 996 OFFCURVE",
"522 996 CURVE SMOOTH",
"696 996 OFFCURVE",
"782 952 OFFCURVE",
"782 782 CURVE SMOOTH",
"782 160 LINE",
"792 158 LINE",
"792 0 LINE",
"944 0 LINE"
);
}
);
width = 1118;
},
{
anchors = (
{
name = bottom;
position = "{618, 0}";
},
{
name = btm;
position = "{604, -200}";
},
{
name = ogonek;
position = "{1080, 50}";
},
{
name = top;
position = "{598, 1660}";
}
);
layerId = "23A20576-2241-481A-AD5B-28E85381F753";
paths = (
{
closed = 1;
nodes = (
"596 -16 OFFCURVE",
"694 40 OFFCURVE",
"756 94 CURVE",
"796 180 LINE",
"738 254 LINE",
"718 232 OFFCURVE",
"656 208 OFFCURVE",
"598 208 CURVE SMOOTH",
"524 208 OFFCURVE",
"456 252 OFFCURVE",
"456 358 CURVE SMOOTH",
"456 438 OFFCURVE",
"500 464 OFFCURVE",
"542 482 CURVE SMOOTH",
"582 500 OFFCURVE",
"668 514 OFFCURVE",
"738 516 CURVE",
"790 626 LINE",
"738 690 LINE",
"598 690 OFFCURVE",
"418 680 OFFCURVE",
"284 622 CURVE SMOOTH",
"160 570 OFFCURVE",
"84 470 OFFCURVE",
"84 340 CURVE SMOOTH",
"84 132 OFFCURVE",
"226 -16 OFFCURVE",
"446 -16 CURVE SMOOTH"
);
},
{
closed = 1;
nodes = (
"1098 712 LINE SMOOTH",
"1098 1020 OFFCURVE",
"966 1132 OFFCURVE",
"616 1132 CURVE SMOOTH",
"416 1132 OFFCURVE",
"208 1060 OFFCURVE",
"126 1010 CURVE",
"200 798 LINE",
"298 844 OFFCURVE",
"454 876 OFFCURVE",
"582 876 CURVE SMOOTH",
"682 876 OFFCURVE",
"738 854 OFFCURVE",
"738 756 CURVE SMOOTH",
"738 166 LINE",
"756 166 LINE",
"756 0 LINE",
"1098 0 LINE"
);
}
);
width = 1234;
},
{
anchors = (
{
name = bottom;
position = "{559, 0}";
},
{
name = btm;
position = "{559, -200}";
},
{
name = ogonek;
position = "{988, 50}";
},
{
name = top;
position = "{545, 1660}";
}
);
layerId = "247DB4A4-D150-4133-9396-DC38172DD635";
paths = (
{
closed = 1;
nodes = (
"568 -16 OFFCURVE",
"686 40 OFFCURVE",
"745 94 CURVE",
"778 180 LINE",
"732 229 LINE",
"710 203 OFFCURVE",
"601 152 OFFCURVE",
"507 152 CURVE SMOOTH",
"384 152 OFFCURVE",
"322 210 OFFCURVE",
"322 322 CURVE SMOOTH",
"322 407 OFFCURVE",
"373 450 OFFCURVE",
"441 481 CURVE SMOOTH",
"515 516 OFFCURVE",
"653 533 OFFCURVE",
"732 533 CURVE",
"780 614 LINE",
"732 675 LINE",
"603 675 OFFCURVE",
"432 657 OFFCURVE",
"304 605 CURVE SMOOTH",
"174 549 OFFCURVE",
"92 449 OFFCURVE",
"92 307 CURVE SMOOTH",
"92 108 OFFCURVE",
"236 -16 OFFCURVE",
"436 -16 CURVE SMOOTH"
);
},
{
closed = 1;
nodes = (
"963 767 LINE SMOOTH",
"963 1065 OFFCURVE",
"806 1131 OFFCURVE",
"556 1131 CURVE SMOOTH",
"383 1131 OFFCURVE",
"186 1054 OFFCURVE",
"141 1026 CURVE",
"195 860 LINE",
"255 897 OFFCURVE",
"407 941 OFFCURVE",
"534 941 CURVE SMOOTH",
"661 941 OFFCURVE",
"732 911 OFFCURVE",
"732 780 CURVE SMOOTH",
"732 166 LINE",
"745 166 LINE",
"745 0 LINE",
"963 0 LINE"
);
}
);
width = 1118;
}
);
leftKerningGroup = a;
rightKerningGroup = a;
unicode = 0061;
},
{
glyphname = ae;
lastChange = "2019-04-06 02:48:40 +0000";
layers = (
{
anchors = (
{
name = bottom;
position = "{892, 0}";
},
{
name = top;
position = "{898, 1660}";
}
);
layerId = "8BC678DE-46B6-4C98-A96E-C0ED61786D32";
paths = (
{
closed = 1;
nodes = (
"1406 -16 OFFCURVE",
"1572 26 OFFCURVE",
"1646 86 CURVE",
"1614 182 LINE",
"1556 144 OFFCURVE",
"1408 108 OFFCURVE",
"1308 108 CURVE SMOOTH",
"1102 108 OFFCURVE",
"954 210 OFFCURVE",
"944 500 CURVE",
"934 866 OFFCURVE",
"1080 1012 OFFCURVE",
"1272 1012 CURVE SMOOTH",
"1474 1012 OFFCURVE",
"1540 854 OFFCURVE",
"1528 650 CURVE",
"896 650 LINE",
"882 540 LINE",
"1672 540 LINE",
"1682 586 OFFCURVE",
"1680 640 OFFCURVE",
"1680 710 CURVE",
"1674 964 OFFCURVE",
"1518 1132 OFFCURVE",
"1282 1128 CURVE SMOOTH",
"962 1126 OFFCURVE",
"782 886 OFFCURVE",
"782 552 CURVE SMOOTH",
"782 184 OFFCURVE",
"956 -16 OFFCURVE",
"1268 -16 CURVE SMOOTH"
);
},
{
closed = 1;
nodes = (
"108 100 OFFCURVE",
"252 -16 OFFCURVE",
"450 -16 CURVE SMOOTH",
"646 -16 OFFCURVE",
"798 84 OFFCURVE",
"890 212 CURVE",
"866 262 LINE",
"832 288 LINE",
"790 212 OFFCURVE",
"644 106 OFFCURVE",
"492 106 CURVE SMOOTH",
"332 106 OFFCURVE",
"272 192 OFFCURVE",
"272 306 CURVE SMOOTH",
"272 402 OFFCURVE",
"322 466 OFFCURVE",
"438 510 CURVE SMOOTH",
"524 546 OFFCURVE",
"668 562 OFFCURVE",
"782 562 CURVE",
"818 620 LINE",
"780 666 LINE",
"652 666 OFFCURVE",
"478 652 OFFCURVE",
"348 600 CURVE SMOOTH",
"198 542 OFFCURVE",
"108 440 OFFCURVE",
"108 294 CURVE SMOOTH"
);
},
{
closed = 1;
nodes = (
"262 952 OFFCURVE",
"422 1006 OFFCURVE",
"534 1006 CURVE SMOOTH",
"682 1006 OFFCURVE",
"780 980 OFFCURVE",
"780 782 CURVE SMOOTH",
"780 568 LINE",
"926 568 LINE",
"926 776 LINE SMOOTH",
"926 1064 OFFCURVE",
"792 1130 OFFCURVE",
"574 1130 CURVE SMOOTH",
"396 1130 OFFCURVE",
"198 1044 OFFCURVE",
"158 1018 CURVE",
"200 910 LINE"
);
}
);
width = 1784;
},
{
anchors = (
{
name = bottom;
position = "{918, 0}";
},
{
name = top;
position = "{916, 1660}";
}
);
layerId = "23A20576-2241-481A-AD5B-28E85381F753";
paths = (
{
closed = 1;
nodes = (
"1480 -16 OFFCURVE",
"1646 44 OFFCURVE",
"1718 104 CURVE",
"1664 300 LINE",
"1610 272 OFFCURVE",
"1474 244 OFFCURVE",
"1368 244 CURVE SMOOTH",
"1194 244 OFFCURVE",
"1092 316 OFFCURVE",
"1088 510 CURVE",
"1084 808 OFFCURVE",
"1154 896 OFFCURVE",
"1278 896 CURVE SMOOTH",
"1388 896 OFFCURVE",
"1428 814 OFFCURVE",
"1418 652 CURVE",
"938 652 LINE",
"918 476 LINE",
"1740 476 LINE",
"1746 524 OFFCURVE",
"1750 596 OFFCURVE",
"1750 676 CURVE",
"1748 1034 OFFCURVE",
"1522 1128 OFFCURVE",
"1286 1128 CURVE SMOOTH",
"934 1128 OFFCURVE",
"732 886 OFFCURVE",
"732 562 CURVE SMOOTH",
"732 200 OFFCURVE",
"926 -16 OFFCURVE",
"1284 -16 CURVE SMOOTH"
);
},
{
closed = 1;
nodes = (
"90 110 OFFCURVE",
"244 -16 OFFCURVE",
"452 -16 CURVE SMOOTH",
"608 -16 OFFCURVE",
"766 38 OFFCURVE",
"872 166 CURVE",
"856 250 LINE",
"784 300 LINE",
"750 246 OFFCURVE",
"668 208 OFFCURVE",
"598 208 CURVE SMOOTH",
"524 208 OFFCURVE",
"456 250 OFFCURVE",
"456 352 CURVE SMOOTH",
"456 438 OFFCURVE",
"504 464 OFFCURVE",
"546 482 CURVE SMOOTH",
"586 500 OFFCURVE",
"656 516 OFFCURVE",
"740 516 CURVE",
"786 626 LINE",
"734 690 LINE",
"602 690 OFFCURVE",
"424 676 OFFCURVE",
"296 620 CURVE SMOOTH",
"170 566 OFFCURVE",
"90 458 OFFCURVE",
"90 326 CURVE SMOOTH"
);
},
{
closed = 1;
nodes = (
"258 824 OFFCURVE",
"410 874 OFFCURVE",
"534 874 CURVE SMOOTH",
"670 874 OFFCURVE",
"734 840 OFFCURVE",
"734 750 CURVE SMOOTH",
"734 582 LINE",
"1050 584 LINE",
"1050 694 LINE SMOOTH",
"1050 1038 OFFCURVE",
"934 1132 OFFCURVE",
"632 1132 CURVE SMOOTH",
"372 1132 OFFCURVE",
"174 1034 OFFCURVE",
"132 1010 CURVE",
"208 794 LINE"
);
}
);
width = 1834;
},
{
anchors = (
{
name = bottom;
position = "{876, 0}";
},
{
name = top;
position = "{888, 1660}";
}
);
layerId = "247DB4A4-D150-4133-9396-DC38172DD635";
paths = (
{
closed = 1;
nodes = (
"1377 -16 OFFCURVE",
"1548 26 OFFCURVE",
"1620 86 CURVE",
"1578 219 LINE",
"1522 185 OFFCURVE",
"1371 159 OFFCURVE",
"1296 159 CURVE SMOOTH",
"1115 159 OFFCURVE",
"976 234 OFFCURVE",
"965 492 CURVE",
"954 850 OFFCURVE",
"1073 965 OFFCURVE",
"1229 965 CURVE SMOOTH",
"1413 965 OFFCURVE",
"1450 813 OFFCURVE",
"1440 652 CURVE",
"890 652 LINE",
"872 505 LINE",
"1644 505 LINE",
"1656 555 OFFCURVE",
"1656 623 OFFCURVE",
"1656 705 CURVE",
"1647 993 OFFCURVE",
"1464 1132 OFFCURVE",
"1240 1128 CURVE SMOOTH",
"912 1124 OFFCURVE",
"736 882 OFFCURVE",
"736 558 CURVE SMOOTH",
"736 184 OFFCURVE",
"916 -16 OFFCURVE",
"1236 -16 CURVE SMOOTH"
);
},
{
closed = 1;
nodes = (
"93 101 OFFCURVE",
"246 -16 OFFCURVE",
"443 -16 CURVE SMOOTH",
"609 -16 OFFCURVE",
"761 43 OFFCURVE",
"869 188 CURVE",
"838 252 LINE",
"792 290 LINE",
"748 212 OFFCURVE",
"614 152 OFFCURVE",
"506 152 CURVE SMOOTH",
"385 152 OFFCURVE",
"326 210 OFFCURVE",
"326 320 CURVE SMOOTH",
"326 408 OFFCURVE",
"376 450 OFFCURVE",
"444 481 CURVE SMOOTH",
"516 516 OFFCURVE",
"630 533 OFFCURVE",
"737 533 CURVE",
"781 614 LINE",
"734 675 LINE",
"592 675 OFFCURVE",
"434 657 OFFCURVE",
"308 604 CURVE SMOOTH",
"182 548 OFFCURVE",
"93 446 OFFCURVE",
"93 302 CURVE SMOOTH"
);
},
{
closed = 1;
nodes = (
"260 908 OFFCURVE",
"418 956 OFFCURVE",
"519 956 CURVE SMOOTH",
"666 956 OFFCURVE",
"734 930 OFFCURVE",
"734 778 CURVE SMOOTH",
"734 580 LINE",
"940 580 LINE",
"940 767 LINE SMOOTH",
"940 1065 OFFCURVE",
"808 1131 OFFCURVE",
"576 1131 CURVE SMOOTH",
"394 1131 OFFCURVE",
"191 1050 OFFCURVE",
"148 1026 CURVE",
"204 873 LINE"
);
}
);
width = 1750;
}
);
leftKerningGroup = a;
rightKerningGroup = e;
unicode = 00E6;
},
{
glyphname = b;
lastChange = "2019-04-06 02:56:25 +0000";
layers = (
{
anchors = (
{
name = bottom;
position = "{616, 0}";
},
{
name = btm;
position = "{638, -166}";
},
{
name = top;
position = "{744, 1660}";
}
);
layerId = "8BC678DE-46B6-4C98-A96E-C0ED61786D32";
paths = (
{
closed = 1;
nodes = (
"188 62 LINE",
"346 134 LINE",
"346 962 LINE",
"338 968 LINE",
"346 1158 LINE",
"346 1622 LINE",
"188 1622 LINE"
);
},
{
closed = 1;
nodes = (
"896 -16 OFFCURVE",
"1122 234 OFFCURVE",
"1122 598 CURVE SMOOTH",
"1122 954 OFFCURVE",
"926 1128 OFFCURVE",
"682 1128 CURVE SMOOTH",
"482 1128 OFFCURVE",
"370 1024 OFFCURVE",
"318 970 CURVE",
"344 886 LINE",
"400 936 OFFCURVE",
"514 1000 OFFCURVE",
"638 1000 CURVE SMOOTH",
"848 1000 OFFCURVE",
"958 852 OFFCURVE",
"956 576 CURVE SMOOTH",
"954 258 OFFCURVE",
"776 104 OFFCURVE",
"580 104 CURVE SMOOTH",
"476 104 OFFCURVE",
"384 124 OFFCURVE",
"346 152 CURVE",
"188 62 LINE",
"226 36 OFFCURVE",
"398 -16 OFFCURVE",
"562 -16 CURVE SMOOTH"
);
}
);
width = 1222;
},
{
anchors = (
{
name = bottom;
position = "{658, 0}";
},
{
name = btm;
position = "{760, -166}";
},
{
name = top;
position = "{852, 1662}";
}
);
layerId = "23A20576-2241-481A-AD5B-28E85381F753";
paths = (
{
closed = 1;
nodes = (
"140 62 LINE",
"496 170 LINE",
"496 966 LINE",
"486 972 LINE",
"496 1220 LINE",
"496 1622 LINE",
"140 1622 LINE"
);
},
{
closed = 1;
nodes = (
"1012 -20 OFFCURVE",
"1240 220 OFFCURVE",
"1240 598 CURVE SMOOTH",
"1240 958 OFFCURVE",
"1040 1128 OFFCURVE",
"802 1128 CURVE SMOOTH",
"604 1128 OFFCURVE",
"504 1038 OFFCURVE",
"458 988 CURVE",
"496 802 LINE",
"530 828 OFFCURVE",
"602 860 OFFCURVE",
"678 860 CURVE SMOOTH",
"788 860 OFFCURVE",
"866 796 OFFCURVE",
"866 576 CURVE SMOOTH",
"866 350 OFFCURVE",
"772 222 OFFCURVE",
"648 222 CURVE SMOOTH",
"570 222 OFFCURVE",
"516 232 OFFCURVE",
"496 256 CURVE",
"140 62 LINE",
"166 40 OFFCURVE",
"420 -20 OFFCURVE",
"654 -20 CURVE SMOOTH"
);
}
);
width = 1324;
},
{
anchors = (
{
name = bottom;
position = "{621, 0}";
},
{
name = btm;
position = "{653, -166}";
},
{
name = top;
position = "{751, 1660}";
}
);
layerId = "247DB4A4-D150-4133-9396-DC38172DD635";
paths = (
{
closed = 1;
nodes = (
"171 62 LINE",
"401 164 LINE",
"401 966 LINE",
"393 972 LINE",
"401 1168 LINE",
"401 1622 LINE",
"171 1622 LINE"
);
},
{
closed = 1;
nodes = (
"915 -18 OFFCURVE",
"1141 236 OFFCURVE",
"1141 598 CURVE SMOOTH",
"1141 958 OFFCURVE",
"937 1128 OFFCURVE",
"701 1128 CURVE SMOOTH",
"499 1128 OFFCURVE",
"411 1026 OFFCURVE",
"365 978 CURVE",
"401 864 LINE",
"449 900 OFFCURVE",
"533 950 OFFCURVE",
"637 950 CURVE SMOOTH",
"807 950 OFFCURVE",
"907 834 OFFCURVE",
"905 570 CURVE SMOOTH",
"901 296 OFFCURVE",
"771 148 OFFCURVE",
"599 148 CURVE SMOOTH",
"503 148 OFFCURVE",
"437 162 OFFCURVE",
"401 188 CURVE",
"171 62 LINE",
"211 36 OFFCURVE",
"413 -18 OFFCURVE",
"575 -18 CURVE SMOOTH"
);
}
);
width = 1233;
}
);
leftKerningGroup = b;
leftMetricsKey = h;
rightKerningGroup = o;
unicode = 0062;
},
{
glyphname = c;
lastChange = "2019-04-06 02:48:40 +0000";
layers = (
{
anchors = (
{
name = bottom;
position = "{494, 0}";
},
{
name = btm;
position = "{560, -166}";
},
{
name = top;
position = "{602, 1660}";
}
);
layerId = "8BC678DE-46B6-4C98-A96E-C0ED61786D32";
paths = (
{
closed = 1;
nodes = (
"104 222 OFFCURVE",
"278 -16 OFFCURVE",
"584 -16 CURVE SMOOTH",
"726 -16 OFFCURVE",
"854 26 OFFCURVE",
"924 90 CURVE",
"890 184 LINE",
"842 154 OFFCURVE",
"738 108 OFFCURVE",
"610 108 CURVE SMOOTH",
"420 108 OFFCURVE",
"254 260 OFFCURVE",
"262 572 CURVE SMOOTH",
"270 864 OFFCURVE",
"438 1002 OFFCURVE",
"620 1002 CURVE SMOOTH",
"724 1002 OFFCURVE",
"816 982 OFFCURVE",
"872 942 CURVE",
"900 1072 LINE",
"860 1098 OFFCURVE",
"760 1128 OFFCURVE",
"628 1128 CURVE SMOOTH",
"290 1128 OFFCURVE",
"102 876 OFFCURVE",
"104 540 CURVE SMOOTH"
);
}
);
width = 996;
},
{
anchors = (
{
name = bottom;
position = "{496, 0}";
},
{
name = btm;
position = "{576, -166}";
},
{
name = top;
position = "{596, 1662}";
}
);
layerId = "23A20576-2241-481A-AD5B-28E85381F753";
paths = (
{
closed = 1;
nodes = (
"68 224 OFFCURVE",
"238 -16 OFFCURVE",
"606 -16 CURVE SMOOTH",
"750 -16 OFFCURVE",
"896 10 OFFCURVE",
"958 74 CURVE",
"912 302 LINE",
"864 280 OFFCURVE",
"778 262 OFFCURVE",
"684 262 CURVE SMOOTH",
"544 262 OFFCURVE",
"430 342 OFFCURVE",
"434 572 CURVE SMOOTH",
"438 782 OFFCURVE",
"566 848 OFFCURVE",
"682 848 CURVE SMOOTH",
"788 848 OFFCURVE",
"856 826 OFFCURVE",
"900 802 CURVE",
"940 1074 LINE",
"904 1100 OFFCURVE",
"782 1128 OFFCURVE",
"632 1128 CURVE SMOOTH",
"242 1128 OFFCURVE",
"68 872 OFFCURVE",
"68 546 CURVE SMOOTH"
);
}
);
width = 1008;
},
{
anchors = (
{
name = bottom;
position = "{480, 0}";
},
{
name = btm;
position = "{546, -166}";
},
{
name = top;
position = "{588, 1660}";
}
);
layerId = "247DB4A4-D150-4133-9396-DC38172DD635";
paths = (
{
closed = 1;
nodes = (
"80 226 OFFCURVE",
"256 -16 OFFCURVE",
"574 -16 CURVE SMOOTH",
"714 -16 OFFCURVE",
"848 26 OFFCURVE",
"916 90 CURVE",
"872 224 LINE",
"824 194 OFFCURVE",
"722 160 OFFCURVE",
"612 160 CURVE SMOOTH",
"436 160 OFFCURVE",
"296 308 OFFCURVE",
"304 584 CURVE SMOOTH",
"314 846 OFFCURVE",
"468 948 OFFCURVE",
"618 948 CURVE SMOOTH",
"730 948 OFFCURVE",
"806 928 OFFCURVE",
"862 890 CURVE",
"898 1072 LINE",
"862 1096 OFFCURVE",
"760 1128 OFFCURVE",
"620 1128 CURVE SMOOTH",
"260 1128 OFFCURVE",
"80 874 OFFCURVE",
"80 544 CURVE SMOOTH"
);
}
);
width = 976;
}
);
leftKerningGroup = o;
rightKerningGroup = c;
unicode = 0063;
},
{
glyphname = d;
lastChange = "2019-04-06 02:48:40 +0000";
layers = (
{
anchors = (
{
name = bottom;
position = "{606, 0}";
},
{
name = btm;
position = "{598, -166}";
},
{
name = center;
position = "{606, 558}";
},
{
name = top;
position = "{368, 1660}";
},
{
name = topright;
position = "{1170, 1114}";
}
);
layerId = "8BC678DE-46B6-4C98-A96E-C0ED61786D32";
paths = (
{
closed = 1;
nodes = (
"1034 0 LINE",
"1034 1626 LINE",
"876 1626 LINE",
"876 1158 LINE",
"882 982 LINE",
"876 978 LINE",
"876 158 LINE",
"884 154 LINE",
"884 0 LINE"
);
},
{
closed = 1;
nodes = (
"746 -16 OFFCURVE",
"856 94 OFFCURVE",
"904 142 CURVE",
"878 226 LINE",
"824 180 OFFCURVE",
"714 112 OFFCURVE",
"584 112 CURVE SMOOTH",
"384 112 OFFCURVE",
"262 252 OFFCURVE",
"266 542 CURVE SMOOTH",
"270 840 OFFCURVE",
"430 1010 OFFCURVE",
"642 1010 CURVE SMOOTH",
"764 1010 OFFCURVE",
"842 986 OFFCURVE",
"878 954 CURVE",
"938 1060 LINE",
"914 1084 OFFCURVE",
"802 1128 OFFCURVE",
"658 1128 CURVE SMOOTH",
"322 1128 OFFCURVE",
"100 876 OFFCURVE",
"100 520 CURVE SMOOTH",
"100 144 OFFCURVE",
"312 -16 OFFCURVE",
"540 -16 CURVE SMOOTH"
);
}
);
width = 1210;
},
{
anchors = (
{
name = bottom;
position = "{670, 0}";
},
{
name = btm;
position = "{656, -166}";
},
{
name = center;
position = "{670, 558}";
},
{
name = top;
position = "{432, 1662}";
},
{
name = topright;
position = "{1304, 1114}";
}
);
layerId = "23A20576-2241-481A-AD5B-28E85381F753";
paths = (
{
closed = 1;
nodes = (
"1188 0 LINE",
"1188 1624 LINE",
"832 1624 LINE",
"832 1220 LINE",
"840 892 LINE",
"832 884 LINE",
"832 154 LINE",
"862 132 LINE",
"862 0 LINE"
);
},
{
closed = 1;
nodes = (
"718 -16 OFFCURVE",
"824 76 OFFCURVE",
"870 126 CURVE",
"834 308 LINE",
"794 280 OFFCURVE",
"714 254 OFFCURVE",
"644 254 CURVE SMOOTH",
"530 254 OFFCURVE",
"456 328 OFFCURVE",
"458 536 CURVE SMOOTH",
"458 766 OFFCURVE",
"548 878 OFFCURVE",
"674 878 CURVE SMOOTH",
"742 878 OFFCURVE",
"804 870 OFFCURVE",
"834 846 CURVE",
"896 1074 LINE",
"872 1092 OFFCURVE",
"784 1128 OFFCURVE",
"646 1128 CURVE SMOOTH",
"306 1128 OFFCURVE",
"84 896 OFFCURVE",
"84 518 CURVE SMOOTH",
"84 158 OFFCURVE",
"284 -16 OFFCURVE",
"520 -16 CURVE SMOOTH"
);
}
);
width = 1344;
},
{
anchors = (
{
name = bottom;
position = "{612, 0}";
},
{
name = btm;
position = "{599, -166}";
},
{
name = center;
position = "{612, 558}";
},
{
name = top;
position = "{361, 1660}";
},
{
name = topright;
position = "{1184, 1114}";
}
);
layerId = "247DB4A4-D150-4133-9396-DC38172DD635";
paths = (
{
closed = 1;
nodes = (
"1062 0 LINE",
"1062 1626 LINE",
"832 1626 LINE",
"832 1168 LINE",
"840 948 LINE",
"832 942 LINE",
"832 154 LINE",
"844 148 LINE",
"844 0 LINE"
);
},
{
closed = 1;
nodes = (
"735 -16 OFFCURVE",
"822 87 OFFCURVE",
"870 137 CURVE",
"832 251 LINE",
"786 215 OFFCURVE",
"701 166 OFFCURVE",
"597 166 CURVE SMOOTH",
"426 166 OFFCURVE",
"326 282 OFFCURVE",
"330 544 CURVE SMOOTH",
"332 818 OFFCURVE",
"465 961 OFFCURVE",
"635 961 CURVE SMOOTH",
"726 961 OFFCURVE",
"792 949 OFFCURVE",
"832 915 CURVE",
"914 1062 LINE",
"888 1084 OFFCURVE",
"789 1128 OFFCURVE",
"652 1128 CURVE SMOOTH",
"315 1128 OFFCURVE",
"92 878 OFFCURVE",
"92 517 CURVE SMOOTH",
"92 155 OFFCURVE",
"299 -16 OFFCURVE",
"533 -16 CURVE SMOOTH"
);
}
);
width = 1224;
}
);
leftKerningGroup = d;
rightKerningGroup = d;
unicode = 0064;
},
{
glyphname = eth;
lastChange = "2019-04-06 02:48:40 +0000";
layers = (
{
layerId = "8BC678DE-46B6-4C98-A96E-C0ED61786D32";
paths = (
{
closed = 1;
nodes = (
"888 -22 OFFCURVE",
"1090 178 OFFCURVE",
"1090 598 CURVE SMOOTH",
"1090 992 OFFCURVE",
"928 1320 OFFCURVE",
"646 1530 CURVE SMOOTH",
"634 1540 OFFCURVE",
"620 1550 OFFCURVE",
"606 1560 CURVE SMOOTH",
"522 1618 OFFCURVE",
"400 1680 OFFCURVE",
"278 1718 CURVE",
"240 1624 LINE",
"324 1596 OFFCURVE",
"430 1540 OFFCURVE",
"510 1484 CURVE SMOOTH",
"522 1476 OFFCURVE",
"536 1466 OFFCURVE",
"546 1458 CURVE SMOOTH",
"724 1324 OFFCURVE",
"860 1118 OFFCURVE",
"896 882 CURVE",
"954 860 LINE",
"910 1016 OFFCURVE",
"772 1126 OFFCURVE",
"606 1128 CURVE SMOOTH",
"314 1128 OFFCURVE",
"106 914 OFFCURVE",
"106 544 CURVE SMOOTH",
"106 190 OFFCURVE",
"302 -32 OFFCURVE",
"602 -26 CURVE SMOOTH"
);
},
{
closed = 1;
nodes = (
"410 86 OFFCURVE",
"268 252 OFFCURVE",
"268 550 CURVE SMOOTH",
"268 826 OFFCURVE",
"394 1006 OFFCURVE",
"612 1006 CURVE SMOOTH",
"780 1006 OFFCURVE",
"890 926 OFFCURVE",
"918 832 CURVE",
"928 736 OFFCURVE",
"926 640 OFFCURVE",
"926 560 CURVE SMOOTH",
"926 236 OFFCURVE",
"774 86 OFFCURVE",
"608 86 CURVE SMOOTH"
);
},
{
closed = 1;
nodes = (
"580 1472 LINE",
"598 1498 LINE",
"640 1534 OFFCURVE",
"770 1684 OFFCURVE",
"770 1684 CURVE",
"682 1750 LINE",
"682 1750 OFFCURVE",
"554 1594 OFFCURVE",
"518 1562 CURVE",
"498 1540 LINE",
"334 1360 LINE",
"420 1292 LINE"
);
}
);
width = 1178;
},
{
layerId = "23A20576-2241-481A-AD5B-28E85381F753";
paths = (
{
closed = 1;
nodes = (
"956 -26 OFFCURVE",
"1224 174 OFFCURVE",
"1224 650 CURVE SMOOTH",
"1224 1038 OFFCURVE",
"1004 1422 OFFCURVE",
"656 1606 CURVE SMOOTH",
"638 1616 OFFCURVE",
"588 1640 OFFCURVE",
"570 1650 CURVE SMOOTH",
"472 1706 OFFCURVE",
"396 1730 OFFCURVE",
"270 1766 CURVE",
"212 1580 LINE",
"296 1554 OFFCURVE",
"378 1508 OFFCURVE",
"446 1462 CURVE SMOOTH",
"462 1452 OFFCURVE",
"498 1424 OFFCURVE",
"512 1416 CURVE SMOOTH",
"664 1314 OFFCURVE",
"782 1172 OFFCURVE",
"818 998 CURVE",
"902 968 LINE",
"872 1038 OFFCURVE",
"778 1122 OFFCURVE",
"602 1122 CURVE SMOOTH",
"270 1122 OFFCURVE",
"82 872 OFFCURVE",
"82 538 CURVE SMOOTH",
"82 204 OFFCURVE",
"302 -26 OFFCURVE",
"648 -26 CURVE SMOOTH"
);
},
{
closed = 1;
nodes = (
"542 224 OFFCURVE",
"462 316 OFFCURVE",
"462 524 CURVE SMOOTH",
"462 766 OFFCURVE",
"540 890 OFFCURVE",
"662 890 CURVE SMOOTH",
"748 890 OFFCURVE",
"822 846 OFFCURVE",
"850 802 CURVE",
"854 752 OFFCURVE",
"854 632 OFFCURVE",
"854 578 CURVE SMOOTH",
"854 332 OFFCURVE",
"758 224 OFFCURVE",
"652 224 CURVE SMOOTH"
);
},
{
closed = 1;
nodes = (
"626 1452 LINE",
"650 1488 LINE",
"700 1538 OFFCURVE",
"836 1720 OFFCURVE",
"836 1720 CURVE",
"672 1834 LINE",
"672 1834 OFFCURVE",
"528 1626 OFFCURVE",
"486 1582 CURVE",
"464 1550 LINE",
"292 1328 LINE",
"452 1216 LINE"
);
}
);
width = 1290;
},
{
layerId = "247DB4A4-D150-4133-9396-DC38172DD635";
paths = (
{
closed = 1;
nodes = (
"900 -22 OFFCURVE",
"1105 184 OFFCURVE",
"1105 601 CURVE SMOOTH",
"1105 993 OFFCURVE",
"943 1330 OFFCURVE",
"659 1535 CURVE SMOOTH",
"643 1547 OFFCURVE",
"618 1564 OFFCURVE",
"600 1576 CURVE SMOOTH",
"502 1641 OFFCURVE",
"394 1693 OFFCURVE",
"268 1733 CURVE",
"216 1602 LINE",
"307 1571 OFFCURVE",
"394 1523 OFFCURVE",
"474 1466 CURVE SMOOTH",
"489 1456 OFFCURVE",
"504 1443 OFFCURVE",
"520 1432 CURVE SMOOTH",
"680 1310 OFFCURVE",
"804 1131 OFFCURVE",
"834 919 CURVE",
"915 875 LINE",
"885 1002 OFFCURVE",
"776 1125 OFFCURVE",
"595 1125 CURVE SMOOTH",
"292 1127 OFFCURVE",
"92 904 OFFCURVE",
"92 540 CURVE SMOOTH",
"92 194 OFFCURVE",
"291 -30 OFFCURVE",
"600 -26 CURVE SMOOTH"
);
},
{
closed = 1;
nodes = (
"421 136 OFFCURVE",
"324 304 OFFCURVE",
"324 546 CURVE SMOOTH",
"324 789 OFFCURVE",
"417 956 OFFCURVE",
"608 956 CURVE SMOOTH",
"772 956 OFFCURVE",
"852 883 OFFCURVE",
"869 824 CURVE",
"877 728 OFFCURVE",
"874 640 OFFCURVE",
"874 545 CURVE SMOOTH",
"874 293 OFFCURVE",
"769 136 OFFCURVE",
"609 136 CURVE SMOOTH"
);
},
{
closed = 1;
nodes = (
"574 1452 LINE",
"598 1486 LINE",
"655 1535 OFFCURVE",
"780 1685 OFFCURVE",
"780 1685 CURVE",
"660 1775 LINE",
"660 1775 OFFCURVE",
"534 1615 OFFCURVE",
"487 1572 CURVE",
"461 1542 LINE",
"296 1358 LINE",
"415 1268 LINE"
);
}
);
width = 1180;
}
);
leftKerningGroup = o;
rightKerningGroup = eth;
unicode = 00F0;
},
{
glyphname = dcroat;
lastChange = "2019-04-06 02:48:40 +0000";
layers = (
{
components = (
{
name = d;
}
);
layerId = "8BC678DE-46B6-4C98-A96E-C0ED61786D32";
paths = (
{
closed = 1;
nodes = (
"1186 1294 LINE",
"1186 1400 LINE",
"584 1400 LINE",
"584 1294 LINE"
);
}
);
width = 1210;
},
{
components = (
{
name = d;
}
);
layerId = "23A20576-2241-481A-AD5B-28E85381F753";
paths = (
{
closed = 1;
nodes = (
"1318 1262 LINE",
"1318 1458 LINE",
"620 1458 LINE",
"620 1262 LINE"
);
}
);
width = 1348;
},
{
components = (
{
alignment = -1;
name = d;
}
);
layerId = "247DB4A4-D150-4133-9396-DC38172DD635";
paths = (
{
closed = 1;
nodes = (
"1199 1274 LINE",
"1199 1418 LINE",
"577 1418 LINE",
"577 1274 LINE"
);
}
);
width = 1226;
}
);
leftKerningGroup = d;
rightKerningGroup = d;
unicode = 0111;
},
{
glyphname = e;
lastChange = "2019-04-06 02:48:40 +0000";
layers = (
{
anchors = (
{
name = bottom;
position = "{556, 0}";
},
{
name = btm;
position = "{596, -166}";
},
{
name = ogonek;
position = "{808, 50}";
},
{
name = top;
position = "{592, 1660}";
}
);
layerId = "8BC678DE-46B6-4C98-A96E-C0ED61786D32";
paths = (
{
closed = 1;
nodes = (
"728 -16 OFFCURVE",
"894 26 OFFCURVE",
"966 86 CURVE",
"932 192 LINE",
"874 154 OFFCURVE",
"734 108 OFFCURVE",
"632 108 CURVE SMOOTH",
"426 108 OFFCURVE",
"276 214 OFFCURVE",
"266 500 CURVE SMOOTH",
"256 866 OFFCURVE",
"402 1012 OFFCURVE",
"594 1012 CURVE SMOOTH",
"796 1012 OFFCURVE",
"862 854 OFFCURVE",
"850 650 CURVE",
"218 650 LINE",
"204 540 LINE",
"996 540 LINE",
"1004 586 OFFCURVE",
"1004 640 OFFCURVE",
"1004 710 CURVE SMOOTH",
"998 964 OFFCURVE",
"840 1132 OFFCURVE",
"604 1128 CURVE SMOOTH",
"284 1126 OFFCURVE",
"106 886 OFFCURVE",
"106 552 CURVE SMOOTH",
"106 196 OFFCURVE",
"278 -16 OFFCURVE",
"590 -16 CURVE SMOOTH"
);
}
);
width = 1110;
},
{
anchors = (
{
name = bottom;
position = "{596, 0}";
},
{
name = btm;
position = "{636, -166}";
},
{
name = ogonek;
position = "{804, 50}";
},
{
name = top;
position = "{638, 1662}";
}
);
layerId = "23A20576-2241-481A-AD5B-28E85381F753";
paths = (
{
closed = 1;
nodes = (
"836 -16 OFFCURVE",
"1004 44 OFFCURVE",
"1078 104 CURVE",
"1022 296 LINE",
"968 268 OFFCURVE",
"830 240 OFFCURVE",
"722 240 CURVE SMOOTH",
"548 240 OFFCURVE",
"446 316 OFFCURVE",
"442 510 CURVE SMOOTH",
"438 808 OFFCURVE",
"508 896 OFFCURVE",
"634 896 CURVE SMOOTH",
"744 896 OFFCURVE",
"784 814 OFFCURVE",
"774 652 CURVE",
"290 652 LINE",
"270 472 LINE",
"1098 472 LINE",
"1104 520 OFFCURVE",
"1110 596 OFFCURVE",
"1110 676 CURVE SMOOTH",
"1106 1034 OFFCURVE",
"878 1128 OFFCURVE",
"642 1128 CURVE SMOOTH",
"288 1128 OFFCURVE",
"84 886 OFFCURVE",
"84 562 CURVE SMOOTH",
"84 200 OFFCURVE",
"278 -16 OFFCURVE",
"638 -16 CURVE SMOOTH"
);
}
);
width = 1192;
},
{
anchors = (
{
name = bottom;
position = "{558, 0}";
},
{
name = btm;
position = "{600, -166}";
},
{
name = ogonek;
position = "{808, 50}";
},
{
name = top;
position = "{594, 1660}";
}
);
layerId = "247DB4A4-D150-4133-9396-DC38172DD635";
paths = (
{
closed = 1;
nodes = (
"738 -16 OFFCURVE",
"906 26 OFFCURVE",
"980 86 CURVE",
"936 218 LINE",
"882 186 OFFCURVE",
"734 158 OFFCURVE",
"658 158 CURVE SMOOTH",
"478 158 OFFCURVE",
"338 240 OFFCURVE",
"326 492 CURVE SMOOTH",
"314 850 OFFCURVE",
"434 964 OFFCURVE",
"590 964 CURVE SMOOTH",
"776 964 OFFCURVE",
"812 812 OFFCURVE",
"802 652 CURVE",
"252 652 LINE",
"232 506 LINE",
"1008 506 LINE",
"1018 556 OFFCURVE",
"1018 622 OFFCURVE",
"1018 706 CURVE SMOOTH",
"1010 992 OFFCURVE",
"826 1132 OFFCURVE",
"602 1128 CURVE SMOOTH",
"274 1124 OFFCURVE",
"98 882 OFFCURVE",
"98 558 CURVE SMOOTH",
"98 198 OFFCURVE",
"278 -16 OFFCURVE",
"598 -16 CURVE SMOOTH"
);
}
);
width = 1116;
}
);
leftKerningGroup = o;
rightKerningGroup = e;
unicode = 0065;
},
{
glyphname = schwa;
lastChange = "2019-04-06 02:48:40 +0000";
layers = (
{
anchors = (
{
name = bottom;
position = "{513, -546}";
},
{
name = btm;
position = "{516, -166}";
},
{
name = top;
position = "{518, 1662}";
}
);
layerId = "8BC678DE-46B6-4C98-A96E-C0ED61786D32";
paths = (
{
closed = 1;
nodes = (
"378 1130 OFFCURVE",
"212 1088 OFFCURVE",
"140 1028 CURVE",
"170 932 LINE",
"228 970 OFFCURVE",
"372 1006 OFFCURVE",
"474 1006 CURVE SMOOTH",
"680 1006 OFFCURVE",
"830 900 OFFCURVE",
"840 614 CURVE SMOOTH",
"850 248 OFFCURVE",
"704 102 OFFCURVE",
"512 102 CURVE SMOOTH",
"310 102 OFFCURVE",
"244 260 OFFCURVE",
"256 464 CURVE",
"888 464 LINE",
"902 574 LINE",
"110 574 LINE",
"102 528 OFFCURVE",
"102 474 OFFCURVE",
"102 404 CURVE SMOOTH",
"108 150 OFFCURVE",
"266 -18 OFFCURVE",
"502 -14 CURVE SMOOTH",
"822 -12 OFFCURVE",
"1000 228 OFFCURVE",
"1000 562 CURVE SMOOTH",
"1000 918 OFFCURVE",
"828 1130 OFFCURVE",
"516 1130 CURVE SMOOTH"
);
}
);
width = 1102;
},
{
anchors = (
{
name = bottom;
position = "{554, -547}";
},
{
name = btm;
position = "{558, -166}";
},
{
name = top;
position = "{560, 1662}";
}
);
layerId = "23A20576-2241-481A-AD5B-28E85381F753";
paths = (
{
closed = 1;
nodes = (
"356 1130 OFFCURVE",
"188 1070 OFFCURVE",
"114 1010 CURVE",
"170 818 LINE",
"224 846 OFFCURVE",
"362 874 OFFCURVE",
"470 874 CURVE SMOOTH",
"644 874 OFFCURVE",
"746 798 OFFCURVE",
"750 604 CURVE SMOOTH",
"754 306 OFFCURVE",
"684 218 OFFCURVE",
"558 218 CURVE SMOOTH",
"448 218 OFFCURVE",
"408 300 OFFCURVE",
"418 462 CURVE",
"902 462 LINE",
"922 642 LINE",
"94 642 LINE",
"88 594 OFFCURVE",
"82 518 OFFCURVE",
"82 438 CURVE SMOOTH",
"86 80 OFFCURVE",
"314 -14 OFFCURVE",
"550 -14 CURVE SMOOTH",
"904 -14 OFFCURVE",
"1108 228 OFFCURVE",
"1108 552 CURVE SMOOTH",
"1108 914 OFFCURVE",
"914 1130 OFFCURVE",
"554 1130 CURVE SMOOTH"
);
}
);
width = 1192;
},
{
anchors = (
{
name = bottom;
position = "{518, -546}";
},
{
name = btm;
position = "{514, -166}";
},
{
name = top;
position = "{516, 1662}";
}
);
layerId = "247DB4A4-D150-4133-9396-DC38172DD635";
paths = (
{
closed = 1;
nodes = (
"373 1130 OFFCURVE",
"206 1088 OFFCURVE",
"132 1028 CURVE",
"175 895 LINE",
"230 929 OFFCURVE",
"378 957 OFFCURVE",
"453 957 CURVE SMOOTH",
"634 957 OFFCURVE",
"774 873 OFFCURVE",
"785 622 CURVE SMOOTH",
"798 264 OFFCURVE",
"677 149 OFFCURVE",
"521 149 CURVE SMOOTH",
"336 149 OFFCURVE",
"301 301 OFFCURVE",
"311 462 CURVE",
"860 462 LINE",
"880 609 LINE",
"104 609 LINE",
"95 559 OFFCURVE",
"94 491 OFFCURVE",
"94 409 CURVE SMOOTH",
"101 121 OFFCURVE",
"286 -18 OFFCURVE",
"510 -14 CURVE SMOOTH",
"839 -10 OFFCURVE",
"1014 232 OFFCURVE",
"1014 556 CURVE SMOOTH",
"1014 916 OFFCURVE",
"835 1130 OFFCURVE",
"514 1130 CURVE SMOOTH"
);
}
);
width = 1108;
}
);
leftKerningGroup = schwa;
rightKerningGroup = schwa;
unicode = 0259;
},
{
glyphname = ezh;
lastChange = "2019-04-06 02:48:40 +0000";
layers = (
{
anchors = (
{
name = bottom;
position = "{484, 0}";
},
{
name = top;
position = "{432, 1662}";
}
);
layerId = "23A20576-2241-481A-AD5B-28E85381F753";
paths = (
{
closed = 1;
nodes = (
"730 -300 OFFCURVE",
"910 -64 OFFCURVE",
"910 182 CURVE SMOOTH",
"910 352 OFFCURVE",
"794 512 OFFCURVE",
"562 532 CURVE",
"944 980 LINE",
"868 1114 LINE",
"70 1114 LINE",
"70 852 LINE",
"534 852 LINE",
"416 736 LINE",
"188 496 LINE",
"334 326 LINE",
"454 356 OFFCURVE",
"590 292 OFFCURVE",
"590 178 CURVE SMOOTH",
"590 66 OFFCURVE",
"526 -26 OFFCURVE",
"234 -26 CURVE SMOOTH",
"188 -26 OFFCURVE",
"138 -24 OFFCURVE",
"88 -6 CURVE",
"86 -286 LINE",
"146 -290 OFFCURVE",
"206 -300 OFFCURVE",
"268 -300 CURVE SMOOTH"
);
}
);
width = 1004;
},
{
anchors = (
{
name = bottom;
position = "{474, 0}";
},
{
name = top;
position = "{452, 1662}";
}
);
layerId = "8BC678DE-46B6-4C98-A96E-C0ED61786D32";
paths = (
{
closed = 1;
nodes = (
"692 -294 OFFCURVE",
"874 -96 OFFCURVE",
"874 170 CURVE SMOOTH",
"874 378 OFFCURVE",
"688 518 OFFCURVE",
"450 524 CURVE",
"856 1032 LINE",
"810 1114 LINE",
"110 1114 LINE",
"110 978 LINE",
"656 978 LINE",
"578 904 LINE",
"264 504 LINE",
"360 430 LINE",
"548 432 OFFCURVE",
"710 342 OFFCURVE",
"710 148 CURVE SMOOTH",
"710 -50 OFFCURVE",
"580 -178 OFFCURVE",
"308 -178 CURVE SMOOTH",
"242 -178 OFFCURVE",
"168 -178 OFFCURVE",
"110 -168 CURVE",
"112 -286 LINE",
"178 -288 OFFCURVE",
"266 -294 OFFCURVE",
"336 -294 CURVE SMOOTH"
);
}
);
width = 964;
},
{
anchors = (
{
name = bottom;
position = "{476, 0}";
},
{
name = top;
position = "{454, 1662}";
}
);
layerId = "247DB4A4-D150-4133-9396-DC38172DD635";
paths = (
{
closed = 1;
nodes = (
"652 -294 OFFCURVE",
"858 -98 OFFCURVE",
"858 164 CURVE SMOOTH",
"858 364 OFFCURVE",
"676 488 OFFCURVE",
"466 512 CURVE",
"854 1000 LINE",
"780 1114 LINE",
"96 1114 LINE",
"96 940 LINE",
"578 940 LINE",
"478 836 LINE",
"198 480 LINE",
"324 368 LINE",
"490 368 OFFCURVE",
"626 320 OFFCURVE",
"626 142 CURVE SMOOTH",
"626 -16 OFFCURVE",
"486 -134 OFFCURVE",
"264 -128 CURVE SMOOTH",
"198 -126 OFFCURVE",
"154 -120 OFFCURVE",
"96 -110 CURVE",
"98 -286 LINE",
"164 -288 OFFCURVE",
"230 -294 OFFCURVE",
"300 -294 CURVE SMOOTH"
);
}
);
width = 946;
}
);
leftKerningGroup = ezh;
rightKerningGroup = ezh;
unicode = 0292;
},
{
glyphname = f;
lastChange = "2019-04-06 02:48:40 +0000";
layers = (
{
anchors = (
{
name = bottom;
position = "{392, 0}";
},
{
name = btm;
position = "{376, -166}";
},
{
name = top;
position = "{318, 2030}";
}
);
layerId = "8BC678DE-46B6-4C98-A96E-C0ED61786D32";
paths = (
{
closed = 1;
nodes = (
"428 0 LINE",
"428 990 LINE",
"724 990 LINE",
"724 1114 LINE",
"428 1114 LINE",
"428 1238 LINE SMOOTH",
"428 1418 OFFCURVE",
"508 1512 OFFCURVE",
"626 1512 CURVE SMOOTH",
"704 1512 OFFCURVE",
"746 1504 OFFCURVE",
"782 1492 CURVE",
"782 1622 LINE",
"760 1630 OFFCURVE",
"708 1642 OFFCURVE",
"648 1642 CURVE SMOOTH",
"470 1642 OFFCURVE",
"266 1534 OFFCURVE",
"266 1204 CURVE SMOOTH",
"266 1114 LINE",
"74 1080 LINE",
"74 990 LINE",
"266 990 LINE",
"266 0 LINE"
);
}
);
width = 782;
},
{
anchors = (
{
name = bottom;
position = "{430, 0}";
},
{
name = btm;
position = "{410, -166}";
},
{
name = top;
position = "{304, 2064}";
}
);
layerId = "23A20576-2241-481A-AD5B-28E85381F753";
paths = (
{
closed = 1;
nodes = (
"580 0 LINE",
"580 876 LINE",
"822 876 LINE",
"822 1114 LINE",
"580 1114 LINE",
"580 1214 LINE SMOOTH",
"580 1344 OFFCURVE",
"636 1398 OFFCURVE",
"720 1398 CURVE SMOOTH",
"790 1398 OFFCURVE",
"838 1386 OFFCURVE",
"864 1374 CURVE",
"864 1622 LINE",
"838 1628 OFFCURVE",
"762 1644 OFFCURVE",
"648 1644 CURVE SMOOTH",
"444 1644 OFFCURVE",
"216 1548 OFFCURVE",
"216 1228 CURVE SMOOTH",
"216 1114 LINE",
"78 1086 LINE",
"78 876 LINE",
"216 876 LINE",
"216 0 LINE"
);
}
);
width = 860;
},
{
anchors = (
{
name = bottom;
position = "{400, 0}";
},
{
name = btm;
position = "{380, -166}";
},
{
name = top;
position = "{284, 2036}";
}
);
layerId = "247DB4A4-D150-4133-9396-DC38172DD635";
paths = (
{
closed = 1;
nodes = (
"472 0 LINE",
"472 943 LINE",
"743 943 LINE",
"743 1114 LINE",
"472 1114 LINE",
"472 1252 LINE SMOOTH",
"472 1393 OFFCURVE",
"538 1463 OFFCURVE",
"630 1463 CURVE SMOOTH",
"715 1463 OFFCURVE",
"756 1456 OFFCURVE",
"795 1444 CURVE",
"795 1622 LINE",
"774 1628 OFFCURVE",
"711 1642 OFFCURVE",
"646 1642 CURVE SMOOTH",
"464 1642 OFFCURVE",
"240 1543 OFFCURVE",
"240 1212 CURVE SMOOTH",
"240 1114 LINE",
"75 1072 LINE",
"75 943 LINE",
"240 943 LINE",
"240 0 LINE"
);
}
);
width = 800;
}
);
leftKerningGroup = f;
rightKerningGroup = f;
unicode = 0066;
},
{
glyphname = g;
lastChange = "2019-04-06 02:48:40 +0000";
layers = (
{
anchors = (
{
name = bottom;
position = "{598, -546}";
},
{
name = top;
position = "{556, 1660}";
}
);
layerId = "8BC678DE-46B6-4C98-A96E-C0ED61786D32";
paths = (
{
closed = 1;
nodes = (
"866 -504 OFFCURVE",
"1106 -368 OFFCURVE",
"1106 -148 CURVE SMOOTH",
"1106 -8 OFFCURVE",
"1042 128 OFFCURVE",
"724 128 CURVE SMOOTH",
"482 128 LINE SMOOTH",
"364 128 OFFCURVE",
"322 158 OFFCURVE",
"322 252 CURVE SMOOTH",
"322 320 OFFCURVE",
"392 386 OFFCURVE",
"436 406 CURVE",
"332 436 LINE",
"248 378 OFFCURVE",
"174 290 OFFCURVE",
"174 212 CURVE SMOOTH",
"174 140 OFFCURVE",
"190 64 OFFCURVE",
"288 32 CURVE SMOOTH",
"300 28 OFFCURVE",
"312 18 OFFCURVE",
"324 16 CURVE SMOOTH",
"368 8 OFFCURVE",
"428 0 OFFCURVE",
"506 0 CURVE SMOOTH",
"656 0 LINE SMOOTH",
"876 0 OFFCURVE",
"950 -54 OFFCURVE",
"950 -182 CURVE SMOOTH",
"950 -326 OFFCURVE",
"766 -392 OFFCURVE",
"574 -392 CURVE SMOOTH",
"362 -392 OFFCURVE",
"262 -326 OFFCURVE",
"262 -170 CURVE SMOOTH",
"262 -54 OFFCURVE",
"342 6 OFFCURVE",
"390 40 CURVE",
"280 56 LINE",
"210 26 OFFCURVE",
"102 -64 OFFCURVE",
"102 -190 CURVE SMOOTH",
"102 -412 OFFCURVE",
"286 -504 OFFCURVE",
"568 -504 CURVE SMOOTH"
);
},
{
closed = 1;
nodes = (
"808 372 OFFCURVE",
"1004 508 OFFCURVE",
"1004 760 CURVE SMOOTH",
"1004 1016 OFFCURVE",
"802 1134 OFFCURVE",
"570 1128 CURVE SMOOTH",
"332 1124 OFFCURVE",
"138 1004 OFFCURVE",
"138 740 CURVE SMOOTH",
"138 516 OFFCURVE",
"324 372 OFFCURVE",
"564 372 CURVE SMOOTH"
);
},
{
closed = 1;
nodes = (
"392 480 OFFCURVE",
"300 596 OFFCURVE",
"300 748 CURVE SMOOTH",
"300 956 OFFCURVE",
"434 1016 OFFCURVE",
"578 1018 CURVE SMOOTH",
"742 1018 OFFCURVE",
"842 932 OFFCURVE",
"842 754 CURVE SMOOTH",
"842 556 OFFCURVE",
"728 480 OFFCURVE",
"566 480 CURVE SMOOTH"
);
},
{
closed = 1;
nodes = (
"1150 980 LINE",
"1150 1110 LINE",
"1058 1110 LINE SMOOTH",
"958 1110 OFFCURVE",
"848 1074 OFFCURVE",
"818 1044 CURVE",
"876 980 LINE"
);
}
);
width = 1196;
},
{
anchors = (
{
name = bottom;
position = "{656, -546}";
},
{
name = top;
position = "{606, 1660}";
}
);
layerId = "23A20576-2241-481A-AD5B-28E85381F753";
paths = (
{
closed = 1;
nodes = (
"946 -506 OFFCURVE",
"1250 -366 OFFCURVE",
"1250 -70 CURVE SMOOTH",
"1250 88 OFFCURVE",
"1148 228 OFFCURVE",
"802 228 CURVE SMOOTH",
"600 228 LINE SMOOTH",
"494 228 OFFCURVE",
"458 246 OFFCURVE",
"458 300 CURVE SMOOTH",
"458 336 OFFCURVE",
"478 382 OFFCURVE",
"536 404 CURVE",
"342 432 LINE",
"182 376 OFFCURVE",
"158 274 OFFCURVE",
"156 196 CURVE SMOOTH",
"154 106 OFFCURVE",
"204 68 OFFCURVE",
"304 48 CURVE SMOOTH",
"340 42 OFFCURVE",
"332 38 OFFCURVE",
"366 30 CURVE SMOOTH",
"396 24 OFFCURVE",
"414 10 OFFCURVE",
"448 10 CURVE SMOOTH",
"690 10 LINE SMOOTH",
"872 10 OFFCURVE",
"902 -58 OFFCURVE",
"902 -144 CURVE SMOOTH",
"902 -262 OFFCURVE",
"794 -308 OFFCURVE",
"648 -308 CURVE SMOOTH",
"460 -308 OFFCURVE",
"418 -202 OFFCURVE",
"418 -102 CURVE SMOOTH",
"418 -10 OFFCURVE",
"474 38 OFFCURVE",
"502 60 CURVE",
"308 72 LINE",
"154 32 OFFCURVE",
"74 -52 OFFCURVE",
"74 -166 CURVE SMOOTH",
"74 -372 OFFCURVE",
"234 -500 OFFCURVE",
"628 -504 CURVE SMOOTH"
);
},
{
closed = 1;
nodes = (
"948 374 OFFCURVE",
"1108 510 OFFCURVE",
"1108 752 CURVE SMOOTH",
"1108 990 OFFCURVE",
"920 1128 OFFCURVE",
"606 1128 CURVE SMOOTH",
"298 1128 OFFCURVE",
"112 988 OFFCURVE",
"112 746 CURVE SMOOTH",
"112 504 OFFCURVE",
"308 374 OFFCURVE",
"606 374 CURVE SMOOTH"
);
},
{
closed = 1;
nodes = (
"494 562 OFFCURVE",
"458 646 OFFCURVE",
"458 750 CURVE SMOOTH",
"458 882 OFFCURVE",
"508 922 OFFCURVE",
"612 922 CURVE SMOOTH",
"724 922 OFFCURVE",
"780 864 OFFCURVE",
"780 748 CURVE SMOOTH",
"780 596 OFFCURVE",
"710 562 OFFCURVE",
"608 562 CURVE SMOOTH"
);
},
{
closed = 1;
nodes = (
"1296 864 LINE",
"1296 1114 LINE",
"1152 1114 LINE SMOOTH",
"1038 1114 OFFCURVE",
"958 1050 OFFCURVE",
"934 1016 CURVE",
"970 864 LINE"
);
}
);
width = 1320;
},
{
anchors = (
{
name = bottom;
position = "{602, -546}";
},
{
name = top;
position = "{565, 1660}";
}
);
layerId = "247DB4A4-D150-4133-9396-DC38172DD635";
paths = (
{
closed = 1;
nodes = (
"868 -504 OFFCURVE",
"1118 -366 OFFCURVE",
"1118 -134 CURVE SMOOTH",
"1118 20 OFFCURVE",
"1050 180 OFFCURVE",
"706 180 CURVE SMOOTH",
"506 180 LINE SMOOTH",
"414 180 OFFCURVE",
"378 202 OFFCURVE",
"378 284 CURVE SMOOTH",
"378 336 OFFCURVE",
"425 387 OFFCURVE",
"473 406 CURVE",
"330 442 LINE",
"230 384 OFFCURVE",
"164 296 OFFCURVE",
"164 218 CURVE SMOOTH",
"164 150 OFFCURVE",
"190 74 OFFCURVE",
"290 36 CURVE SMOOTH",
"306 30 OFFCURVE",
"320 18 OFFCURVE",
"336 14 CURVE SMOOTH",
"382 2 OFFCURVE",
"440 0 OFFCURVE",
"516 0 CURVE SMOOTH",
"626 0 LINE SMOOTH",
"850 0 OFFCURVE",
"898 -66 OFFCURVE",
"898 -184 CURVE SMOOTH",
"898 -296 OFFCURVE",
"750 -352 OFFCURVE",
"578 -352 CURVE SMOOTH",
"392 -352 OFFCURVE",
"320 -276 OFFCURVE",
"320 -144 CURVE SMOOTH",
"320 -28 OFFCURVE",
"390 6 OFFCURVE",
"432 44 CURVE",
"284 66 LINE",
"200 32 OFFCURVE",
"94 -52 OFFCURVE",
"94 -176 CURVE SMOOTH",
"94 -398 OFFCURVE",
"276 -504 OFFCURVE",
"570 -504 CURVE SMOOTH"
);
},
{
closed = 1;
nodes = (
"828 380 OFFCURVE",
"1020 513 OFFCURVE",
"1020 758 CURVE SMOOTH",
"1020 1017 OFFCURVE",
"815 1134 OFFCURVE",
"567 1128 CURVE SMOOTH",
"312 1124 OFFCURVE",
"122 1006 OFFCURVE",
"122 746 CURVE SMOOTH",
"122 529 OFFCURVE",
"312 380 OFFCURVE",
"563 380 CURVE SMOOTH"
);
},
{
closed = 1;
nodes = (
"414 530 OFFCURVE",
"348 633 OFFCURVE",
"348 755 CURVE SMOOTH",
"348 933 OFFCURVE",
"456 976 OFFCURVE",
"580 976 CURVE SMOOTH",
"724 976 OFFCURVE",
"794 897 OFFCURVE",
"794 751 CURVE SMOOTH",
"794 580 OFFCURVE",
"706 530 OFFCURVE",
"569 530 CURVE SMOOTH"
);
},
{
closed = 1;
nodes = (
"1177 940 LINE",
"1177 1121 LINE",
"1065 1121 LINE SMOOTH",
"961 1121 OFFCURVE",
"863 1070 OFFCURVE",
"834 1033 CURVE",
"897 940 LINE"
);
}
);
width = 1203;
}
);
leftKerningGroup = g;
rightKerningGroup = g;
unicode = 0067;
},
{
glyphname = h;
lastChange = "2019-04-06 02:48:40 +0000";
layers = (
{
anchors = (
{
name = bottom;
position = "{640, 0}";
},
{
name = btm;
position = "{656, -166}";
},
{
name = center;
position = "{640, 984}";
},
{
name = top;
position = "{270, 1738}";
}
);
layerId = "8BC678DE-46B6-4C98-A96E-C0ED61786D32";
paths = (
{
closed = 1;
nodes = (
"352 0 LINE",
"352 858 LINE",
"440 926 OFFCURVE",
"576 990 OFFCURVE",
"686 994 CURVE SMOOTH",
"876 1000 OFFCURVE",
"934 914 OFFCURVE",
"934 672 CURVE SMOOTH",
"934 0 LINE",
"1096 0 LINE",
"1096 662 LINE SMOOTH",
"1098 1008 OFFCURVE",
"998 1134 OFFCURVE",
"752 1130 CURVE SMOOTH",
"586 1126 OFFCURVE",
"414 1036 OFFCURVE",
"334 970 CURVE",
"342 958 LINE",
"352 1130 LINE",
"352 1626 LINE",
"188 1626 LINE",
"188 0 LINE"
);
}
);
width = 1280;
},
{
anchors = (
{
name = bottom;
position = "{658, 0}";
},
{
name = btm;
position = "{660, -166}";
},
{
name = center;
position = "{658, 984}";
},
{
name = top;
position = "{318, 1738}";
}
);
layerId = "23A20576-2241-481A-AD5B-28E85381F753";
paths = (
{
closed = 1;
nodes = (
"502 0 LINE",
"502 774 LINE",
"556 828 OFFCURVE",
"634 846 OFFCURVE",
"680 846 CURVE SMOOTH",
"776 848 OFFCURVE",
"822 806 OFFCURVE",
"822 636 CURVE SMOOTH",
"822 0 LINE",
"1186 0 LINE",
"1186 698 LINE SMOOTH",
"1186 996 OFFCURVE",
"1074 1136 OFFCURVE",
"832 1130 CURVE SMOOTH",
"682 1128 OFFCURVE",
"542 1050 OFFCURVE",
"472 986 CURVE",
"482 956 LINE",
"502 1206 LINE",
"502 1624 LINE",
"140 1624 LINE",
"140 0 LINE"
);
}
);
width = 1314;
},
{
anchors = (
{
name = bottom;
position = "{635, 0}";
},
{
name = btm;
position = "{657, -166}";
},
{
name = center;
position = "{635, 984}";
},
{
name = top;
position = "{287, 1738}";
}
);
layerId = "247DB4A4-D150-4133-9396-DC38172DD635";
paths = (
{
closed = 1;
nodes = (
"401 0 LINE",
"401 838 LINE",
"487 903 OFFCURVE",
"596 935 OFFCURVE",
"667 936 CURVE SMOOTH",
"829 944 OFFCURVE",
"874 865 OFFCURVE",
"874 683 CURVE SMOOTH",
"874 0 LINE",
"1104 0 LINE",
"1104 681 LINE SMOOTH",
"1104 1006 OFFCURVE",
"1000 1137 OFFCURVE",
"757 1130 CURVE SMOOTH",
"615 1126 OFFCURVE",
"458 1057 OFFCURVE",
"378 993 CURVE",
"389 967 LINE",
"401 1168 LINE",
"401 1626 LINE",
"171 1626 LINE",
"171 0 LINE"
);
}
);
width = 1268;
}
);
leftKerningGroup = h;
rightKerningGroup = n;
rightMetricsKey = n;
unicode = 0068;
},
{
glyphname = hbar;
lastChange = "2019-04-06 02:48:40 +0000";
layers = (
{
components = (
{
name = h;
}
);
layerId = "8BC678DE-46B6-4C98-A96E-C0ED61786D32";
paths = (
{
closed = 1;
nodes = (
"616 1278 LINE",
"616 1376 LINE",
"42 1376 LINE",
"42 1278 LINE"
);
}
);
width = 1278;
},
{
components = (
{
name = h;
}
);
layerId = "23A20576-2241-481A-AD5B-28E85381F753";
paths = (
{
closed = 1;
nodes = (
"726 1266 LINE",
"726 1464 LINE",
"30 1464 LINE",
"30 1266 LINE"
);
}
);
width = 1348;
},
{
components = (
{
alignment = -1;
name = h;
}
);
layerId = "247DB4A4-D150-4133-9396-DC38172DD635";
paths = (
{
closed = 1;
nodes = (
"627 1255 LINE",
"627 1392 LINE",
"36 1392 LINE",
"36 1255 LINE"
);
}
);
width = 1269;
}
);
leftKerningGroup = h;
rightKerningGroup = n;
unicode = 0127;
},
{
glyphname = idotless;
lastChange = "2019-04-06 02:48:40 +0000";
layers = (
{
anchors = (
{
name = bottom;
position = "{278, 0}";
},
{
name = btm;
position = "{276, -166}";
},
{
name = ogonek;
position = "{430, 50}";
},
{
name = top;
position = "{276, 1660}";
}
);
layerId = "8BC678DE-46B6-4C98-A96E-C0ED61786D32";
paths = (
{
closed = 1;
nodes = (
"358 0 LINE",
"358 1112 LINE",
"196 1112 LINE",
"196 0 LINE"
);
}
);
width = 554;
},
{
anchors = (
{
name = bottom;
position = "{330, 0}";
},
{
name = btm;
position = "{328, -166}";
},
{
name = ogonek;
position = "{472, 50}";
},
{
name = top;
position = "{328, 1660}";
}
);
layerId = "23A20576-2241-481A-AD5B-28E85381F753";
paths = (
{
closed = 1;
nodes = (
"510 0 LINE",
"510 1114 LINE",
"148 1114 LINE",
"148 0 LINE"
);
}
);
width = 658;
},
{
anchors = (
{
name = bottom;
position = "{294, 0}";
},
{
name = btm;
position = "{296, -166}";
},
{
name = ogonek;
position = "{442, 50}";
},
{
name = top;
position = "{294, 1660}";
}
);
layerId = "247DB4A4-D150-4133-9396-DC38172DD635";
paths = (
{
closed = 1;
nodes = (
"410 0 LINE",
"410 1112 LINE",
"180 1112 LINE",
"180 0 LINE"
);
}
);
width = 590;
}
);
leftKerningGroup = i;
rightKerningGroup = i;
unicode = 0131;
},
{
glyphname = jdotless;
lastChange = "2019-04-06 02:48:40 +0000";
layers = (
{
anchors = (
{
name = bottom;
position = "{274, -546}";
},
{
name = top;
position = "{296, 1660}";
}
);
layerId = "8BC678DE-46B6-4C98-A96E-C0ED61786D32";
paths = (
{
closed = 1;
nodes = (
"-78 -490 OFFCURVE",
"2 -496 OFFCURVE",
"38 -496 CURVE SMOOTH",
"258 -496 OFFCURVE",
"368 -340 OFFCURVE",
"368 22 CURVE SMOOTH",
"368 1112 LINE",
"206 1112 LINE",
"206 -40 LINE SMOOTH",
"206 -278 OFFCURVE",
"152 -380 OFFCURVE",
"20 -380 CURVE SMOOTH",
"-18 -380 OFFCURVE",
"-72 -370 OFFCURVE",
"-92 -362 CURVE",
"-92 -482 LINE"
);
}
);
width = 548;
},
{
anchors = (
{
name = bottom;
position = "{332, -546}";
},
{
name = top;
position = "{342, 1662}";
}
);
background = {
components = (
{
name = idotless;
}
);
};
layerId = "23A20576-2241-481A-AD5B-28E85381F753";
paths = (
{
closed = 1;
nodes = (
"-72 -480 OFFCURVE",
"24 -496 OFFCURVE",
"90 -496 CURVE SMOOTH",
"354 -496 OFFCURVE",
"518 -356 OFFCURVE",
"518 80 CURVE SMOOTH",
"518 1114 LINE",
"164 1114 LINE",
"164 2 LINE SMOOTH",
"164 -202 OFFCURVE",
"118 -262 OFFCURVE",
"30 -262 CURVE SMOOTH",
"-20 -262 OFFCURVE",
"-86 -250 OFFCURVE",
"-102 -242 CURVE",
"-102 -470 LINE"
);
}
);
width = 662;
},
{
anchors = (
{
name = bottom;
position = "{286, -546}";
},
{
name = top;
position = "{304, 1660}";
}
);
layerId = "247DB4A4-D150-4133-9396-DC38172DD635";
paths = (
{
closed = 1;
nodes = (
"-65 -490 OFFCURVE",
"29 -496 OFFCURVE",
"60 -496 CURVE SMOOTH",
"287 -496 OFFCURVE",
"416 -346 OFFCURVE",
"416 44 CURVE SMOOTH",
"416 1112 LINE",
"185 1112 LINE",
"185 -38 LINE SMOOTH",
"185 -238 OFFCURVE",
"150 -335 OFFCURVE",
"33 -335 CURVE SMOOTH",
"0 -335 OFFCURVE",
"-61 -325 OFFCURVE",
"-82 -315 CURVE",
"-82 -480 LINE"
);
}
);
width = 572;
}
);
leftKerningGroup = j;
rightKerningGroup = i;
unicode = 0237;
},
{
glyphname = k;
lastChange = "2019-04-06 02:56:25 +0000";
layers = (
{
anchors = (
{
name = bottom;
position = "{574, 0}";
},
{
name = btm;
position = "{598, -166}";
},
{
name = top;
position = "{660, 1660}";
}
);
layerId = "8BC678DE-46B6-4C98-A96E-C0ED61786D32";
paths = (
{
closed = 1;
nodes = (
"870 1112 LINE",
"294 524 LINE",
"338 496 LINE",
"344 692 LINE",
"344 1622 LINE",
"188 1622 LINE",
"188 546 LINE",
"188 0 LINE",
"344 0 LINE",
"344 218 LINE",
"340 416 LINE",
"322 374 LINE",
"1064 1112 LINE"
);
},
{
closed = 1;
nodes = (
"924 0 LINE",
"1112 0 LINE",
"618 692 LINE",
"506 588 LINE"
);
}
);
width = 1142;
},
{
anchors = (
{
name = bottom;
position = "{612, 0}";
},
{
name = btm;
position = "{640, -166}";
},
{
name = top;
position = "{816, 1660}";
}
);
layerId = "23A20576-2241-481A-AD5B-28E85381F753";
paths = (
{
closed = 1;
nodes = (
"822 1114 LINE",
"438 648 LINE",
"480 598 LINE",
"496 1008 LINE",
"496 1622 LINE",
"140 1622 LINE",
"140 662 LINE",
"140 0 LINE",
"496 0 LINE",
"496 184 LINE",
"492 378 LINE",
"482 304 LINE",
"1234 1114 LINE"
);
},
{
closed = 1;
nodes = (
"858 0 LINE",
"1260 0 LINE",
"818 716 LINE",
"582 466 LINE"
);
}
);
width = 1240;
},
{
anchors = (
{
name = bottom;
position = "{581, 0}";
},
{
name = btm;
position = "{609, -166}";
},
{
name = top;
position = "{675, 1660}";
}
);
layerId = "247DB4A4-D150-4133-9396-DC38172DD635";
paths = (
{
closed = 1;
nodes = (
"829 1114 LINE",
"333 568 LINE",
"387 530 LINE",
"395 774 LINE",
"395 1622 LINE",
"171 1622 LINE",
"171 662 LINE",
"171 0 LINE",
"395 0 LINE",
"395 216 LINE",
"391 408 LINE",
"371 354 LINE",
"1099 1114 LINE"
);
},
{
closed = 1;
nodes = (
"885 0 LINE",
"1147 0 LINE",
"667 698 LINE",
"511 548 LINE"
);
}
);
width = 1155;
}
);
leftKerningGroup = h;
leftMetricsKey = h;
rightKerningGroup = k;
unicode = 006B;
},
{
glyphname = kgreenlandic;
lastChange = "2019-04-06 02:48:40 +0000";
layers = (
{
anchors = (
{
name = bottom;
position = "{572, 0}";
},
{
name = top;
position = "{572, 1114}";
}
);
layerId = "8BC678DE-46B6-4C98-A96E-C0ED61786D32";
paths = (
{
closed = 1;
nodes = (
"894 1112 LINE",
"308 480 LINE",
"350 454 LINE",
"356 626 LINE",
"356 1114 LINE",
"192 1114 LINE",
"194 0 LINE",
"358 0 LINE",
"358 196 LINE",
"352 374 LINE",
"334 332 LINE",
"1082 1112 LINE"
);
},
{
closed = 1;
nodes = (
"932 0 LINE",
"1120 0 LINE",
"632 664 LINE",
"522 562 LINE"
);
}
);
width = 1144;
},
{
anchors = (
{
name = bottom;
position = "{626, 0}";
},
{
name = top;
position = "{626, 1114}";
}
);
layerId = "23A20576-2241-481A-AD5B-28E85381F753";
paths = (
{
closed = 1;
nodes = (
"844 1114 LINE",
"468 602 LINE",
"510 580 LINE",
"522 810 LINE",
"522 1114 LINE",
"160 1114 LINE",
"160 0 LINE",
"522 0 LINE",
"522 158 LINE",
"522 322 LINE",
"506 248 LINE",
"1246 1114 LINE"
);
},
{
closed = 1;
nodes = (
"864 0 LINE",
"1274 0 LINE",
"836 700 LINE",
"598 436 LINE"
);
}
);
width = 1252;
},
{
anchors = (
{
name = bottom;
position = "{578, 0}";
},
{
name = top;
position = "{578, 1114}";
}
);
layerId = "247DB4A4-D150-4133-9396-DC38172DD635";
paths = (
{
closed = 1;
nodes = (
"857 1114 LINE",
"347 507 LINE",
"398 472 LINE",
"407 665 LINE",
"407 1114 LINE",
"175 1114 LINE",
"178 0 LINE",
"408 0 LINE",
"408 181 LINE",
"403 350 LINE",
"384 296 LINE",
"1119 1114 LINE"
);
},
{
closed = 1;
nodes = (
"893 0 LINE",
"1156 0 LINE",
"684 662 LINE",
"526 513 LINE"
);
}
);
width = 1154;
}
);
leftKerningGroup = h;
rightKerningGroup = k;
unicode = 0138;
},
{
glyphname = l;
lastChange = "2019-04-06 02:48:40 +0000";
layers = (
{
anchors = (
{
name = bottom;
position = "{272, 0}";
},
{
name = btm;
position = "{258, -166}";
},
{
name = center;
position = "{272, 984}";
},
{
name = top;
position = "{274, 1742}";
},
{
name = topright;
position = "{522, 1966}";
}
);
layerId = "8BC678DE-46B6-4C98-A96E-C0ED61786D32";
paths = (
{
closed = 1;
nodes = (
"354 0 LINE",
"354 1626 LINE",
"190 1626 LINE",
"190 0 LINE"
);
}
);
width = 544;
},
{
anchors = (
{
name = bottom;
position = "{316, 0}";
},
{
name = btm;
position = "{308, -166}";
},
{
name = center;
position = "{316, 984}";
},
{
name = top;
position = "{314, 1808}";
},
{
name = topright;
position = "{612, 1966}";
}
);
layerId = "23A20576-2241-481A-AD5B-28E85381F753";
paths = (
{
closed = 1;
nodes = (
"496 0 LINE",
"496 1624 LINE",
"134 1624 LINE",
"134 0 LINE"
);
}
);
width = 630;
},
{
anchors = (
{
name = bottom;
position = "{296, 0}";
},
{
name = btm;
position = "{280, -166}";
},
{
name = center;
position = "{296, 984}";
},
{
name = top;
position = "{298, 1760}";
},
{
name = topright;
position = "{556, 1966}";
}
);
layerId = "247DB4A4-D150-4133-9396-DC38172DD635";
paths = (
{
closed = 1;
nodes = (
"412 0 LINE",
"412 1626 LINE",
"180 1626 LINE",
"180 0 LINE"
);
}
);
width = 592;
}
);
leftKerningGroup = l;
rightKerningGroup = l;
unicode = 006C;
},
{
glyphname = lslash;
lastChange = "2019-04-06 02:48:40 +0000";
layers = (
{
components = (
{
name = l;
transform = "{1, 0, 0, 1, 36, 0}";
}
);
layerId = "8BC678DE-46B6-4C98-A96E-C0ED61786D32";
paths = (
{
closed = 1;
nodes = (
"596 1000 LINE",
"596 1122 LINE",
"50 904 LINE",
"50 792 LINE"
);
}
);
width = 646;
},
{
components = (
{
name = l;
transform = "{1, 0, 0, 1, 28, 0}";
}
);
layerId = "23A20576-2241-481A-AD5B-28E85381F753";
paths = (
{
closed = 1;
nodes = (
"720 898 LINE",
"720 1128 LINE",
"50 874 LINE",
"50 654 LINE"
);
}
);
width = 770;
},
{
components = (
{
alignment = -1;
name = l;
transform = "{1, 0, 0, 1, 22, 0}";
}
);
layerId = "247DB4A4-D150-4133-9396-DC38172DD635";
paths = (
{
closed = 1;
nodes = (
"618 960 LINE",
"618 1126 LINE",
"50 898 LINE",
"50 744 LINE"
);
}
);
width = 668;
}
);
leftKerningGroup = lslash;
rightKerningGroup = lslash;
unicode = 0142;
},
{
glyphname = m;
lastChange = "2019-04-06 02:56:25 +0000";
layers = (
{
anchors = (
{
name = bottom;
position = "{970, 0}";
},
{
name = btm;
position = "{980, -166}";
},
{
name = top;
position = "{984, 1660}";
}
);
layerId = "8BC678DE-46B6-4C98-A96E-C0ED61786D32";
paths = (
{
closed = 1;
nodes = (
"356 0 LINE",
"356 858 LINE",
"444 930 OFFCURVE",
"584 988 OFFCURVE",
"682 992 CURVE SMOOTH",
"866 1000 OFFCURVE",
"902 902 OFFCURVE",
"902 680 CURVE SMOOTH",
"902 0 LINE",
"1064 0 LINE",
"1064 692 LINE SMOOTH",
"1064 1034 OFFCURVE",
"972 1134 OFFCURVE",
"748 1130 CURVE SMOOTH",
"594 1126 OFFCURVE",
"420 1036 OFFCURVE",
"338 970 CURVE",
"338 1112 LINE",
"192 1112 LINE",
"192 0 LINE"
);
},
{
closed = 1;
nodes = (
"1132 930 OFFCURVE",
"1260 992 OFFCURVE",
"1366 994 CURVE SMOOTH",
"1562 1000 OFFCURVE",
"1592 886 OFFCURVE",
"1592 678 CURVE SMOOTH",
"1592 0 LINE",
"1754 0 LINE",
"1754 686 LINE SMOOTH",
"1754 1018 OFFCURVE",
"1664 1132 OFFCURVE",
"1428 1130 CURVE SMOOTH",
"1262 1128 OFFCURVE",
"1094 1038 OFFCURVE",
"1012 972 CURVE",
"1048 872 LINE"
);
}
);
width = 1938;
},
{
anchors = (
{
name = bottom;
position = "{994, 0}";
},
{
name = btm;
position = "{994, -166}";
},
{
name = top;
position = "{994, 1660}";
}
);
layerId = "23A20576-2241-481A-AD5B-28E85381F753";
paths = (
{
closed = 1;
nodes = (
"504 0 LINE",
"504 774 LINE",
"554 822 OFFCURVE",
"632 846 OFFCURVE",
"684 846 CURVE SMOOTH",
"788 848 OFFCURVE",
"822 798 OFFCURVE",
"822 636 CURVE SMOOTH",
"822 0 LINE",
"1182 0 LINE",
"1182 704 LINE SMOOTH",
"1182 1024 OFFCURVE",
"1068 1136 OFFCURVE",
"846 1130 CURVE SMOOTH",
"700 1128 OFFCURVE",
"558 1056 OFFCURVE",
"482 994 CURVE",
"474 1114 LINE",
"144 1114 LINE",
"144 0 LINE"
);
},
{
closed = 1;
nodes = (
"1204 800 OFFCURVE",
"1276 846 OFFCURVE",
"1352 846 CURVE SMOOTH",
"1458 848 OFFCURVE",
"1492 800 OFFCURVE",
"1492 638 CURVE SMOOTH",
"1492 0 LINE",
"1854 0 LINE",
"1854 702 LINE SMOOTH",
"1854 1028 OFFCURVE",
"1720 1132 OFFCURVE",
"1496 1130 CURVE SMOOTH",
"1310 1132 OFFCURVE",
"1160 1036 OFFCURVE",
"1108 988 CURVE",
"1168 766 LINE"
);
}
);
width = 1982;
},
{
anchors = (
{
name = bottom;
position = "{970, 0}";
},
{
name = btm;
position = "{982, -166}";
},
{
name = top;
position = "{977, 1660}";
}
);
layerId = "247DB4A4-D150-4133-9396-DC38172DD635";
paths = (
{
closed = 1;
nodes = (
"402 0 LINE",
"402 838 LINE",
"488 903 OFFCURVE",
"597 935 OFFCURVE",
"666 937 CURVE SMOOTH",
"829 944 OFFCURVE",
"863 865 OFFCURVE",
"863 683 CURVE SMOOTH",
"863 0 LINE",
"1093 0 LINE",
"1093 697 LINE SMOOTH",
"1093 1023 OFFCURVE",
"999 1137 OFFCURVE",
"760 1130 CURVE SMOOTH",
"616 1126 OFFCURVE",
"462 1050 OFFCURVE",
"380 994 CURVE",
"379 1112 LINE",
"172 1112 LINE",
"172 0 LINE"
);
},
{
closed = 1;
nodes = (
"1162 896 OFFCURVE",
"1270 935 OFFCURVE",
"1348 937 CURVE SMOOTH",
"1513 944 OFFCURVE",
"1543 865 OFFCURVE",
"1543 683 CURVE SMOOTH",
"1543 0 LINE",
"1774 0 LINE",
"1774 698 LINE SMOOTH",
"1774 1024 OFFCURVE",
"1672 1134 OFFCURVE",
"1434 1130 CURVE SMOOTH",
"1276 1127 OFFCURVE",
"1110 1048 OFFCURVE",
"1032 983 CURVE",
"1081 837 LINE"
);
}
);
width = 1938;
}
);
leftKerningGroup = n;
leftMetricsKey = n;
rightKerningGroup = n;
rightMetricsKey = n;
unicode = 006D;
},
{
glyphname = n;
lastChange = "2019-04-06 02:48:40 +0000";
layers = (
{
anchors = (
{
name = bottom;
position = "{634, 0}";
},
{
name = btm;
position = "{638, -166}";
},
{
name = top;
position = "{646, 1660}";
}
);
layerId = "8BC678DE-46B6-4C98-A96E-C0ED61786D32";
paths = (
{
closed = 1;
nodes = (
"356 0 LINE",
"356 858 LINE",
"440 924 OFFCURVE",
"576 992 OFFCURVE",
"680 994 CURVE SMOOTH",
"872 1002 OFFCURVE",
"918 910 OFFCURVE",
"918 690 CURVE SMOOTH",
"918 0 LINE",
"1082 0 LINE",
"1082 688 LINE SMOOTH",
"1082 1016 OFFCURVE",
"990 1134 OFFCURVE",
"748 1130 CURVE SMOOTH",
"586 1126 OFFCURVE",
"418 1030 OFFCURVE",
"338 970 CURVE",
"338 1112 LINE",
"192 1112 LINE",
"192 0 LINE"
);
}
);
width = 1266;
},
{
anchors = (
{
name = bottom;
position = "{660, 0}";
},
{
name = btm;
position = "{644, -166}";
},
{
name = top;
position = "{674, 1660}";
}
);
layerId = "23A20576-2241-481A-AD5B-28E85381F753";
paths = (
{
closed = 1;
nodes = (
"504 0 LINE",
"504 774 LINE",
"554 822 OFFCURVE",
"630 846 OFFCURVE",
"682 846 CURVE SMOOTH",
"788 850 OFFCURVE",
"824 798 OFFCURVE",
"824 636 CURVE SMOOTH",
"824 0 LINE",
"1186 0 LINE",
"1186 702 LINE SMOOTH",
"1186 1022 OFFCURVE",
"1072 1134 OFFCURVE",
"846 1130 CURVE SMOOTH",
"696 1128 OFFCURVE",
"552 1054 OFFCURVE",
"482 984 CURVE",
"474 1114 LINE",
"144 1114 LINE",
"144 0 LINE"
);
}
);
width = 1314;
},
{
anchors = (
{
name = bottom;
position = "{632, 0}";
},
{
name = btm;
position = "{642, -166}";
},
{
name = top;
position = "{641, 1660}";
}
);
layerId = "247DB4A4-D150-4133-9396-DC38172DD635";
paths = (
{
closed = 1;
nodes = (
"402 0 LINE",
"402 838 LINE",
"488 903 OFFCURVE",
"595 936 OFFCURVE",
"666 938 CURVE SMOOTH",
"832 947 OFFCURVE",
"866 869 OFFCURVE",
"866 683 CURVE SMOOTH",
"866 0 LINE",
"1098 0 LINE",
"1098 695 LINE SMOOTH",
"1098 1021 OFFCURVE",
"1002 1137 OFFCURVE",
"763 1130 CURVE SMOOTH",
"619 1126 OFFCURVE",
"462 1050 OFFCURVE",
"380 994 CURVE",
"379 1112 LINE",
"172 1112 LINE",
"172 0 LINE"
);
}
);
width = 1262;
}
);
leftKerningGroup = n;
rightKerningGroup = n;
unicode = 006E;
},
{
glyphname = eng;
lastChange = "2019-04-06 02:48:40 +0000";
layers = (
{
layerId = "8BC678DE-46B6-4C98-A96E-C0ED61786D32";
paths = (
{
closed = 1;
nodes = (
"352 0 LINE",
"352 858 LINE",
"438 924 OFFCURVE",
"584 990 OFFCURVE",
"690 994 CURVE SMOOTH",
"860 1000 OFFCURVE",
"920 928 OFFCURVE",
"920 688 CURVE SMOOTH",
"920 -36 LINE SMOOTH",
"920 -288 OFFCURVE",
"872 -378 OFFCURVE",
"740 -380 CURVE SMOOTH",
"710 -380 OFFCURVE",
"654 -376 OFFCURVE",
"634 -368 CURVE",
"634 -482 LINE",
"650 -488 OFFCURVE",
"736 -496 OFFCURVE",
"772 -496 CURVE SMOOTH",
"982 -496 OFFCURVE",
"1082 -316 OFFCURVE",
"1082 -14 CURVE SMOOTH",
"1082 692 LINE SMOOTH",
"1082 1020 OFFCURVE",
"994 1134 OFFCURVE",
"754 1130 CURVE",
"588 1126 OFFCURVE",
"416 1030 OFFCURVE",
"334 970 CURVE",
"334 1112 LINE",
"188 1112 LINE",
"188 0 LINE"
);
}
);
width = 1264;
},
{
layerId = "23A20576-2241-481A-AD5B-28E85381F753";
paths = (
{
closed = 1;
nodes = (
"526 0 LINE",
"526 768 LINE",
"580 822 OFFCURVE",
"664 844 OFFCURVE",
"708 844 CURVE SMOOTH",
"808 846 OFFCURVE",
"836 796 OFFCURVE",
"836 634 CURVE SMOOTH",
"836 -26 LINE SMOOTH",
"836 -230 OFFCURVE",
"802 -266 OFFCURVE",
"716 -266 CURVE SMOOTH",
"682 -266 OFFCURVE",
"628 -258 OFFCURVE",
"608 -250 CURVE",
"608 -476 LINE",
"656 -488 OFFCURVE",
"728 -496 OFFCURVE",
"830 -496 CURVE SMOOTH",
"1058 -496 OFFCURVE",
"1204 -340 OFFCURVE",
"1204 -18 CURVE SMOOTH",
"1204 702 LINE SMOOTH",
"1202 1028 OFFCURVE",
"1084 1136 OFFCURVE",
"852 1130 CURVE",
"714 1128 OFFCURVE",
"574 1052 OFFCURVE",
"502 994 CURVE",
"494 1112 LINE",
"160 1112 LINE",
"160 0 LINE"
);
}
);
width = 1350;
},
{
layerId = "247DB4A4-D150-4133-9396-DC38172DD635";
paths = (
{
closed = 1;
nodes = (
"402 0 LINE",
"402 838 LINE",
"488 903 OFFCURVE",
"602 936 OFFCURVE",
"671 938 CURVE SMOOTH",
"832 946 OFFCURVE",
"866 867 OFFCURVE",
"866 685 CURVE SMOOTH",
"866 -44 LINE SMOOTH",
"866 -275 OFFCURVE",
"838 -336 OFFCURVE",
"729 -336 CURVE SMOOTH",
"706 -336 OFFCURVE",
"644 -332 OFFCURVE",
"624 -326 CURVE",
"624 -482 LINE",
"644 -490 OFFCURVE",
"739 -496 OFFCURVE",
"782 -496 CURVE SMOOTH",
"984 -496 OFFCURVE",
"1098 -333 OFFCURVE",
"1098 -18 CURVE SMOOTH",
"1098 698 LINE SMOOTH",
"1096 1024 OFFCURVE",
"1002 1137 OFFCURVE",
"763 1130 CURVE",
"619 1126 OFFCURVE",
"461 1050 OFFCURVE",
"380 994 CURVE",
"377 1112 LINE",
"172 1112 LINE",
"172 0 LINE"
);
}
);
width = 1262;
}
);
leftKerningGroup = n;
rightKerningGroup = n;
unicode = 014B;
},
{
glyphname = o;
lastChange = "2019-04-06 02:48:40 +0000";
layers = (
{
anchors = (
{
name = bottom;
position = "{598, 0}";
},
{
name = btm;
position = "{594, -166}";
},
{
name = center;
position = "{598, 558}";
},
{
name = ogonek;
position = "{680, 0}";
},
{
name = top;
position = "{600, 1660}";
},
{
name = topright;
position = "{832, 1054}";
}
);
layerId = "8BC678DE-46B6-4C98-A96E-C0ED61786D32";
paths = (
{
closed = 1;
nodes = (
"876 -16 OFFCURVE",
"1086 186 OFFCURVE",
"1092 542 CURVE SMOOTH",
"1096 856 OFFCURVE",
"956 1128 OFFCURVE",
"608 1128 CURVE SMOOTH",
"326 1128 OFFCURVE",
"108 932 OFFCURVE",
"102 578 CURVE SMOOTH",
"98 262 OFFCURVE",
"234 -16 OFFCURVE",
"588 -16 CURVE SMOOTH"
);
},
{
closed = 1;
nodes = (
"366 104 OFFCURVE",
"268 322 OFFCURVE",
"268 576 CURVE SMOOTH",
"270 854 OFFCURVE",
"396 1014 OFFCURVE",
"606 1010 CURVE SMOOTH",
"828 1008 OFFCURVE",
"928 804 OFFCURVE",
"926 548 CURVE SMOOTH",
"926 270 OFFCURVE",
"804 98 OFFCURVE",
"592 100 CURVE SMOOTH"
);
}
);
width = 1194;
},
{
anchors = (
{
name = bottom;
position = "{626, 0}";
},
{
name = btm;
position = "{608, -166}";
},
{
name = center;
position = "{626, 558}";
},
{
name = ogonek;
position = "{736, 0}";
},
{
name = top;
position = "{632, 1660}";
},
{
name = topright;
position = "{876, 1054}";
}
);
layerId = "23A20576-2241-481A-AD5B-28E85381F753";
paths = (
{
closed = 1;
nodes = (
"950 -16 OFFCURVE",
"1186 176 OFFCURVE",
"1190 534 CURVE SMOOTH",
"1196 854 OFFCURVE",
"1048 1128 OFFCURVE",
"636 1128 CURVE SMOOTH",
"302 1128 OFFCURVE",
"66 936 OFFCURVE",
"60 580 CURVE SMOOTH",
"56 260 OFFCURVE",
"204 -16 OFFCURVE",
"616 -16 CURVE SMOOTH"
);
},
{
closed = 1;
nodes = (
"482 234 OFFCURVE",
"436 384 OFFCURVE",
"436 568 CURVE SMOOTH",
"436 770 OFFCURVE",
"484 878 OFFCURVE",
"630 878 CURVE SMOOTH",
"770 878 OFFCURVE",
"814 730 OFFCURVE",
"814 550 CURVE SMOOTH",
"814 338 OFFCURVE",
"766 234 OFFCURVE",
"624 234 CURVE SMOOTH"
);
}
);
width = 1250;
},
{
anchors = (
{
name = bottom;
position = "{599, 0}";
},
{
name = btm;
position = "{593, -166}";
},
{
name = center;
position = "{599, 558}";
},
{
name = ogonek;
position = "{698, 0}";
},
{
name = top;
position = "{609, 1660}";
},
{
name = topright;
position = "{832, 1054}";
}
);
layerId = "247DB4A4-D150-4133-9396-DC38172DD635";
paths = (
{
closed = 1;
nodes = (
"882 -16 OFFCURVE",
"1099 176 OFFCURVE",
"1105 534 CURVE SMOOTH",
"1109 850 OFFCURVE",
"972 1128 OFFCURVE",
"609 1128 CURVE SMOOTH",
"318 1128 OFFCURVE",
"98 938 OFFCURVE",
"93 580 CURVE SMOOTH",
"89 262 OFFCURVE",
"227 -16 OFFCURVE",
"589 -16 CURVE SMOOTH"
);
},
{
closed = 1;
nodes = (
"411 151 OFFCURVE",
"329 345 OFFCURVE",
"329 577 CURVE SMOOTH",
"329 826 OFFCURVE",
"421 967 OFFCURVE",
"603 963 CURVE SMOOTH",
"789 961 OFFCURVE",
"871 774 OFFCURVE",
"871 543 CURVE SMOOTH",
"871 293 OFFCURVE",
"778 144 OFFCURVE",
"595 147 CURVE SMOOTH"
);
}
);
width = 1198;
}
);
leftKerningGroup = o;
rightKerningGroup = o;
unicode = 006F;
},
{
glyphname = oslash;
lastChange = "2019-04-06 02:48:40 +0000";
layers = (
{
anchors = (
{
name = top;
position = "{644, 1660}";
}
);
layerId = "8BC678DE-46B6-4C98-A96E-C0ED61786D32";
paths = (
{
closed = 1;
nodes = (
"398 -190 LINE",
"892 1278 LINE",
"798 1304 LINE",
"304 -164 LINE"
);
},
{
closed = 1;
nodes = (
"876 -16 OFFCURVE",
"1090 186 OFFCURVE",
"1096 542 CURVE SMOOTH",
"1098 856 OFFCURVE",
"958 1128 OFFCURVE",
"610 1128 CURVE SMOOTH",
"324 1128 OFFCURVE",
"106 932 OFFCURVE",
"100 578 CURVE",
"96 262 OFFCURVE",
"234 -16 OFFCURVE",
"588 -16 CURVE SMOOTH"
);
},
{
closed = 1;
nodes = (
"364 104 OFFCURVE",
"266 322 OFFCURVE",
"266 576 CURVE SMOOTH",
"268 854 OFFCURVE",
"394 1014 OFFCURVE",
"606 1010 CURVE",
"830 1008 OFFCURVE",
"930 804 OFFCURVE",
"930 548 CURVE SMOOTH",
"928 270 OFFCURVE",
"806 98 OFFCURVE",
"592 100 CURVE SMOOTH"
);
}
);
width = 1196;
},
{
anchors = (
{
name = top;
position = "{644, 1660}";
}
);
layerId = "23A20576-2241-481A-AD5B-28E85381F753";
paths = (
{
closed = 1;
nodes = (
"434 -228 LINE",
"998 1324 LINE",
"868 1352 LINE",
"306 -204 LINE"
);
},
{
closed = 1;
nodes = (
"974 -16 OFFCURVE",
"1210 176 OFFCURVE",
"1214 534 CURVE SMOOTH",
"1220 854 OFFCURVE",
"1072 1128 OFFCURVE",
"660 1128 CURVE SMOOTH",
"326 1128 OFFCURVE",
"90 936 OFFCURVE",
"84 580 CURVE",
"80 260 OFFCURVE",
"228 -16 OFFCURVE",
"640 -16 CURVE SMOOTH"
);
},
{
closed = 1;
nodes = (
"506 234 OFFCURVE",
"448 384 OFFCURVE",
"448 568 CURVE SMOOTH",
"448 770 OFFCURVE",
"508 878 OFFCURVE",
"654 878 CURVE",
"794 878 OFFCURVE",
"852 730 OFFCURVE",
"852 550 CURVE SMOOTH",
"852 338 OFFCURVE",
"790 234 OFFCURVE",
"648 234 CURVE SMOOTH"
);
}
);
width = 1304;
},
{
anchors = (
{
name = top;
position = "{644, 1660}";
}
);
layerId = "247DB4A4-D150-4133-9396-DC38172DD635";
paths = (
{
closed = 1;
nodes = (
"408 -199 LINE",
"915 1281 LINE",
"793 1314 LINE",
"286 -164 LINE"
);
},
{
closed = 1;
nodes = (
"883 -16 OFFCURVE",
"1100 176 OFFCURVE",
"1106 534 CURVE SMOOTH",
"1110 850 OFFCURVE",
"973 1128 OFFCURVE",
"610 1128 CURVE SMOOTH",
"318 1128 OFFCURVE",
"98 938 OFFCURVE",
"94 580 CURVE",
"90 262 OFFCURVE",
"227 -16 OFFCURVE",
"590 -16 CURVE SMOOTH"
);
},
{
closed = 1;
nodes = (
"412 151 OFFCURVE",
"329 345 OFFCURVE",
"329 577 CURVE SMOOTH",
"329 826 OFFCURVE",
"422 967 OFFCURVE",
"604 963 CURVE",
"790 961 OFFCURVE",
"872 774 OFFCURVE",
"872 543 CURVE SMOOTH",
"872 293 OFFCURVE",
"779 144 OFFCURVE",
"596 147 CURVE SMOOTH"
);
}
);
width = 1200;
}
);
leftKerningGroup = o;
rightKerningGroup = o;
unicode = 00F8;
},
{
glyphname = oe;
lastChange = "2019-04-06 02:48:40 +0000";
layers = (
{
anchors = (
{
name = bottom;
position = "{966, 0}";
},
{
name = btm;
position = "{988, -166}";
},
{
name = top;
position = "{988, 1660}";
}
);
layerId = "8BC678DE-46B6-4C98-A96E-C0ED61786D32";
paths = (
{
closed = 1;
nodes = (
"1554 -16 OFFCURVE",
"1720 26 OFFCURVE",
"1794 86 CURVE",
"1762 182 LINE",
"1704 144 OFFCURVE",
"1558 108 OFFCURVE",
"1458 108 CURVE SMOOTH",
"1252 108 OFFCURVE",
"1102 214 OFFCURVE",
"1092 500 CURVE",
"1084 866 OFFCURVE",
"1228 1012 OFFCURVE",
"1420 1012 CURVE SMOOTH",
"1622 1012 OFFCURVE",
"1688 854 OFFCURVE",
"1676 650 CURVE",
"1046 650 LINE",
"1032 540 LINE",
"1822 540 LINE",
"1830 586 OFFCURVE",
"1830 640 OFFCURVE",
"1830 710 CURVE SMOOTH",
"1824 964 OFFCURVE",
"1666 1132 OFFCURVE",
"1430 1128 CURVE SMOOTH",
"1112 1126 OFFCURVE",
"932 886 OFFCURVE",
"932 552 CURVE SMOOTH",
"932 196 OFFCURVE",
"1104 -16 OFFCURVE",
"1416 -16 CURVE SMOOTH"
);
},
{
closed = 1;
nodes = (
"366 104 OFFCURVE",
"268 322 OFFCURVE",
"268 576 CURVE SMOOTH",
"270 854 OFFCURVE",
"398 1014 OFFCURVE",
"608 1010 CURVE",
"830 1008 OFFCURVE",
"934 804 OFFCURVE",
"932 548 CURVE SMOOTH",
"932 270 OFFCURVE",
"806 98 OFFCURVE",
"592 100 CURVE SMOOTH"
);
},
{
closed = 1;
nodes = (
"876 -16 OFFCURVE",
"1086 186 OFFCURVE",
"1092 542 CURVE SMOOTH",
"1094 856 OFFCURVE",
"958 1128 OFFCURVE",
"612 1128 CURVE SMOOTH",
"328 1128 OFFCURVE",
"108 932 OFFCURVE",
"102 578 CURVE SMOOTH",
"98 262 OFFCURVE",
"234 -16 OFFCURVE",
"588 -16 CURVE SMOOTH"
);
}
);
width = 1932;
},
{
anchors = (
{
name = bottom;
position = "{974, 0}";
},
{
name = btm;
position = "{1042, -166}";
},
{
name = top;
position = "{1042, 1660}";
}
);
layerId = "23A20576-2241-481A-AD5B-28E85381F753";
paths = (
{
closed = 1;
nodes = (
"1594 -16 OFFCURVE",
"1758 44 OFFCURVE",
"1832 104 CURVE",
"1778 300 LINE",
"1724 272 OFFCURVE",
"1586 244 OFFCURVE",
"1482 244 CURVE SMOOTH",
"1306 244 OFFCURVE",
"1206 316 OFFCURVE",
"1202 510 CURVE",
"1200 808 OFFCURVE",
"1268 896 OFFCURVE",
"1392 896 CURVE SMOOTH",
"1502 896 OFFCURVE",
"1542 814 OFFCURVE",
"1532 652 CURVE",
"1050 652 LINE",
"1032 476 LINE",
"1854 476 LINE",
"1860 524 OFFCURVE",
"1864 596 OFFCURVE",
"1864 676 CURVE SMOOTH",
"1864 1034 OFFCURVE",
"1636 1128 OFFCURVE",
"1400 1128 CURVE SMOOTH",
"1048 1128 OFFCURVE",
"852 886 OFFCURVE",
"852 562 CURVE SMOOTH",
"852 200 OFFCURVE",
"1040 -16 OFFCURVE",
"1396 -16 CURVE SMOOTH"
);
},
{
closed = 1;
nodes = (
"506 234 OFFCURVE",
"462 384 OFFCURVE",
"462 568 CURVE SMOOTH",
"462 770 OFFCURVE",
"506 878 OFFCURVE",
"652 878 CURVE",
"792 878 OFFCURVE",
"834 730 OFFCURVE",
"834 550 CURVE SMOOTH",
"834 338 OFFCURVE",
"790 234 OFFCURVE",
"646 234 CURVE SMOOTH"
);
},
{
closed = 1;
nodes = (
"972 -16 OFFCURVE",
"1198 176 OFFCURVE",
"1202 534 CURVE SMOOTH",
"1208 854 OFFCURVE",
"1070 1128 OFFCURVE",
"660 1128 CURVE SMOOTH",
"324 1128 OFFCURVE",
"88 936 OFFCURVE",
"84 580 CURVE SMOOTH",
"80 260 OFFCURVE",
"226 -16 OFFCURVE",
"638 -16 CURVE SMOOTH"
);
}
);
width = 1946;
},
{
anchors = (
{
name = bottom;
position = "{942, 0}";
},
{
name = btm;
position = "{989, -166}";
},
{
name = top;
position = "{989, 1660}";
}
);
layerId = "247DB4A4-D150-4133-9396-DC38172DD635";
paths = (
{
closed = 1;
nodes = (
"1508 -16 OFFCURVE",
"1677 26 OFFCURVE",
"1751 86 CURVE",
"1710 219 LINE",
"1653 185 OFFCURVE",
"1502 159 OFFCURVE",
"1425 159 CURVE SMOOTH",
"1246 159 OFFCURVE",
"1107 241 OFFCURVE",
"1096 492 CURVE",
"1085 850 OFFCURVE",
"1204 965 OFFCURVE",
"1360 965 CURVE SMOOTH",
"1544 965 OFFCURVE",
"1581 813 OFFCURVE",
"1571 652 CURVE",
"1023 652 LINE",
"1003 505 LINE",
"1777 505 LINE",
"1787 555 OFFCURVE",
"1787 623 OFFCURVE",
"1787 705 CURVE SMOOTH",
"1781 993 OFFCURVE",
"1595 1132 OFFCURVE",
"1371 1128 CURVE SMOOTH",
"1043 1124 OFFCURVE",
"870 882 OFFCURVE",
"870 558 CURVE SMOOTH",
"870 198 OFFCURVE",
"1047 -16 OFFCURVE",
"1367 -16 CURVE SMOOTH"
);
},
{
closed = 1;
nodes = (
"410 151 OFFCURVE",
"329 345 OFFCURVE",
"329 577 CURVE SMOOTH",
"329 826 OFFCURVE",
"423 967 OFFCURVE",
"603 963 CURVE SMOOTH",
"789 961 OFFCURVE",
"870 774 OFFCURVE",
"870 543 CURVE SMOOTH",
"870 293 OFFCURVE",
"776 144 OFFCURVE",
"591 147 CURVE SMOOTH"
);
},
{
closed = 1;
nodes = (
"877 -16 OFFCURVE",
"1090 176 OFFCURVE",
"1096 534 CURVE SMOOTH",
"1098 850 OFFCURVE",
"970 1128 OFFCURVE",
"609 1128 CURVE",
"317 1128 OFFCURVE",
"100 938 OFFCURVE",
"94 580 CURVE SMOOTH",
"90 262 OFFCURVE",
"225 -16 OFFCURVE",
"587 -16 CURVE SMOOTH"
);
}
);
width = 1883;
}
);
leftKerningGroup = o;
rightKerningGroup = e;
unicode = 0153;
},
{
glyphname = p;
lastChange = "2019-04-06 02:48:40 +0000";
layers = (
{
anchors = (
{
name = bottom;
position = "{610, 0}";
},
{
name = btm;
position = "{616, -166}";
},
{
name = top;
position = "{680, 1660}";
}
);
layerId = "8BC678DE-46B6-4C98-A96E-C0ED61786D32";
paths = (
{
closed = 1;
nodes = (
"344 -494 LINE",
"344 -136 LINE",
"342 48 LINE",
"344 70 LINE",
"344 952 LINE",
"330 972 LINE",
"330 1114 LINE",
"182 1114 LINE",
"182 -494 LINE"
);
},
{
closed = 1;
nodes = (
"896 -16 OFFCURVE",
"1118 238 OFFCURVE",
"1118 592 CURVE SMOOTH",
"1118 970 OFFCURVE",
"906 1128 OFFCURVE",
"678 1128 CURVE SMOOTH",
"472 1128 OFFCURVE",
"366 1020 OFFCURVE",
"318 970 CURVE",
"344 886 LINE",
"398 934 OFFCURVE",
"504 1000 OFFCURVE",
"634 1000 CURVE SMOOTH",
"834 1000 OFFCURVE",
"954 860 OFFCURVE",
"952 570 CURVE SMOOTH",
"948 274 OFFCURVE",
"788 104 OFFCURVE",
"574 104 CURVE SMOOTH",
"454 104 OFFCURVE",
"380 128 OFFCURVE",
"344 160 CURVE",
"284 52 LINE",
"308 30 OFFCURVE",
"416 -16 OFFCURVE",
"560 -16 CURVE SMOOTH"
);
}
);
width = 1218;
},
{
anchors = (
{
name = bottom;
position = "{676, 0}";
},
{
name = btm;
position = "{766, -166}";
},
{
name = top;
position = "{810, 1660}";
}
);
layerId = "23A20576-2241-481A-AD5B-28E85381F753";
paths = (
{
closed = 1;
nodes = (
"518 -494 LINE",
"518 -136 LINE",
"514 42 LINE",
"518 144 LINE",
"518 954 LINE",
"498 978 LINE",
"498 1114 LINE",
"156 1114 LINE",
"156 -494 LINE"
);
},
{
closed = 1;
nodes = (
"1040 -16 OFFCURVE",
"1268 220 OFFCURVE",
"1268 598 CURVE SMOOTH",
"1268 958 OFFCURVE",
"1062 1128 OFFCURVE",
"824 1128 CURVE SMOOTH",
"626 1128 OFFCURVE",
"526 1038 OFFCURVE",
"480 988 CURVE",
"518 802 LINE",
"556 832 OFFCURVE",
"630 860 OFFCURVE",
"702 860 CURVE SMOOTH",
"816 860 OFFCURVE",
"888 790 OFFCURVE",
"888 576 CURVE SMOOTH",
"886 350 OFFCURVE",
"798 228 OFFCURVE",
"670 228 CURVE SMOOTH",
"604 228 OFFCURVE",
"546 240 OFFCURVE",
"518 268 CURVE",
"456 40 LINE",
"480 22 OFFCURVE",
"566 -16 OFFCURVE",
"698 -16 CURVE SMOOTH"
);
}
);
width = 1352;
},
{
anchors = (
{
name = bottom;
position = "{612, 0}";
},
{
name = btm;
position = "{635, -166}";
},
{
name = top;
position = "{699, 1660}";
}
);
layerId = "247DB4A4-D150-4133-9396-DC38172DD635";
paths = (
{
closed = 1;
nodes = (
"392 -494 LINE",
"392 -136 LINE",
"390 46 LINE",
"392 92 LINE",
"392 954 LINE",
"372 978 LINE",
"372 1114 LINE",
"162 1114 LINE",
"162 -494 LINE"
);
},
{
closed = 1;
nodes = (
"911 -16 OFFCURVE",
"1132 236 OFFCURVE",
"1132 598 CURVE SMOOTH",
"1132 958 OFFCURVE",
"927 1128 OFFCURVE",
"691 1128 CURVE SMOOTH",
"490 1128 OFFCURVE",
"402 1025 OFFCURVE",
"356 977 CURVE",
"392 863 LINE",
"440 900 OFFCURVE",
"523 950 OFFCURVE",
"627 950 CURVE SMOOTH",
"798 950 OFFCURVE",
"898 835 OFFCURVE",
"896 569 CURVE SMOOTH",
"892 298 OFFCURVE",
"761 150 OFFCURVE",
"589 150 CURVE SMOOTH",
"498 150 OFFCURVE",
"434 164 OFFCURVE",
"392 200 CURVE",
"312 52 LINE",
"338 30 OFFCURVE",
"435 -16 OFFCURVE",
"573 -16 CURVE SMOOTH"
);
}
);
width = 1224;
}
);
leftKerningGroup = n;
rightKerningGroup = b;
rightMetricsKey = b;
unicode = 0070;
},
{
glyphname = thorn;
lastChange = "2019-04-06 02:56:25 +0000";
layers = (
{
anchors = (
{
name = bottom;
position = "{616, 0}";
},
{
name = top;
position = "{616, 1114}";
}
);
components = (
{
name = b;
transform = "{1, 0, 0, 1, 8, 0}";
}
);
layerId = "8BC678DE-46B6-4C98-A96E-C0ED61786D32";
paths = (
{
closed = 1;
nodes = (
"188 -496 LINE",
"346 -496 LINE",
"346 -148 LINE",
"340 28 LINE",
"188 62 LINE"
);
}
);
width = 1230;
},
{
anchors = (
{
name = bottom;
position = "{674, 0}";
},
{
name = top;
position = "{674, 1114}";
}
);
components = (
{
name = b;
}
);
layerId = "23A20576-2241-481A-AD5B-28E85381F753";
paths = (
{
closed = 1;
nodes = (
"156 -496 LINE",
"520 -496 LINE",
"520 -166 LINE",
"516 10 LINE",
"156 62 LINE"
);
}
);
width = 1324;
},
{
anchors = (
{
name = bottom;
position = "{621, 0}";
},
{
name = top;
position = "{621, 1114}";
}
);
components = (
{
alignment = -1;
name = b;
transform = "{1, 0, 0, 1, 9, 0}";
}
);
layerId = "247DB4A4-D150-4133-9396-DC38172DD635";
paths = (
{
closed = 1;
nodes = (
"171 -496 LINE",
"403 -496 LINE",
"403 -166 LINE",
"391 18 LINE",
"171 62 LINE"
);
}
);
width = 1242;
}
);
leftKerningGroup = b;
leftMetricsKey = h;
rightKerningGroup = b;
rightMetricsKey = b;
unicode = 00FE;
},
{
glyphname = q;
lastChange = "2019-04-06 02:48:40 +0000";
layers = (
{
anchors = (
{
name = bottom;
position = "{604, 0}";
},
{
name = btm;
position = "{592, -166}";
},
{
name = top;
position = "{568, 1660}";
}
);
layerId = "8BC678DE-46B6-4C98-A96E-C0ED61786D32";
paths = (
{
closed = 1;
nodes = (
"872 -494 LINE",
"1036 -494 LINE",
"1036 1118 LINE",
"854 1080 LINE",
"888 1000 LINE",
"872 978 LINE",
"872 188 LINE",
"876 118 LINE",
"872 -136 LINE"
);
},
{
closed = 1;
nodes = (
"746 -16 OFFCURVE",
"852 94 OFFCURVE",
"902 142 CURVE",
"876 226 LINE",
"822 180 OFFCURVE",
"714 112 OFFCURVE",
"584 112 CURVE SMOOTH",
"384 112 OFFCURVE",
"262 252 OFFCURVE",
"266 542 CURVE SMOOTH",
"270 840 OFFCURVE",
"430 1010 OFFCURVE",
"642 1010 CURVE SMOOTH",
"764 1010 OFFCURVE",
"838 986 OFFCURVE",
"874 954 CURVE",
"946 1060 LINE",
"922 1084 OFFCURVE",
"802 1128 OFFCURVE",
"658 1128 CURVE SMOOTH",
"322 1128 OFFCURVE",
"100 876 OFFCURVE",
"100 520 CURVE SMOOTH",
"100 144 OFFCURVE",
"312 -16 OFFCURVE",
"540 -16 CURVE SMOOTH"
);
}
);
width = 1208;
},
{
anchors = (
{
name = bottom;
position = "{676, 0}";
},
{
name = btm;
position = "{578, -166}";
},
{
name = top;
position = "{584, 1662}";
}
);
layerId = "23A20576-2241-481A-AD5B-28E85381F753";
paths = (
{
closed = 1;
nodes = (
"834 -494 LINE",
"1194 -494 LINE",
"1194 1114 LINE",
"882 1072 LINE",
"856 978 LINE",
"834 954 LINE",
"834 192 LINE",
"838 106 LINE",
"834 -136 LINE"
);
},
{
closed = 1;
nodes = (
"724 -16 OFFCURVE",
"826 76 OFFCURVE",
"872 126 CURVE",
"834 308 LINE",
"796 280 OFFCURVE",
"720 254 OFFCURVE",
"650 254 CURVE SMOOTH",
"536 254 OFFCURVE",
"462 328 OFFCURVE",
"464 536 CURVE SMOOTH",
"464 766 OFFCURVE",
"554 878 OFFCURVE",
"680 878 CURVE SMOOTH",
"748 878 OFFCURVE",
"804 870 OFFCURVE",
"834 846 CURVE",
"968 1062 LINE",
"908 1094 OFFCURVE",
"786 1128 OFFCURVE",
"652 1128 CURVE SMOOTH",
"312 1128 OFFCURVE",
"84 896 OFFCURVE",
"84 518 CURVE SMOOTH",
"84 158 OFFCURVE",
"290 -16 OFFCURVE",
"526 -16 CURVE SMOOTH"
);
}
);
width = 1350;
},
{
anchors = (
{
name = bottom;
position = "{612, 0}";
},
{
name = btm;
position = "{583, -166}";
},
{
name = top;
position = "{556, 1660}";
}
);
layerId = "247DB4A4-D150-4133-9396-DC38172DD635";
paths = (
{
closed = 1;
nodes = (
"834 -494 LINE",
"1064 -494 LINE",
"1064 1114 LINE",
"862 1076 LINE",
"856 978 LINE",
"834 954 LINE",
"834 196 LINE",
"838 106 LINE",
"834 -136 LINE"
);
},
{
closed = 1;
nodes = (
"735 -16 OFFCURVE",
"824 87 OFFCURVE",
"870 137 CURVE",
"834 251 LINE",
"788 215 OFFCURVE",
"701 166 OFFCURVE",
"597 166 CURVE SMOOTH",
"426 166 OFFCURVE",
"326 282 OFFCURVE",
"330 544 CURVE SMOOTH",
"332 818 OFFCURVE",
"465 961 OFFCURVE",
"635 961 CURVE SMOOTH",
"726 961 OFFCURVE",
"792 949 OFFCURVE",
"834 915 CURVE",
"935 1062 LINE",
"911 1084 OFFCURVE",
"789 1128 OFFCURVE",
"652 1128 CURVE SMOOTH",
"315 1128 OFFCURVE",
"92 878 OFFCURVE",
"92 517 CURVE SMOOTH",
"92 155 OFFCURVE",
"299 -16 OFFCURVE",
"533 -16 CURVE SMOOTH"
);
}
);
width = 1224;
}
);
leftKerningGroup = d;
leftMetricsKey = d;
rightKerningGroup = q;
unicode = 0071;
},
{
glyphname = r;
lastChange = "2019-04-06 02:48:40 +0000";
layers = (
{
anchors = (
{
name = bottom;
position = "{254, 0}";
},
{
name = btm;
position = "{264, -166}";
},
{
name = top;
position = "{470, 1660}";
}
);
layerId = "8BC678DE-46B6-4C98-A96E-C0ED61786D32";
paths = (
{
closed = 1;
nodes = (
"378 902 OFFCURVE",
"494 986 OFFCURVE",
"630 986 CURVE SMOOTH",
"712 986 OFFCURVE",
"746 972 OFFCURVE",
"766 962 CURVE",
"766 1116 LINE",
"746 1124 OFFCURVE",
"710 1128 OFFCURVE",
"660 1128 CURVE SMOOTH",
"506 1128 OFFCURVE",
"348 1010 OFFCURVE",
"314 954 CURVE",
"326 846 LINE"
);
},
{
closed = 1;
nodes = (
"336 0 LINE",
"336 884 LINE",
"322 954 LINE",
"312 1112 LINE",
"172 1112 LINE",
"172 0 LINE"
);
}
);
width = 798;
},
{
anchors = (
{
name = bottom;
position = "{318, 0}";
},
{
name = btm;
position = "{318, -166}";
},
{
name = top;
position = "{522, 1662}";
}
);
layerId = "23A20576-2241-481A-AD5B-28E85381F753";
paths = (
{
closed = 1;
nodes = (
"512 702 OFFCURVE",
"590 788 OFFCURVE",
"750 788 CURVE SMOOTH",
"818 788 OFFCURVE",
"852 772 OFFCURVE",
"870 760 CURVE",
"870 1118 LINE",
"856 1126 OFFCURVE",
"820 1130 OFFCURVE",
"788 1130 CURVE SMOOTH",
"632 1130 OFFCURVE",
"502 1040 OFFCURVE",
"462 918 CURVE",
"476 656 LINE"
);
},
{
closed = 1;
nodes = (
"498 0 LINE",
"498 886 LINE",
"470 916 LINE",
"452 1114 LINE",
"136 1114 LINE",
"136 0 LINE"
);
}
);
width = 930;
},
{
anchors = (
{
name = bottom;
position = "{268, 0}";
},
{
name = btm;
position = "{264, -166}";
},
{
name = top;
position = "{478, 1660}";
}
);
layerId = "247DB4A4-D150-4133-9396-DC38172DD635";
paths = (
{
closed = 1;
nodes = (
"416 864 OFFCURVE",
"504 926 OFFCURVE",
"628 926 CURVE SMOOTH",
"718 926 OFFCURVE",
"752 910 OFFCURVE",
"772 900 CURVE",
"772 1116 LINE",
"754 1126 OFFCURVE",
"716 1130 OFFCURVE",
"666 1130 CURVE SMOOTH",
"530 1130 OFFCURVE",
"386 1032 OFFCURVE",
"356 970 CURVE",
"370 818 LINE"
);
},
{
closed = 1;
nodes = (
"382 0 LINE",
"382 886 LINE",
"364 970 LINE",
"348 1112 LINE",
"152 1112 LINE",
"152 0 LINE"
);
}
);
width = 806;
}
);
leftKerningGroup = n;
rightKerningGroup = r;
unicode = 0072;
},
{
glyphname = s;
lastChange = "2019-04-06 02:48:40 +0000";
layers = (
{
anchors = (
{
name = bottom;
position = "{468, 0}";
},
{
name = btm;
position = "{478, -166}";
},
{
name = top;
position = "{484, 1660}";
}
);
layerId = "8BC678DE-46B6-4C98-A96E-C0ED61786D32";
paths = (
{
closed = 1;
nodes = (
"172 22 OFFCURVE",
"320 -16 OFFCURVE",
"462 -16 CURVE SMOOTH",
"698 -16 OFFCURVE",
"850 94 OFFCURVE",
"850 290 CURVE SMOOTH",
"850 482 OFFCURVE",
"658 564 OFFCURVE",
"484 638 CURVE SMOOTH",
"366 688 OFFCURVE",
"266 740 OFFCURVE",
"268 856 CURVE SMOOTH",
"270 944 OFFCURVE",
"352 1008 OFFCURVE",
"512 1008 CURVE SMOOTH",
"620 1008 OFFCURVE",
"726 976 OFFCURVE",
"764 948 CURVE",
"792 1072 LINE",
"752 1094 OFFCURVE",
"636 1130 OFFCURVE",
"506 1128 CURVE SMOOTH",
"296 1128 OFFCURVE",
"120 1040 OFFCURVE",
"116 848 CURVE SMOOTH",
"114 666 OFFCURVE",
"262 570 OFFCURVE",
"472 486 CURVE SMOOTH",
"566 448 OFFCURVE",
"698 396 OFFCURVE",
"698 278 CURVE SMOOTH",
"698 164 OFFCURVE",
"596 106 OFFCURVE",
"454 106 CURVE SMOOTH",
"320 108 OFFCURVE",
"176 158 OFFCURVE",
"134 188 CURVE",
"108 64 LINE"
);
}
);
width = 948;
},
{
anchors = (
{
name = bottom;
position = "{512, 0}";
},
{
name = btm;
position = "{524, -166}";
},
{
name = top;
position = "{530, 1660}";
}
);
layerId = "23A20576-2241-481A-AD5B-28E85381F753";
paths = (
{
closed = 1;
nodes = (
"148 36 OFFCURVE",
"316 -16 OFFCURVE",
"500 -16 CURVE SMOOTH",
"784 -16 OFFCURVE",
"970 106 OFFCURVE",
"970 338 CURVE SMOOTH",
"970 514 OFFCURVE",
"868 600 OFFCURVE",
"604 696 CURVE SMOOTH",
"486 740 OFFCURVE",
"434 756 OFFCURVE",
"434 816 CURVE SMOOTH",
"434 866 OFFCURVE",
"480 892 OFFCURVE",
"604 892 CURVE SMOOTH",
"712 892 OFFCURVE",
"832 842 OFFCURVE",
"872 806 CURVE",
"904 1060 LINE",
"854 1088 OFFCURVE",
"728 1128 OFFCURVE",
"546 1128 CURVE SMOOTH",
"292 1128 OFFCURVE",
"84 1020 OFFCURVE",
"84 804 CURVE SMOOTH",
"82 634 OFFCURVE",
"166 524 OFFCURVE",
"410 436 CURVE SMOOTH",
"522 396 OFFCURVE",
"612 364 OFFCURVE",
"612 306 CURVE SMOOTH",
"612 250 OFFCURVE",
"566 224 OFFCURVE",
"450 226 CURVE SMOOTH",
"304 226 OFFCURVE",
"154 296 OFFCURVE",
"122 324 CURVE",
"86 74 LINE"
);
}
);
width = 1030;
},
{
anchors = (
{
name = bottom;
position = "{478, 0}";
},
{
name = btm;
position = "{484, -166}";
},
{
name = top;
position = "{490, 1660}";
}
);
layerId = "247DB4A4-D150-4133-9396-DC38172DD635";
paths = (
{
closed = 1;
nodes = (
"158 26 OFFCURVE",
"310 -16 OFFCURVE",
"464 -16 CURVE SMOOTH",
"712 -16 OFFCURVE",
"864 94 OFFCURVE",
"864 302 CURVE SMOOTH",
"864 486 OFFCURVE",
"704 566 OFFCURVE",
"498 666 CURVE SMOOTH",
"402 712 OFFCURVE",
"322 748 OFFCURVE",
"324 846 CURVE SMOOTH",
"326 916 OFFCURVE",
"396 958 OFFCURVE",
"532 958 CURVE SMOOTH",
"634 958 OFFCURVE",
"738 926 OFFCURVE",
"774 896 CURVE",
"808 1070 LINE",
"774 1090 OFFCURVE",
"660 1128 OFFCURVE",
"520 1128 CURVE SMOOTH",
"294 1128 OFFCURVE",
"114 1032 OFFCURVE",
"110 834 CURVE SMOOTH",
"108 652 OFFCURVE",
"234 558 OFFCURVE",
"414 476 CURVE SMOOTH",
"548 416 OFFCURVE",
"646 370 OFFCURVE",
"646 284 CURVE SMOOTH",
"646 202 OFFCURVE",
"578 154 OFFCURVE",
"450 156 CURVE SMOOTH",
"308 158 OFFCURVE",
"166 214 OFFCURVE",
"136 236 CURVE",
"104 66 LINE"
);
}
);
width = 960;
}
);
leftKerningGroup = s;
rightKerningGroup = s;
unicode = 0073;
},
{
glyphname = germandbls;
lastChange = "2019-04-06 02:48:40 +0000";
layers = (
{
anchors = (
{
name = bottom;
position = "{622, 0}";
},
{
name = top;
position = "{622, 1114}";
}
);
layerId = "8BC678DE-46B6-4C98-A96E-C0ED61786D32";
paths = (
{
closed = 1;
nodes = (
"344 0 LINE",
"344 952 LINE SMOOTH",
"344 1298 OFFCURVE",
"486 1426 OFFCURVE",
"672 1426 CURVE SMOOTH",
"792 1426 OFFCURVE",
"894 1380 OFFCURVE",
"894 1256 CURVE SMOOTH",
"894 1062 OFFCURVE",
"684 1012 OFFCURVE",
"684 834 CURVE SMOOTH",
"684 552 OFFCURVE",
"1032 528 OFFCURVE",
"1034 286 CURVE SMOOTH",
"1034 156 OFFCURVE",
"928 100 OFFCURVE",
"820 100 CURVE SMOOTH",
"702 100 OFFCURVE",
"626 126 OFFCURVE",
"588 146 CURVE",
"588 16 LINE",
"626 0 OFFCURVE",
"716 -16 OFFCURVE",
"814 -16 CURVE SMOOTH",
"994 -16 OFFCURVE",
"1198 70 OFFCURVE",
"1198 304 CURVE SMOOTH",
"1198 628 OFFCURVE",
"836 654 OFFCURVE",
"836 854 CURVE SMOOTH",
"836 992 OFFCURVE",
"1056 1046 OFFCURVE",
"1056 1278 CURVE SMOOTH",
"1056 1458 OFFCURVE",
"882 1542 OFFCURVE",
"700 1542 CURVE SMOOTH",
"418 1542 OFFCURVE",
"186 1370 OFFCURVE",
"186 962 CURVE SMOOTH",
"186 0 LINE"
);
},
{
closed = 1;
nodes = (
"198 990 LINE",
"238 1042 LINE",
"212 1120 LINE",
"42 1086 LINE",
"42 990 LINE"
);
}
);
width = 1250;
},
{
anchors = (
{
name = bottom;
position = "{690, 0}";
},
{
name = top;
position = "{690, 1114}";
}
);
layerId = "23A20576-2241-481A-AD5B-28E85381F753";
paths = (
{
closed = 1;
nodes = (
"538 0 LINE",
"538 930 LINE SMOOTH",
"538 1218 OFFCURVE",
"624 1314 OFFCURVE",
"760 1314 CURVE SMOOTH",
"850 1314 OFFCURVE",
"900 1264 OFFCURVE",
"900 1190 CURVE SMOOTH",
"900 1022 OFFCURVE",
"712 1004 OFFCURVE",
"712 822 CURVE SMOOTH",
"712 592 OFFCURVE",
"964 536 OFFCURVE",
"964 354 CURVE SMOOTH",
"964 250 OFFCURVE",
"880 224 OFFCURVE",
"814 224 CURVE SMOOTH",
"752 224 OFFCURVE",
"692 250 OFFCURVE",
"672 260 CURVE",
"672 20 LINE",
"702 2 OFFCURVE",
"802 -16 OFFCURVE",
"906 -16 CURVE SMOOTH",
"1124 -16 OFFCURVE",
"1340 60 OFFCURVE",
"1340 362 CURVE SMOOTH",
"1340 676 OFFCURVE",
"1030 760 OFFCURVE",
"1030 880 CURVE SMOOTH",
"1030 998 OFFCURVE",
"1256 1004 OFFCURVE",
"1256 1242 CURVE SMOOTH",
"1256 1412 OFFCURVE",
"1096 1542 OFFCURVE",
"810 1542 CURVE SMOOTH",
"460 1542 OFFCURVE",
"172 1380 OFFCURVE",
"172 960 CURVE SMOOTH",
"172 0 LINE"
);
},
{
closed = 1;
nodes = (
"174 876 LINE",
"224 1010 LINE",
"196 1126 LINE",
"40 1094 LINE",
"40 876 LINE"
);
}
);
width = 1380;
},
{
anchors = (
{
name = bottom;
position = "{644, 0}";
},
{
name = top;
position = "{644, 1114}";
}
);
layerId = "247DB4A4-D150-4133-9396-DC38172DD635";
paths = (
{
closed = 1;
nodes = (
"416 0 LINE",
"416 926 LINE SMOOTH",
"416 1276 OFFCURVE",
"530 1382 OFFCURVE",
"692 1382 CURVE SMOOTH",
"812 1382 OFFCURVE",
"878 1332 OFFCURVE",
"878 1236 CURVE SMOOTH",
"878 1066 OFFCURVE",
"676 1012 OFFCURVE",
"676 830 CURVE SMOOTH",
"676 528 OFFCURVE",
"1002 502 OFFCURVE",
"1004 288 CURVE SMOOTH",
"1004 178 OFFCURVE",
"918 144 OFFCURVE",
"842 144 CURVE SMOOTH",
"728 144 OFFCURVE",
"652 176 OFFCURVE",
"618 194 CURVE",
"618 16 LINE",
"656 0 OFFCURVE",
"744 -16 OFFCURVE",
"846 -16 CURVE SMOOTH",
"1038 -16 OFFCURVE",
"1238 66 OFFCURVE",
"1238 310 CURVE SMOOTH",
"1238 636 OFFCURVE",
"886 666 OFFCURVE",
"886 858 CURVE SMOOTH",
"886 990 OFFCURVE",
"1110 1048 OFFCURVE",
"1110 1266 CURVE SMOOTH",
"1110 1444 OFFCURVE",
"944 1542 OFFCURVE",
"728 1542 CURVE SMOOTH",
"426 1542 OFFCURVE",
"186 1366 OFFCURVE",
"186 946 CURVE SMOOTH",
"186 0 LINE"
);
},
{
closed = 1;
nodes = (
"194 944 LINE",
"248 1018 LINE",
"216 1120 LINE",
"50 1080 LINE",
"50 944 LINE"
);
}
);
width = 1282;
}
);
leftKerningGroup = f;
rightKerningGroup = o;
unicode = 00DF;
},
{
glyphname = t;
lastChange = "2019-04-06 02:48:40 +0000";
layers = (
{
anchors = (
{
name = bottom;
position = "{412, 0}";
},
{
name = btm;
position = "{478, -166}";
},
{
name = center;
position = "{412, 558}";
},
{
name = top;
position = "{340, 1826}";
},
{
name = topright;
position = "{786, 1114}";
}
);
layerId = "8BC678DE-46B6-4C98-A96E-C0ED61786D32";
paths = (
{
closed = 1;
nodes = (
"586 -16 OFFCURVE",
"722 30 OFFCURVE",
"778 76 CURVE",
"750 170 LINE",
"712 146 OFFCURVE",
"608 116 OFFCURVE",
"540 116 CURVE SMOOTH",
"430 116 OFFCURVE",
"392 134 OFFCURVE",
"392 356 CURVE SMOOTH",
"392 990 LINE",
"738 990 LINE",
"738 1114 LINE",
"392 1114 LINE",
"392 1368 LINE",
"294 1368 LINE",
"274 1302 OFFCURVE",
"258 1184 OFFCURVE",
"246 1150 CURVE SMOOTH",
"228 1104 OFFCURVE",
"148 1100 OFFCURVE",
"76 1080 CURVE",
"76 990 LINE",
"230 990 LINE",
"230 264 LINE SMOOTH",
"230 26 OFFCURVE",
"348 -16 OFFCURVE",
"484 -16 CURVE SMOOTH"
);
}
);
width = 838;
},
{
anchors = (
{
name = bottom;
position = "{444, 0}";
},
{
name = btm;
position = "{488, -166}";
},
{
name = center;
position = "{444, 558}";
},
{
name = top;
position = "{424, 1826}";
},
{
name = topright;
position = "{856, 1114}";
}
);
layerId = "23A20576-2241-481A-AD5B-28E85381F753";
paths = (
{
closed = 1;
nodes = (
"664 -16 OFFCURVE",
"820 46 OFFCURVE",
"872 98 CURVE",
"830 298 LINE",
"796 276 OFFCURVE",
"716 254 OFFCURVE",
"666 254 CURVE SMOOTH",
"568 254 OFFCURVE",
"538 272 OFFCURVE",
"538 480 CURVE SMOOTH",
"538 876 LINE",
"826 876 LINE",
"826 1114 LINE",
"538 1114 LINE",
"538 1368 LINE",
"318 1368 LINE",
"292 1306 OFFCURVE",
"262 1226 OFFCURVE",
"240 1180 CURVE SMOOTH",
"210 1118 OFFCURVE",
"146 1096 OFFCURVE",
"48 1068 CURVE",
"48 876 LINE",
"176 876 LINE",
"176 346 LINE SMOOTH",
"176 104 OFFCURVE",
"262 -16 OFFCURVE",
"502 -16 CURVE SMOOTH"
);
}
);
width = 920;
},
{
anchors = (
{
name = bottom;
position = "{418, 0}";
},
{
name = btm;
position = "{480, -166}";
},
{
name = center;
position = "{418, 558}";
},
{
name = top;
position = "{374, 1826}";
},
{
name = topright;
position = "{798, 1114}";
}
);
layerId = "247DB4A4-D150-4133-9396-DC38172DD635";
paths = (
{
closed = 1;
nodes = (
"602 -16 OFFCURVE",
"734 32 OFFCURVE",
"794 78 CURVE",
"756 210 LINE",
"720 188 OFFCURVE",
"626 166 OFFCURVE",
"570 166 CURVE SMOOTH",
"466 166 OFFCURVE",
"446 184 OFFCURVE",
"446 400 CURVE SMOOTH",
"446 944 LINE",
"758 944 LINE",
"758 1114 LINE",
"446 1114 LINE",
"446 1368 LINE",
"308 1368 LINE",
"280 1280 OFFCURVE",
"258 1210 OFFCURVE",
"242 1166 CURVE SMOOTH",
"218 1102 OFFCURVE",
"170 1096 OFFCURVE",
"72 1068 CURVE",
"72 944 LINE",
"216 944 LINE",
"216 278 LINE SMOOTH",
"216 44 OFFCURVE",
"324 -16 OFFCURVE",
"482 -16 CURVE SMOOTH"
);
}
);
width = 846;
}
);
leftKerningGroup = t;
rightKerningGroup = t;
unicode = 0074;
},
{
glyphname = tbar;
lastChange = "2019-04-06 02:48:40 +0000";
layers = (
{
components = (
{
name = t;
}
);
layerId = "8BC678DE-46B6-4C98-A96E-C0ED61786D32";
paths = (
{
closed = 1;
nodes = (
"742 602 LINE",
"742 724 LINE",
"78 724 LINE",
"78 602 LINE"
);
}
);
width = 830;
},
{
components = (
{
name = t;
}
);
layerId = "23A20576-2241-481A-AD5B-28E85381F753";
paths = (
{
closed = 1;
nodes = (
"836 480 LINE",
"836 720 LINE",
"58 720 LINE",
"58 480 LINE"
);
}
);
width = 904;
},
{
components = (
{
alignment = -1;
name = t;
}
);
layerId = "247DB4A4-D150-4133-9396-DC38172DD635";
paths = (
{
closed = 1;
nodes = (
"762 569 LINE",
"762 738 LINE",
"80 738 LINE",
"80 569 LINE"
);
}
);
width = 841;
}
);
leftKerningGroup = t;
rightKerningGroup = t;
unicode = 0167;
},
{
glyphname = u;
lastChange = "2019-04-06 02:48:40 +0000";
layers = (
{
anchors = (
{
name = bottom;
position = "{586, 0}";
},
{
name = btm;
position = "{568, -166}";
},
{
name = ogonek;
position = "{1074, 20}";
},
{
name = top;
position = "{604, 1660}";
},
{
name = topright;
position = "{942, 1114}";
}
);
layerId = "8BC678DE-46B6-4C98-A96E-C0ED61786D32";
paths = (
{
closed = 1;
nodes = (
"612 -16 OFFCURVE",
"768 42 OFFCURVE",
"872 116 CURVE",
"870 144 LINE",
"870 54 LINE SMOOTH",
"870 -4 OFFCURVE",
"900 -12 OFFCURVE",
"952 -12 CURVE SMOOTH",
"1016 -12 LINE",
"1016 1114 LINE",
"852 1114 LINE",
"852 224 LINE",
"790 176 OFFCURVE",
"658 120 OFFCURVE",
"546 120 CURVE SMOOTH",
"372 120 OFFCURVE",
"316 174 OFFCURVE",
"316 454 CURVE SMOOTH",
"316 1114 LINE",
"154 1114 LINE",
"154 460 LINE SMOOTH",
"154 178 OFFCURVE",
"194 -16 OFFCURVE",
"480 -16 CURVE SMOOTH"
);
}
);
width = 1196;
},
{
anchors = (
{
name = bottom;
position = "{646, 0}";
},
{
name = btm;
position = "{628, -166}";
},
{
name = ogonek;
position = "{1178, 20}";
},
{
name = top;
position = "{650, 1660}";
},
{
name = topright;
position = "{1008, 1114}";
}
);
layerId = "23A20576-2241-481A-AD5B-28E85381F753";
paths = (
{
closed = 1;
nodes = (
"606 -16 OFFCURVE",
"752 30 OFFCURVE",
"830 94 CURVE",
"822 112 LINE",
"822 42 LINE SMOOTH",
"822 -6 OFFCURVE",
"844 -16 OFFCURVE",
"890 -16 CURVE SMOOTH",
"1152 -16 LINE",
"1152 1114 LINE",
"790 1114 LINE",
"790 296 LINE",
"764 274 OFFCURVE",
"698 244 OFFCURVE",
"632 244 CURVE SMOOTH",
"532 244 OFFCURVE",
"484 282 OFFCURVE",
"484 450 CURVE SMOOTH",
"484 1114 LINE",
"124 1114 LINE",
"124 458 LINE SMOOTH",
"124 184 OFFCURVE",
"172 -16 OFFCURVE",
"498 -16 CURVE SMOOTH"
);
}
);
width = 1296;
},
{
anchors = (
{
name = bottom;
position = "{598, 0}";
},
{
name = btm;
position = "{576, -166}";
},
{
name = ogonek;
position = "{1092, 20}";
},
{
name = top;
position = "{604, 1660}";
},
{
name = topright;
position = "{996, 1114}";
}
);
layerId = "247DB4A4-D150-4133-9396-DC38172DD635";
paths = (
{
closed = 1;
nodes = (
"604 -16 OFFCURVE",
"752 40 OFFCURVE",
"842 100 CURVE",
"838 144 LINE",
"838 66 LINE SMOOTH",
"838 -8 OFFCURVE",
"876 -16 OFFCURVE",
"938 -16 CURVE SMOOTH",
"1044 -16 LINE",
"1044 1114 LINE",
"814 1114 LINE",
"814 248 LINE",
"766 216 OFFCURVE",
"656 172 OFFCURVE",
"574 172 CURVE SMOOTH",
"434 172 OFFCURVE",
"376 200 OFFCURVE",
"376 464 CURVE SMOOTH",
"376 1114 LINE",
"146 1114 LINE",
"146 462 LINE SMOOTH",
"146 176 OFFCURVE",
"194 -16 OFFCURVE",
"484 -16 CURVE SMOOTH"
);
}
);
width = 1216;
}
);
leftKerningGroup = u;
rightKerningGroup = u;
unicode = 0075;
},
{
glyphname = v;
lastChange = "2019-04-06 02:48:40 +0000";
layers = (
{
anchors = (
{
name = bottom;
position = "{544, 0}";
},
{
name = top;
position = "{544, 1114}";
}
);
layerId = "8BC678DE-46B6-4C98-A96E-C0ED61786D32";
paths = (
{
closed = 1;
nodes = (
"620 -18 LINE",
"1052 1114 LINE",
"878 1114 LINE",
"634 422 LINE",
"530 76 LINE",
"578 76 LINE",
"464 422 LINE",
"212 1114 LINE",
"36 1114 LINE",
"482 -18 LINE"
);
}
);
width = 1088;
},
{
anchors = (
{
name = bottom;
position = "{586, 0}";
},
{
name = top;
position = "{586, 1114}";
}
);
layerId = "23A20576-2241-481A-AD5B-28E85381F753";
paths = (
{
closed = 1;
nodes = (
"760 -16 LINE",
"1178 1114 LINE",
"798 1114 LINE",
"660 628 LINE",
"564 208 LINE",
"628 208 LINE",
"524 628 LINE",
"380 1114 LINE",
"-6 1114 LINE",
"414 -16 LINE"
);
}
);
width = 1172;
},
{
anchors = (
{
name = bottom;
position = "{551, 0}";
},
{
name = top;
position = "{551, 1114}";
}
);
layerId = "247DB4A4-D150-4133-9396-DC38172DD635";
paths = (
{
closed = 1;
nodes = (
"655 -16 LINE",
"1082 1114 LINE",
"837 1114 LINE",
"633 495 LINE",
"530 121 LINE",
"590 121 LINE",
"478 495 LINE",
"267 1114 LINE",
"18 1114 LINE",
"456 -16 LINE"
);
}
);
width = 1100;
}
);
leftKerningGroup = v;
rightKerningGroup = v;
unicode = 0076;
},
{
glyphname = w;
lastChange = "2019-04-06 02:48:40 +0000";
layers = (
{
anchors = (
{
name = bottom;
position = "{798, 0}";
},
{
name = btm;
position = "{804, -162}";
},
{
name = top;
position = "{804, 1668}";
}
);
layerId = "8BC678DE-46B6-4C98-A96E-C0ED61786D32";
paths = (
{
closed = 1;
nodes = (
"542 -18 LINE",
"770 800 LINE",
"820 1030 LINE",
"784 1030 LINE",
"830 800 LINE",
"1062 -18 LINE",
"1212 -18 LINE",
"1558 1114 LINE",
"1400 1114 LINE",
"1184 344 LINE",
"1120 78 LINE",
"1164 78 LINE",
"1100 348 LINE",
"882 1114 LINE",
"722 1114 LINE",
"506 348 LINE",
"446 74 LINE",
"492 74 LINE",
"424 348 LINE",
"202 1114 LINE",
"38 1114 LINE",
"388 -18 LINE"
);
}
);
width = 1596;
},
{
anchors = (
{
name = bottom;
position = "{866, 0}";
},
{
name = btm;
position = "{870, -166}";
},
{
name = top;
position = "{870, 1662}";
}
);
layerId = "23A20576-2241-481A-AD5B-28E85381F753";
paths = (
{
closed = 1;
nodes = (
"660 -16 LINE",
"816 532 LINE",
"890 888 LINE",
"830 888 LINE",
"902 532 LINE",
"1064 -16 LINE",
"1380 -16 LINE",
"1732 1114 LINE",
"1396 1114 LINE",
"1290 664 LINE",
"1196 202 LINE",
"1268 202 LINE",
"1168 664 LINE",
"1036 1114 LINE",
"712 1114 LINE",
"580 664 LINE",
"472 200 LINE",
"548 200 LINE",
"452 664 LINE",
"350 1114 LINE",
"-2 1114 LINE",
"332 -16 LINE"
);
}
);
width = 1730;
},
{
anchors = (
{
name = bottom;
position = "{809, 0}";
},
{
name = btm;
position = "{813, -161}";
},
{
name = top;
position = "{813, 1669}";
}
);
layerId = "247DB4A4-D150-4133-9396-DC38172DD635";
paths = (
{
closed = 1;
nodes = (
"578 -16 LINE",
"770 688 LINE",
"835 988 LINE",
"787 988 LINE",
"848 688 LINE",
"1044 -16 LINE",
"1255 -16 LINE",
"1596 1114 LINE",
"1371 1114 LINE",
"1205 462 LINE",
"1126 113 LINE",
"1184 113 LINE",
"1107 469 LINE",
"926 1114 LINE",
"700 1114 LINE",
"519 467 LINE",
"443 109 LINE",
"505 109 LINE",
"424 469 LINE",
"251 1114 LINE",
"20 1114 LINE",
"360 -16 LINE"
);
}
);
width = 1616;
}
);
leftKerningGroup = w;
rightKerningGroup = w;
unicode = 0077;
},
{
glyphname = x;
lastChange = "2019-04-06 02:48:40 +0000";
layers = (
{
anchors = (
{
name = bottom;
position = "{524, 0}";
},
{
name = btm;
position = "{538, -166}";
},
{
name = top;
position = "{538, 1660}";
}
);
layerId = "8BC678DE-46B6-4C98-A96E-C0ED61786D32";
paths = (
{
closed = 1;
nodes = (
"226 0 LINE",
"482 390 LINE",
"548 514 LINE",
"482 516 LINE",
"556 398 LINE",
"826 0 LINE",
"1014 0 LINE",
"592 594 LINE",
"592 538 LINE",
"1010 1114 LINE",
"828 1114 LINE",
"562 730 LINE",
"502 614 LINE",
"558 614 LINE",
"490 724 LINE",
"224 1114 LINE",
"40 1114 LINE",
"456 536 LINE",
"454 588 LINE",
"40 0 LINE"
);
}
);
width = 1054;
},
{
anchors = (
{
name = bottom;
position = "{594, 0}";
},
{
name = btm;
position = "{606, -166}";
},
{
name = top;
position = "{606, 1660}";
}
);
layerId = "23A20576-2241-481A-AD5B-28E85381F753";
paths = (
{
closed = 1;
nodes = (
"408 0 LINE",
"566 284 LINE",
"630 414 LINE",
"544 414 LINE",
"618 284 LINE",
"794 0 LINE",
"1190 0 LINE",
"768 610 LINE",
"768 530 LINE",
"1182 1114 LINE",
"792 1114 LINE",
"644 860 LINE",
"570 716 LINE",
"648 716 LINE",
"562 860 LINE",
"402 1114 LINE",
"10 1114 LINE",
"418 522 LINE",
"410 588 LINE",
"8 0 LINE"
);
}
);
width = 1198;
},
{
anchors = (
{
name = bottom;
position = "{538, 0}";
},
{
name = btm;
position = "{552, -166}";
},
{
name = top;
position = "{552, 1660}";
}
);
layerId = "247DB4A4-D150-4133-9396-DC38172DD635";
paths = (
{
closed = 1;
nodes = (
"286 0 LINE",
"504 358 LINE",
"570 492 LINE",
"484 492 LINE",
"566 360 LINE",
"802 0 LINE",
"1068 0 LINE",
"638 606 LINE",
"638 532 LINE",
"1060 1114 LINE",
"800 1114 LINE",
"566 760 LINE",
"508 644 LINE",
"584 644 LINE",
"516 758 LINE",
"282 1114 LINE",
"20 1114 LINE",
"440 530 LINE",
"438 596 LINE",
"22 0 LINE"
);
}
);
width = 1088;
}
);
leftKerningGroup = x;
rightKerningGroup = x;
unicode = 0078;
},
{
glyphname = y;
lastChange = "2019-04-06 02:48:40 +0000";
layers = (
{
anchors = (
{
name = bottom;
position = "{890, 0}";
},
{
name = top;
position = "{592, 1660}";
}
);
layerId = "8BC678DE-46B6-4C98-A96E-C0ED61786D32";
paths = (
{
closed = 1;
nodes = (
"152 -490 OFFCURVE",
"220 -496 OFFCURVE",
"250 -496 CURVE SMOOTH",
"280 -496 OFFCURVE",
"322 -490 OFFCURVE",
"350 -482 CURVE SMOOTH",
"496 -442 OFFCURVE",
"596 -294 OFFCURVE",
"684 -28 CURVE SMOOTH",
"1066 1114 LINE",
"890 1114 LINE",
"658 350 LINE",
"572 54 LINE",
"620 54 LINE",
"520 350 LINE",
"252 1114 LINE",
"78 1114 LINE",
"496 0 LINE",
"564 0 LINE",
"550 22 LINE",
"478 -284 OFFCURVE",
"354 -360 OFFCURVE",
"238 -360 CURVE SMOOTH",
"210 -360 OFFCURVE",
"162 -354 OFFCURVE",
"142 -348 CURVE",
"142 -482 LINE"
);
}
);
width = 1082;
},
{
anchors = (
{
name = bottom;
position = "{1046, 0}";
},
{
name = top;
position = "{606, 1660}";
}
);
layerId = "23A20576-2241-481A-AD5B-28E85381F753";
paths = (
{
closed = 1;
nodes = (
"130 -484 OFFCURVE",
"254 -496 OFFCURVE",
"284 -496 CURVE SMOOTH",
"342 -496 OFFCURVE",
"426 -484 OFFCURVE",
"476 -464 CURVE SMOOTH",
"618 -412 OFFCURVE",
"750 -292 OFFCURVE",
"832 -26 CURVE SMOOTH",
"1182 1114 LINE",
"802 1114 LINE",
"678 528 LINE",
"598 162 LINE",
"626 162 LINE",
"538 528 LINE",
"378 1114 LINE",
"-4 1114 LINE",
"380 0 LINE",
"538 0 LINE",
"524 28 LINE",
"478 -204 OFFCURVE",
"344 -218 OFFCURVE",
"240 -218 CURVE SMOOTH",
"206 -218 OFFCURVE",
"140 -206 OFFCURVE",
"118 -198 CURVE",
"118 -476 LINE"
);
}
);
width = 1180;
},
{
anchors = (
{
name = bottom;
position = "{924, 0}";
},
{
name = top;
position = "{592, 1660}";
}
);
layerId = "247DB4A4-D150-4133-9396-DC38172DD635";
paths = (
{
closed = 1;
nodes = (
"150 -488 OFFCURVE",
"224 -496 OFFCURVE",
"254 -496 CURVE SMOOTH",
"284 -496 OFFCURVE",
"338 -488 OFFCURVE",
"366 -478 CURVE SMOOTH",
"510 -438 OFFCURVE",
"634 -302 OFFCURVE",
"722 -34 CURVE SMOOTH",
"1092 1114 LINE",
"844 1114 LINE",
"646 392 LINE",
"564 80 LINE",
"624 80 LINE",
"530 392 LINE",
"298 1114 LINE",
"50 1114 LINE",
"448 0 LINE",
"544 0 LINE",
"530 28 LINE",
"472 -260 OFFCURVE",
"320 -306 OFFCURVE",
"236 -306 CURVE SMOOTH",
"214 -306 OFFCURVE",
"160 -300 OFFCURVE",
"138 -292 CURVE",
"138 -480 LINE"
);
}
);
width = 1102;
}
);
leftKerningGroup = y;
rightKerningGroup = y;
unicode = 0079;
},
{
glyphname = z;
lastChange = "2019-04-06 02:48:40 +0000";
layers = (
{
anchors = (
{
name = bottom;
position = "{514, 0}";
},
{
name = btm;
position = "{514, -166}";
},
{
name = center;
position = "{514, 558}";
},
{
name = top;
position = "{526, 1660}";
}
);
layerId = "8BC678DE-46B6-4C98-A96E-C0ED61786D32";
paths = (
{
closed = 1;
nodes = (
"940 0 LINE",
"940 120 LINE",
"300 120 LINE",
"370 214 LINE",
"950 1042 LINE",
"922 1114 LINE",
"128 1114 LINE",
"128 988 LINE",
"730 988 LINE",
"662 892 LINE",
"80 64 LINE",
"114 0 LINE"
);
}
);
width = 1036;
},
{
anchors = (
{
name = bottom;
position = "{526, 0}";
},
{
name = btm;
position = "{528, -166}";
},
{
name = center;
position = "{526, 558}";
},
{
name = top;
position = "{552, 1660}";
}
);
layerId = "23A20576-2241-481A-AD5B-28E85381F753";
paths = (
{
closed = 1;
nodes = (
"998 0 LINE",
"998 254 LINE",
"518 254 LINE",
"582 344 LINE",
"1034 1020 LINE",
"998 1114 LINE",
"118 1114 LINE",
"116 868 LINE",
"554 868 LINE",
"496 778 LINE",
"34 82 LINE",
"76 0 LINE"
);
}
);
width = 1068;
},
{
anchors = (
{
name = bottom;
position = "{504, 0}";
},
{
name = btm;
position = "{504, -166}";
},
{
name = center;
position = "{504, 558}";
},
{
name = top;
position = "{510, 1660}";
}
);
layerId = "247DB4A4-D150-4133-9396-DC38172DD635";
paths = (
{
closed = 1;
nodes = (
"938 0 LINE",
"938 166 LINE",
"374 166 LINE",
"432 248 LINE",
"958 1020 LINE",
"924 1114 LINE",
"120 1114 LINE",
"120 942 LINE",
"648 942 LINE",
"590 860 LINE",
"60 80 LINE",
"102 0 LINE"
);
}
);
width = 1026;
}
);
leftKerningGroup = z;
rightKerningGroup = z;
unicode = 007A;
},
{
color = 9;
glyphname = a.sc;
lastChange = "2019-04-06 02:48:40 +0000";
layers = (
{
anchors = (
{
name = bottom;
position = "{658, 0}";
},
{
name = btm;
position = "{666, -218}";
},
{
name = ogonek;
position = "{1216, 0}";
},
{
name = top;
position = "{666, 1800}";
}
);
layerId = "8BC678DE-46B6-4C98-A96E-C0ED61786D32";
paths = (
{
closed = 1;
nodes = (
"630 1036 LINE",
"666 1150 LINE",
"698 1036 LINE",
"1102 0 LINE",
"1284 0 LINE",
"746 1306 LINE",
"582 1306 LINE",
"32 0 LINE",
"206 0 LINE"
);
},
{
closed = 1;
nodes = (
"1018 340 LINE",
"986 466 LINE",
"312 466 LINE",
"282 340 LINE"
);
}
);
userData = {
RMXScaler = {
adjustSpace = 2;
height = 87;
weight = 1;
width = 96;
};
};
width = 1316;
},
{
anchors = (
{
name = bottom;
position = "{684, 0}";
},
{
name = btm;
position = "{680, -218}";
},
{
name = ogonek;
position = "{1266, 0}";
},
{
name = top;
position = "{672, 1800}";
}
);
layerId = "23A20576-2241-481A-AD5B-28E85381F753";
paths = (
{
closed = 1;
nodes = (
"624 862 LINE",
"672 1050 LINE",
"720 862 LINE",
"1000 0 LINE",
"1382 0 LINE",
"894 1300 LINE",
"466 1300 LINE",
"-16 0 LINE",
"362 0 LINE"
);
},
{
closed = 1;
nodes = (
"1024 210 LINE",
"986 468 LINE",
"332 468 LINE",
"290 210 LINE"
);
}
);
userData = {
RMXScaler = {
adjustSpace = 2;
height = 87;
weight = 1;
width = 96;
};
};
width = 1366;
},
{
anchors = (
{
name = bottom;
position = "{668, 0}";
},
{
name = btm;
position = "{671, -218}";
},
{
name = ogonek;
position = "{1222, 0}";
},
{
name = top;
position = "{672, 1800}";
}
);
layerId = "247DB4A4-D150-4133-9396-DC38172DD635";
paths = (
{
closed = 1;
nodes = (
"630 952 LINE",
"672 1084 LINE",
"712 952 LINE",
"1063 0 LINE",
"1314 0 LINE",
"787 1305 LINE",
"552 1305 LINE",
"18 0 LINE",
"266 0 LINE"
);
},
{
closed = 1;
nodes = (
"1020 295 LINE",
"981 468 LINE",
"326 468 LINE",
"286 295 LINE"
);
}
);
width = 1334;
}
);
leftKerningGroup = a.sc;
rightKerningGroup = a.sc;
userData = {
RMXScaler = {
source = A;
};
};
},
{
color = 9;
glyphname = ae.sc;
lastChange = "2019-04-06 02:48:40 +0000";
layers = (
{
anchors = (
{
name = bottom;
position = "{872, 0}";
},
{
name = btm;
position = "{1302, -144}";
},
{
name = top;
position = "{1094, 1826}";
}
);
layerId = "8BC678DE-46B6-4C98-A96E-C0ED61786D32";
paths = (
{
closed = 1;
nodes = (
"136 0 LINE",
"762 1210 LINE",
"626 1292 LINE",
"-50 0 LINE"
);
},
{
closed = 1;
nodes = (
"626 1292 LINE",
"656 1162 LINE",
"856 1162 LINE",
"792 1292 LINE"
);
},
{
closed = 1;
nodes = (
"922 340 LINE",
"892 466 LINE",
"258 466 LINE",
"226 340 LINE"
);
},
{
closed = 1;
nodes = (
"1678 0 LINE",
"1678 132 LINE",
"958 132 LINE",
"958 602 LINE",
"1444 602 LINE",
"1444 732 LINE",
"958 732 LINE",
"958 1162 LINE",
"1608 1162 LINE",
"1608 1292 LINE",
"792 1292 LINE",
"792 0 LINE"
);
}
);
userData = {
RMXScaler = {
adjustSpace = 2;
height = 87;
weight = 1;
width = 96;
};
};
width = 1744;
},
{
anchors = (
{
name = bottom;
position = "{934, 0}";
},
{
name = btm;
position = "{1330, -144}";
},
{
name = top;
position = "{1084, 1800}";
}
);
layerId = "23A20576-2241-481A-AD5B-28E85381F753";
paths = (
{
closed = 1;
nodes = (
"290 0 LINE",
"804 1184 LINE",
"562 1292 LINE",
"-112 0 LINE"
);
},
{
closed = 1;
nodes = (
"562 1292 LINE",
"610 1050 LINE",
"864 1050 LINE",
"820 1292 LINE"
);
},
{
closed = 1;
nodes = (
"986 248 LINE",
"972 502 LINE",
"324 502 LINE",
"280 248 LINE"
);
},
{
closed = 1;
nodes = (
"1780 0 LINE",
"1780 286 LINE",
"1190 286 LINE",
"1190 526 LINE",
"1602 526 LINE",
"1602 798 LINE",
"1190 798 LINE",
"1190 1014 LINE",
"1724 1014 LINE",
"1724 1292 LINE",
"820 1292 LINE",
"820 0 LINE"
);
}
);
userData = {
RMXScaler = {
adjustSpace = 2;
height = 87;
weight = 1;
width = 96;
};
};
width = 1868;
},
{
anchors = (
{
name = bottom;
position = "{887, 0}";
},
{
name = btm;
position = "{1306, -144}";
},
{
name = top;
position = "{1072, 1826}";
}
);
layerId = "247DB4A4-D150-4133-9396-DC38172DD635";
paths = (
{
closed = 1;
nodes = (
"183 0 LINE",
"786 1196 LINE",
"612 1292 LINE",
"-76 0 LINE"
);
},
{
closed = 1;
nodes = (
"612 1292 LINE",
"642 1110 LINE",
"868 1110 LINE",
"796 1292 LINE"
);
},
{
closed = 1;
nodes = (
"951 316 LINE",
"921 486 LINE",
"268 486 LINE",
"227 316 LINE"
);
},
{
closed = 1;
nodes = (
"1697 0 LINE",
"1697 186 LINE",
"1032 186 LINE",
"1032 576 LINE",
"1476 576 LINE",
"1476 755 LINE",
"1032 755 LINE",
"1032 1112 LINE",
"1630 1112 LINE",
"1630 1292 LINE",
"796 1292 LINE",
"796 0 LINE"
);
}
);
width = 1773;
}
);
leftKerningGroup = ae.sc;
rightKerningGroup = e.sc;
userData = {
RMXScaler = {
source = AE;
};
};
},
{
color = 9;
glyphname = b.sc;
lastChange = "2019-04-06 02:48:40 +0000";
layers = (
{
anchors = (
{
name = bottom;
position = "{616, 0}";
},
{
name = btm;
position = "{652, -144}";
},
{
name = top;
position = "{618, 1800}";
}
);
layerId = "8BC678DE-46B6-4C98-A96E-C0ED61786D32";
paths = (
{
closed = 1;
nodes = (
"262 0 LINE",
"358 -4 OFFCURVE",
"486 -12 OFFCURVE",
"584 -12 CURVE SMOOTH",
"1004 -12 OFFCURVE",
"1148 146 OFFCURVE",
"1148 386 CURVE SMOOTH",
"1148 550 OFFCURVE",
"998 688 OFFCURVE",
"824 696 CURVE",
"990 732 OFFCURVE",
"1052 884 OFFCURVE",
"1052 1002 CURVE SMOOTH",
"1052 1188 OFFCURVE",
"898 1306 OFFCURVE",
"584 1306 CURVE SMOOTH",
"452 1306 OFFCURVE",
"378 1292 OFFCURVE",
"264 1292 CURVE",
"176 1294 LINE",
"176 0 LINE"
);
},
{
closed = 1;
nodes = (
"342 1176 LINE",
"386 1182 OFFCURVE",
"498 1186 OFFCURVE",
"552 1186 CURVE SMOOTH",
"754 1186 OFFCURVE",
"880 1124 OFFCURVE",
"880 976 CURVE SMOOTH",
"880 818 OFFCURVE",
"798 730 OFFCURVE",
"656 726 CURVE SMOOTH",
"596 724 OFFCURVE",
"402 720 OFFCURVE",
"342 728 CURVE"
);
},
{
closed = 1;
nodes = (
"342 602 LINE",
"392 608 OFFCURVE",
"556 604 OFFCURVE",
"636 604 CURVE SMOOTH",
"854 604 OFFCURVE",
"970 532 OFFCURVE",
"970 366 CURVE SMOOTH",
"970 176 OFFCURVE",
"842 110 OFFCURVE",
"602 110 CURVE SMOOTH",
"508 110 OFFCURVE",
"410 114 OFFCURVE",
"342 128 CURVE"
);
}
);
userData = {
RMXScaler = {
adjustSpace = 2;
height = 87;
weight = 1;
width = 96;
};
};
width = 1252;
},
{
anchors = (
{
name = bottom;
position = "{674, 0}";
},
{
name = btm;
position = "{792, -144}";
},
{
name = top;
position = "{674, 1800}";
}
);
layerId = "23A20576-2241-481A-AD5B-28E85381F753";
paths = (
{
closed = 1;
nodes = (
"330 0 LINE",
"416 -4 OFFCURVE",
"576 -12 OFFCURVE",
"704 -12 CURVE SMOOTH",
"1162 -12 OFFCURVE",
"1296 156 OFFCURVE",
"1296 392 CURVE SMOOTH",
"1296 562 OFFCURVE",
"1166 656 OFFCURVE",
"1008 678 CURVE",
"1152 714 OFFCURVE",
"1224 820 OFFCURVE",
"1224 962 CURVE SMOOTH",
"1224 1174 OFFCURVE",
"1072 1306 OFFCURVE",
"666 1306 CURVE SMOOTH",
"518 1306 OFFCURVE",
"422 1292 OFFCURVE",
"324 1292 CURVE",
"140 1294 LINE",
"140 0 LINE"
);
},
{
closed = 1;
nodes = (
"514 1046 LINE",
"530 1054 OFFCURVE",
"606 1054 OFFCURVE",
"628 1054 CURVE SMOOTH",
"778 1054 OFFCURVE",
"864 1030 OFFCURVE",
"864 932 CURVE SMOOTH",
"864 806 OFFCURVE",
"792 772 OFFCURVE",
"636 772 CURVE SMOOTH",
"612 772 OFFCURVE",
"540 776 OFFCURVE",
"514 780 CURVE"
);
},
{
closed = 1;
nodes = (
"514 538 LINE",
"532 542 OFFCURVE",
"620 546 OFFCURVE",
"666 546 CURVE SMOOTH",
"842 546 OFFCURVE",
"912 490 OFFCURVE",
"912 400 CURVE SMOOTH",
"912 280 OFFCURVE",
"836 228 OFFCURVE",
"680 228 CURVE SMOOTH",
"622 228 OFFCURVE",
"536 236 OFFCURVE",
"514 248 CURVE"
);
}
);
userData = {
RMXScaler = {
adjustSpace = 2;
height = 87;
weight = 1;
width = 96;
};
};
width = 1376;
},
{
anchors = (
{
name = bottom;
position = "{632, 0}";
},
{
name = btm;
position = "{686, -144}";
},
{
name = top;
position = "{628, 1800}";
}
);
layerId = "247DB4A4-D150-4133-9396-DC38172DD635";
paths = (
{
closed = 1;
nodes = (
"290 0 LINE",
"364 -4 OFFCURVE",
"504 -12 OFFCURVE",
"608 -12 CURVE SMOOTH",
"1054 -12 OFFCURVE",
"1188 156 OFFCURVE",
"1188 390 CURVE SMOOTH",
"1188 550 OFFCURVE",
"1054 680 OFFCURVE",
"880 692 CURVE",
"1030 728 OFFCURVE",
"1096 860 OFFCURVE",
"1096 988 CURVE SMOOTH",
"1096 1180 OFFCURVE",
"946 1304 OFFCURVE",
"614 1304 CURVE SMOOTH",
"472 1304 OFFCURVE",
"378 1292 OFFCURVE",
"284 1292 CURVE",
"172 1294 LINE",
"172 0 LINE"
);
},
{
closed = 1;
nodes = (
"402 1126 LINE",
"428 1134 OFFCURVE",
"538 1138 OFFCURVE",
"578 1138 CURVE SMOOTH",
"762 1138 OFFCURVE",
"864 1084 OFFCURVE",
"864 962 CURVE SMOOTH",
"864 812 OFFCURVE",
"776 744 OFFCURVE",
"642 744 CURVE SMOOTH",
"578 744 OFFCURVE",
"466 740 OFFCURVE",
"402 748 CURVE"
);
},
{
closed = 1;
nodes = (
"402 578 LINE",
"452 584 OFFCURVE",
"554 582 OFFCURVE",
"632 582 CURVE SMOOTH",
"846 582 OFFCURVE",
"942 518 OFFCURVE",
"942 374 CURVE SMOOTH",
"942 208 OFFCURVE",
"828 154 OFFCURVE",
"626 154 CURVE SMOOTH",
"554 154 OFFCURVE",
"434 156 OFFCURVE",
"402 174 CURVE"
);
}
);
width = 1284;
}
);
leftKerningGroup = h.sc;
leftMetricsKey = h.sc;
rightKerningGroup = b.sc;
userData = {
RMXScaler = {
source = B;
};
};
},
{
color = 9;
glyphname = c.sc;
lastChange = "2019-04-06 02:48:40 +0000";
layers = (
{
anchors = (
{
name = bottom;
position = "{624, 0}";
},
{
name = btm;
position = "{744, -144}";
},
{
name = top;
position = "{736, 1792}";
}
);
layerId = "8BC678DE-46B6-4C98-A96E-C0ED61786D32";
paths = (
{
closed = 1;
nodes = (
"102 248 OFFCURVE",
"338 -14 OFFCURVE",
"730 -14 CURVE SMOOTH",
"926 -14 OFFCURVE",
"1002 26 OFFCURVE",
"1086 54 CURVE",
"1084 198 LINE",
"1034 162 OFFCURVE",
"908 120 OFFCURVE",
"738 120 CURVE SMOOTH",
"430 120 OFFCURVE",
"268 344 OFFCURVE",
"268 652 CURVE SMOOTH",
"268 976 OFFCURVE",
"452 1170 OFFCURVE",
"744 1170 CURVE SMOOTH",
"964 1170 OFFCURVE",
"1028 1120 OFFCURVE",
"1064 1108 CURVE",
"1088 1258 LINE",
"1032 1268 OFFCURVE",
"956 1306 OFFCURVE",
"736 1306 CURVE SMOOTH",
"382 1306 OFFCURVE",
"102 1068 OFFCURVE",
"102 640 CURVE SMOOTH"
);
}
);
userData = {
RMXScaler = {
adjustSpace = 2;
height = 87;
weight = 1;
width = 96;
};
};
width = 1200;
},
{
anchors = (
{
name = bottom;
position = "{614, 0}";
},
{
name = btm;
position = "{742, -144}";
},
{
name = top;
position = "{778, 1792}";
}
);
layerId = "23A20576-2241-481A-AD5B-28E85381F753";
paths = (
{
closed = 1;
nodes = (
"80 242 OFFCURVE",
"342 -14 OFFCURVE",
"786 -14 CURVE SMOOTH",
"946 -14 OFFCURVE",
"1062 26 OFFCURVE",
"1134 54 CURVE",
"1134 360 LINE",
"1088 326 OFFCURVE",
"948 276 OFFCURVE",
"830 276 CURVE SMOOTH",
"602 276 OFFCURVE",
"468 430 OFFCURVE",
"468 666 CURVE SMOOTH",
"468 896 OFFCURVE",
"638 1012 OFFCURVE",
"812 1012 CURVE SMOOTH",
"982 1012 OFFCURVE",
"1068 958 OFFCURVE",
"1106 932 CURVE",
"1154 1254 LINE",
"1060 1272 OFFCURVE",
"974 1306 OFFCURVE",
"782 1306 CURVE SMOOTH",
"404 1306 OFFCURVE",
"80 1088 OFFCURVE",
"80 646 CURVE SMOOTH"
);
}
);
userData = {
RMXScaler = {
adjustSpace = 2;
height = 87;
weight = 1;
width = 96;
};
};
width = 1264;
},
{
anchors = (
{
name = bottom;
position = "{608, 0}";
},
{
name = btm;
position = "{736, -144}";
},
{
name = top;
position = "{732, 1792}";
}
);
layerId = "247DB4A4-D150-4133-9396-DC38172DD635";
paths = (
{
closed = 1;
nodes = (
"84 250 OFFCURVE",
"350 -14 OFFCURVE",
"730 -14 CURVE SMOOTH",
"904 -14 OFFCURVE",
"1006 24 OFFCURVE",
"1088 54 CURVE",
"1088 252 LINE",
"1036 214 OFFCURVE",
"884 170 OFFCURVE",
"744 170 CURVE SMOOTH",
"492 170 OFFCURVE",
"322 374 OFFCURVE",
"322 658 CURVE SMOOTH",
"322 942 OFFCURVE",
"500 1118 OFFCURVE",
"738 1118 CURVE SMOOTH",
"950 1118 OFFCURVE",
"1034 1066 OFFCURVE",
"1066 1048 CURVE",
"1100 1258 LINE",
"1038 1270 OFFCURVE",
"936 1306 OFFCURVE",
"724 1306 CURVE SMOOTH",
"396 1306 OFFCURVE",
"84 1072 OFFCURVE",
"84 642 CURVE SMOOTH"
);
}
);
width = 1228;
}
);
leftKerningGroup = c.sc;
rightKerningGroup = c.sc;
userData = {
RMXScaler = {
source = C;
};
};
},
